<?xml version="1.0" standalone="no"?>
<!DOCTYPE svg PUBLIC "-//W3C//DTD SVG 1.1//EN" "http://www.w3.org/Graphics/SVG/1.1/DTD/svg11.dtd" >
<svg xmlns="http://www.w3.org/2000/svg" xmlns:xlink="http://www.w3.org/1999/xlink" version="1.1">
<metadata>
Created by FontForge 20190801 at Tue Jan  8 23:08:14 2019
 By Jimmy Wärting
Maison Neue is the thoroughly reworked version of our early Maison typeface family. While the original version was constructed on geometric principles, Maison Neue has now been meticulously redrawn and extended. Paying particular attention to harmony, rhythm and flow, the new typeface also accounts for up-to-date display and reproduction technologies to create a distinctly contemporary grotesque, with a classic touch. The whole family contains 40 styles thus far; each includes an extended Latin character set and a variety of OpenType features.
</metadata>
<defs>
<font id="MaisonNeue-Thin" horiz-adv-x="650" >
  <font-face 
    font-family="Maison Neue Thin"
    font-weight="250"
    font-stretch="normal"
    units-per-em="1000"
    panose-1="2 11 2 4 4 0 0 0 0 0"
    ascent="730"
    descent="-270"
    x-height="530"
    cap-height="700"
    bbox="-646 -300 2145 986"
    underline-thickness="25"
    underline-position="-120"
    unicode-range="U+000D-FEFF"
  />
<missing-glyph horiz-adv-x="686" 
d="M56 -5v423c0 171 131 292 292 292c161 2 297 -123 294 -292v-423h-28l-65 65l-68 -65l-63 65l-71 -65l-69 65l-63 -65l-67 65l-66 -65h-26zM156 300l63 63l64 -63l14 14l-64 63l64 64l-14 14l-64 -64l-63 64l-14 -14l63 -64l-63 -63zM416 300l63 63l64 -63l14 14l-64 63
l64 64l-14 14l-64 -64l-63 64l-14 -14l63 -64l-63 -63z" />
    <glyph glyph-name="W_W_W" unicode="WWW" horiz-adv-x="2165" 
d="M157 0l-137 700h48l121 -625h2l200 625h44l200 -625h2l200 625h44l200 -625h2l201 625h44l200 -625h2l200 625h44l200 -625h2l121 625h48l-138 -700h-54l-200 623h-2l-200 -623h-44l-200 623h-2l-200 -623h-45l-200 623h-2l-200 -623h-44l-200 623h-2l-200 -623h-55z" />
    <glyph glyph-name="fi" unicode="fi" horiz-adv-x="481" 
d="M155 530h259v-530h-44v490h-215v-490h-44v490h-88v40h88v63c0 64 37 100 104 100h67v-41h-63c-44 0 -64 -20 -64 -65v-57zM352 689h66v-64h-66v64z" />
    <glyph glyph-name="fl" unicode="fl" horiz-adv-x="488" 
d="M370 730h44v-730h-44v490h-215v-490h-44v490h-88v40h88v63c0 64 37 100 104 100h67v-41h-63c-44 0 -64 -20 -64 -65v-57h215v200z" />
    <glyph glyph-name="w_w_w" unicode="www" horiz-adv-x="1759" 
d="M153 0l-125 530h44l107 -461h2l152 461h44l152 -461h2l152 461h43l152 -461h2l153 461h43l152 -461h2l152 461h43l153 -461h2l107 461h44l-125 -530h-44l-157 474h-2l-157 -474h-34l-157 474h-2l-157 -474h-33l-157 474h-2l-158 -474h-33l-157 474h-2l-157 -474h-44z" />
    <glyph glyph-name=".notdef" horiz-adv-x="686" 
d="M56 -5v423c0 171 131 292 292 292c161 2 297 -123 294 -292v-423h-28l-65 65l-68 -65l-63 65l-71 -65l-69 65l-63 -65l-67 65l-66 -65h-26zM156 300l63 63l64 -63l14 14l-64 63l64 64l-14 14l-64 -64l-63 64l-14 -14l63 -64l-63 -63zM416 300l63 63l64 -63l14 14l-64 63
l64 64l-14 14l-64 -64l-63 64l-14 -14l63 -64l-63 -63z" />
    <glyph glyph-name="NULL" horiz-adv-x="0" 
 />
    <glyph glyph-name="CR" unicode="&#xd;" horiz-adv-x="368" 
 />
    <glyph glyph-name="space" unicode=" " horiz-adv-x="276" 
 />
    <glyph glyph-name="A" unicode="A" horiz-adv-x="576" 
d="M522 0l-57 155h-354l-57 -155h-49l260 700h47l259 -700h-49zM126 196h324l-161 442h-2z" />
    <glyph glyph-name="Aacute" unicode="&#xc1;" horiz-adv-x="576" 
d="M522 0l-57 155h-354l-57 -155h-49l260 700h47l259 -700h-49zM126 196h324l-161 442h-2zM257 760l66 106h70l-92 -106h-44z" />
    <glyph glyph-name="Abreve" unicode="&#x102;" horiz-adv-x="576" 
d="M522 0l-57 155h-354l-57 -155h-49l260 700h47l259 -700h-49zM126 196h324l-161 442h-2zM181 853h30c7 -37 33 -60 77 -60s70 23 77 60h30c-3 -63 -43 -103 -107 -103s-104 40 -107 103z" />
    <glyph glyph-name="uni01CD" unicode="&#x1cd;" horiz-adv-x="576" 
d="M522 0l-57 155h-354l-57 -155h-49l260 700h47l259 -700h-49zM126 196h324l-161 442h-2zM358 859l30 -24l-68 -85h-64l-68 85l30 24l70 -87z" />
    <glyph glyph-name="Acircumflex" unicode="&#xc2;" horiz-adv-x="576" 
d="M522 0l-57 155h-354l-57 -155h-49l260 700h47l259 -700h-49zM126 196h324l-161 442h-2zM388 764l-30 -24l-70 87l-70 -87l-30 24l68 85h64z" />
    <glyph glyph-name="uni1EAC" unicode="&#x1eac;" horiz-adv-x="576" 
d="M522 0l-57 155h-354l-57 -155h-49l260 700h47l259 -700h-49zM126 196h324l-161 442h-2zM388 764l-30 -24l-70 87l-70 -87l-30 24l68 85h64zM250 -124v75h76v-75h-76z" />
    <glyph glyph-name="Adieresis" unicode="&#xc4;" horiz-adv-x="576" 
d="M522 0l-57 155h-354l-57 -155h-49l260 700h47l259 -700h-49zM126 196h324l-161 442h-2zM167 750v75h76v-75h-76zM333 750v75h76v-75h-76z" />
    <glyph glyph-name="uni01DE" unicode="&#x1de;" horiz-adv-x="576" 
d="M522 0l-57 155h-354l-57 -155h-49l260 700h47l259 -700h-49zM126 196h324l-161 442h-2zM167 750v75h76v-75h-76zM333 750v75h76v-75h-76zM167 865v37h242v-37h-242z" />
    <glyph glyph-name="uni1EA0" unicode="&#x1ea0;" horiz-adv-x="576" 
d="M522 0l-57 155h-354l-57 -155h-49l260 700h47l259 -700h-49zM126 196h324l-161 442h-2zM250 -124v75h76v-75h-76z" />
    <glyph glyph-name="Agrave" unicode="&#xc0;" horiz-adv-x="576" 
d="M522 0l-57 155h-354l-57 -155h-49l260 700h47l259 -700h-49zM126 196h324l-161 442h-2zM275 760l-92 106h71l65 -106h-44z" />
    <glyph glyph-name="Amacron" unicode="&#x100;" horiz-adv-x="576" 
d="M522 0l-57 155h-354l-57 -155h-49l260 700h47l259 -700h-49zM126 196h324l-161 442h-2zM167 760v37h242v-37h-242z" />
    <glyph glyph-name="Aogonek" unicode="&#x104;" horiz-adv-x="576" 
d="M522 0l-57 155h-354l-57 -155h-49l260 700h47l259 -700h-49zM126 196h324l-161 442h-2zM442 -113c0 43 40 91 101 124l24 -11c-57 -32 -85 -67 -85 -105c0 -25 14 -38 42 -38c19 0 38 7 59 20l17 -35c-24 -16 -51 -24 -81 -24c-49 0 -77 24 -77 69z" />
    <glyph glyph-name="Aring" unicode="&#xc5;" horiz-adv-x="576" 
d="M522 0l-57 155h-354l-57 -155h-49l260 700h47l259 -700h-49zM126 196h324l-161 442h-2zM180 773c0 59 45 103 108 103s108 -44 108 -103c0 -60 -45 -103 -108 -103s-108 43 -108 103zM361 773c0 43 -32 73 -73 73c-43 0 -73 -30 -73 -73c0 -41 30 -73 73 -73
c41 0 73 32 73 73z" />
    <glyph glyph-name="Aringacute" unicode="&#x1fa;" horiz-adv-x="576" 
d="M522 0l-57 155h-354l-57 -155h-49l260 700h47l259 -700h-49zM126 196h324l-161 442h-2zM180 773c0 59 45 103 108 103s108 -44 108 -103c0 -60 -45 -103 -108 -103s-108 43 -108 103zM361 773c0 43 -32 73 -73 73c-43 0 -73 -30 -73 -73c0 -41 30 -73 73 -73
c41 0 73 32 73 73zM257 866l66 106h70l-92 -106h-44z" />
    <glyph glyph-name="Atilde" unicode="&#xc3;" horiz-adv-x="576" 
d="M522 0l-57 155h-354l-57 -155h-49l260 700h47l259 -700h-49zM126 196h324l-161 442h-2zM281 778c-25 13 -37 20 -53 20c-20 0 -32 -13 -36 -38h-29c3 47 28 75 68 75c21 0 36 -7 65 -23c21 -13 39 -19 52 -19c21 0 34 12 37 37h28c-3 -47 -28 -75 -67 -75
c-23 0 -40 8 -65 23z" />
    <glyph glyph-name="AE" unicode="&#xc6;" horiz-adv-x="839" 
d="M781 656h-301v-274h273v-43h-273v-295h301v-44h-347v158h-306l-71 -158h-52l317 700h459v-44zM147 201h287v455h-83z" />
    <glyph glyph-name="AEacute" unicode="&#x1fc;" horiz-adv-x="839" 
d="M781 656h-301v-274h273v-43h-273v-295h301v-44h-347v158h-306l-71 -158h-52l317 700h459v-44zM147 201h287v455h-83zM399 760l66 106h70l-92 -106h-44z" />
    <glyph glyph-name="B" unicode="B" horiz-adv-x="633" 
d="M94 0v700h244c129 0 206 -64 206 -173c0 -77 -39 -132 -106 -153v-2c80 -17 132 -80 132 -172c0 -132 -82 -200 -239 -200h-237zM141 390h185c112 0 171 47 171 135c0 85 -57 131 -165 131h-191v-266zM141 44h185c133 0 197 51 197 156c0 101 -60 148 -189 148h-193v-304
z" />
    <glyph glyph-name="uni1E04" unicode="&#x1e04;" horiz-adv-x="633" 
d="M94 0v700h244c129 0 206 -64 206 -173c0 -77 -39 -132 -106 -153v-2c80 -17 132 -80 132 -172c0 -132 -82 -200 -239 -200h-237zM141 390h185c112 0 171 47 171 135c0 85 -57 131 -165 131h-191v-266zM141 44h185c133 0 197 51 197 156c0 101 -60 148 -189 148h-193v-304
zM274 -124v75h76v-75h-76z" />
    <glyph glyph-name="C" unicode="C" horiz-adv-x="648" 
d="M48 351c0 217 117 364 294 364c141 0 242 -90 266 -237l-46 -9c-23 129 -101 202 -221 202c-150 0 -246 -127 -246 -320c0 -195 96 -322 246 -322c123 0 202 77 222 214l47 -7c-20 -157 -121 -251 -269 -251c-175 0 -293 147 -293 366z" />
    <glyph glyph-name="Cacute" unicode="&#x106;" horiz-adv-x="648" 
d="M48 351c0 217 117 364 294 364c141 0 242 -90 266 -237l-46 -9c-23 129 -101 202 -221 202c-150 0 -246 -127 -246 -320c0 -195 96 -322 246 -322c123 0 202 77 222 214l47 -7c-20 -157 -121 -251 -269 -251c-175 0 -293 147 -293 366zM311 775l66 106h70l-92 -106h-44z
" />
    <glyph glyph-name="Ccaron" unicode="&#x10c;" horiz-adv-x="648" 
d="M48 351c0 217 117 364 294 364c141 0 242 -90 266 -237l-46 -9c-23 129 -101 202 -221 202c-150 0 -246 -127 -246 -320c0 -195 96 -322 246 -322c123 0 202 77 222 214l47 -7c-20 -157 -121 -251 -269 -251c-175 0 -293 147 -293 366zM412 874l30 -24l-68 -85h-64
l-68 85l30 24l70 -87z" />
    <glyph glyph-name="Ccedilla" unicode="&#xc7;" horiz-adv-x="648" 
d="M48 351c0 217 117 364 294 364c141 0 242 -90 266 -237l-46 -9c-23 129 -101 202 -221 202c-150 0 -246 -127 -246 -320c0 -195 96 -322 246 -322c123 0 202 77 222 214l47 -7c-20 -157 -121 -251 -269 -251c-175 0 -293 147 -293 366zM454 -135c0 -49 -40 -85 -93 -85
c-37 0 -68 14 -93 41l24 25c21 -23 41 -33 69 -33c35 0 59 23 59 52s-23 50 -56 50c-25 0 -45 -10 -62 -30l-28 13l58 106l28 -12l-35 -60c13 7 27 11 44 11c49 0 85 -33 85 -78z" />
    <glyph glyph-name="Ccircumflex" unicode="&#x108;" horiz-adv-x="648" 
d="M48 351c0 217 117 364 294 364c141 0 242 -90 266 -237l-46 -9c-23 129 -101 202 -221 202c-150 0 -246 -127 -246 -320c0 -195 96 -322 246 -322c123 0 202 77 222 214l47 -7c-20 -157 -121 -251 -269 -251c-175 0 -293 147 -293 366zM442 779l-30 -24l-70 87l-70 -87
l-30 24l68 85h64z" />
    <glyph glyph-name="Cdotaccent" unicode="&#x10a;" horiz-adv-x="648" 
d="M48 351c0 217 117 364 294 364c141 0 242 -90 266 -237l-46 -9c-23 129 -101 202 -221 202c-150 0 -246 -127 -246 -320c0 -195 96 -322 246 -322c123 0 202 77 222 214l47 -7c-20 -157 -121 -251 -269 -251c-175 0 -293 147 -293 366zM304 775v75h76v-75h-76z" />
    <glyph glyph-name="D" unicode="D" horiz-adv-x="651" 
d="M94 0v700h206c183 0 303 -139 303 -349c0 -227 -116 -351 -304 -351h-205zM141 44h153c167 0 262 108 262 307c0 186 -97 305 -259 305h-156v-612z" />
    <glyph glyph-name="Eth" unicode="&#xd0;" horiz-adv-x="651" 
d="M94 0v700h206c183 0 303 -139 303 -349c0 -227 -116 -351 -304 -351h-205zM141 44h153c167 0 262 108 262 307c0 186 -97 305 -259 305h-156v-612zM1 332v40h337v-40h-337z" />
    <glyph glyph-name="Dcaron" unicode="&#x10e;" horiz-adv-x="651" 
d="M94 0v700h206c183 0 303 -139 303 -349c0 -227 -116 -351 -304 -351h-205zM141 44h153c167 0 262 108 262 307c0 186 -97 305 -259 305h-156v-612zM363 859l30 -24l-68 -85h-64l-68 85l30 24l70 -87z" />
    <glyph glyph-name="Dcroat" unicode="&#x110;" horiz-adv-x="651" 
d="M94 0v700h206c183 0 303 -139 303 -349c0 -227 -116 -351 -304 -351h-205zM141 44h153c167 0 262 108 262 307c0 186 -97 305 -259 305h-156v-612zM1 332v40h337v-40h-337z" />
    <glyph glyph-name="uni1E0C" unicode="&#x1e0c;" horiz-adv-x="651" 
d="M94 0v700h206c183 0 303 -139 303 -349c0 -227 -116 -351 -304 -351h-205zM141 44h153c167 0 262 108 262 307c0 186 -97 305 -259 305h-156v-612zM288 -124v75h76v-75h-76z" />
    <glyph glyph-name="E" unicode="E" horiz-adv-x="560" 
d="M94 0v700h408v-44h-361v-274h333v-42h-333v-296h361v-44h-408z" />
    <glyph glyph-name="Eacute" unicode="&#xc9;" horiz-adv-x="560" 
d="M94 0v700h408v-44h-361v-274h333v-42h-333v-296h361v-44h-408zM276 760l66 106h70l-92 -106h-44z" />
    <glyph glyph-name="Ebreve" unicode="&#x114;" horiz-adv-x="560" 
d="M94 0v700h408v-44h-361v-274h333v-42h-333v-296h361v-44h-408zM200 853h30c7 -37 33 -60 77 -60s70 23 77 60h30c-3 -63 -43 -103 -107 -103s-104 40 -107 103z" />
    <glyph glyph-name="Ecaron" unicode="&#x11a;" horiz-adv-x="560" 
d="M94 0v700h408v-44h-361v-274h333v-42h-333v-296h361v-44h-408zM377 859l30 -24l-68 -85h-64l-68 85l30 24l70 -87z" />
    <glyph glyph-name="uni0228" unicode="&#x228;" horiz-adv-x="560" 
d="M94 0v700h408v-44h-361v-274h333v-42h-333v-296h361v-44h-408zM411 -121c0 -49 -40 -85 -93 -85c-37 0 -68 14 -93 41l24 25c21 -23 41 -33 69 -33c35 0 59 23 59 52s-23 50 -56 50c-25 0 -45 -10 -62 -30l-28 13l58 106l28 -12l-35 -60c13 7 27 11 44 11
c49 0 85 -33 85 -78z" />
    <glyph glyph-name="Ecircumflex" unicode="&#xca;" horiz-adv-x="560" 
d="M94 0v700h408v-44h-361v-274h333v-42h-333v-296h361v-44h-408zM407 764l-30 -24l-70 87l-70 -87l-30 24l68 85h64z" />
    <glyph glyph-name="uni1EC6" unicode="&#x1ec6;" horiz-adv-x="560" 
d="M94 0v700h408v-44h-361v-274h333v-42h-333v-296h361v-44h-408zM407 764l-30 -24l-70 87l-70 -87l-30 24l68 85h64zM260 -124v75h76v-75h-76z" />
    <glyph glyph-name="Edieresis" unicode="&#xcb;" horiz-adv-x="560" 
d="M94 0v700h408v-44h-361v-274h333v-42h-333v-296h361v-44h-408zM186 750v75h76v-75h-76zM352 750v75h76v-75h-76z" />
    <glyph glyph-name="Edotaccent" unicode="&#x116;" horiz-adv-x="560" 
d="M94 0v700h408v-44h-361v-274h333v-42h-333v-296h361v-44h-408zM269 760v75h76v-75h-76z" />
    <glyph glyph-name="uni1EB8" unicode="&#x1eb8;" horiz-adv-x="560" 
d="M94 0v700h408v-44h-361v-274h333v-42h-333v-296h361v-44h-408zM260 -124v75h76v-75h-76z" />
    <glyph glyph-name="Egrave" unicode="&#xc8;" horiz-adv-x="560" 
d="M94 0v700h408v-44h-361v-274h333v-42h-333v-296h361v-44h-408zM294 760l-92 106h71l65 -106h-44z" />
    <glyph glyph-name="Emacron" unicode="&#x112;" horiz-adv-x="560" 
d="M94 0v700h408v-44h-361v-274h333v-42h-333v-296h361v-44h-408zM186 760v37h242v-37h-242z" />
    <glyph glyph-name="Eogonek" unicode="&#x118;" horiz-adv-x="560" 
d="M94 0v700h408v-44h-361v-274h333v-42h-333v-296h361v-44h-408zM326 -113c0 43 40 91 101 124l24 -11c-57 -32 -85 -67 -85 -105c0 -25 14 -38 42 -38c19 0 38 7 59 20l17 -35c-24 -16 -51 -24 -81 -24c-49 0 -77 24 -77 69z" />
    <glyph glyph-name="uni018E" unicode="&#x18e;" horiz-adv-x="560" 
d="M466 0h-408v44h361v296h-333v42h333v274h-361v44h408v-700z" />
    <glyph glyph-name="uni1EBC" unicode="&#x1ebc;" horiz-adv-x="560" 
d="M94 0v700h408v-44h-361v-274h333v-42h-333v-296h361v-44h-408zM300 778c-25 13 -37 20 -53 20c-20 0 -32 -13 -36 -38h-29c3 47 28 75 68 75c21 0 36 -7 65 -23c21 -13 39 -19 52 -19c21 0 34 12 37 37h28c-3 -47 -28 -75 -67 -75c-23 0 -40 8 -65 23z" />
    <glyph glyph-name="F" unicode="F" horiz-adv-x="550" 
d="M94 0v700h408v-44h-361v-296h333v-42h-333v-318h-47z" />
    <glyph glyph-name="G" unicode="G" horiz-adv-x="658" 
d="M48 351c0 217 117 364 294 364c68 0 126 -20 173 -60c48 -39 78 -93 91 -162l-46 -9c-25 120 -104 187 -219 187c-150 0 -246 -127 -246 -320c0 -195 96 -322 246 -322c145 0 225 90 224 254h-215v44h260v-47c0 -187 -100 -295 -269 -295c-175 0 -293 147 -293 366z" />
    <glyph glyph-name="Gbreve" unicode="&#x11e;" horiz-adv-x="658" 
d="M48 351c0 217 117 364 294 364c68 0 126 -20 173 -60c48 -39 78 -93 91 -162l-46 -9c-25 120 -104 187 -219 187c-150 0 -246 -127 -246 -320c0 -195 96 -322 246 -322c145 0 225 90 224 254h-215v44h260v-47c0 -187 -100 -295 -269 -295c-175 0 -293 147 -293 366z
M235 868h30c7 -37 33 -60 77 -60s70 23 77 60h30c-3 -63 -43 -103 -107 -103s-104 40 -107 103z" />
    <glyph glyph-name="Gcircumflex" unicode="&#x11c;" horiz-adv-x="658" 
d="M48 351c0 217 117 364 294 364c68 0 126 -20 173 -60c48 -39 78 -93 91 -162l-46 -9c-25 120 -104 187 -219 187c-150 0 -246 -127 -246 -320c0 -195 96 -322 246 -322c145 0 225 90 224 254h-215v44h260v-47c0 -187 -100 -295 -269 -295c-175 0 -293 147 -293 366z
M442 779l-30 -24l-70 87l-70 -87l-30 24l68 85h64z" />
    <glyph glyph-name="uni0122" unicode="&#x122;" horiz-adv-x="658" 
d="M48 351c0 217 117 364 294 364c68 0 126 -20 173 -60c48 -39 78 -93 91 -162l-46 -9c-25 120 -104 187 -219 187c-150 0 -246 -127 -246 -320c0 -195 96 -322 246 -322c145 0 225 90 224 254h-215v44h260v-47c0 -187 -100 -295 -269 -295c-175 0 -293 147 -293 366z
M305 -200v27c21 4 29 15 29 39h-31v71h76v-62c0 -45 -25 -72 -74 -75z" />
    <glyph glyph-name="Gdotaccent" unicode="&#x120;" horiz-adv-x="658" 
d="M48 351c0 217 117 364 294 364c68 0 126 -20 173 -60c48 -39 78 -93 91 -162l-46 -9c-25 120 -104 187 -219 187c-150 0 -246 -127 -246 -320c0 -195 96 -322 246 -322c145 0 225 90 224 254h-215v44h260v-47c0 -187 -100 -295 -269 -295c-175 0 -293 147 -293 366z
M304 775v75h76v-75h-76z" />
    <glyph glyph-name="H" unicode="H" 
d="M94 0v700h47v-317h369v317h46v-700h-46v342h-369v-342h-47z" />
    <glyph glyph-name="Hbar" unicode="&#x126;" horiz-adv-x="646" 
d="M646 564v-40h-92v-524h-46v341h-369v-341h-47v524h-92v40h92v136h47v-136h369v136h46v-136h92zM508 383v141h-369v-141h369z" />
    <glyph glyph-name="Hcircumflex" unicode="&#x124;" 
d="M94 0v700h47v-317h369v317h46v-700h-46v342h-369v-342h-47zM425 764l-30 -24l-70 87l-70 -87l-30 24l68 85h64z" />
    <glyph glyph-name="uni1E24" unicode="&#x1e24;" 
d="M94 0v700h47v-317h369v317h46v-700h-46v342h-369v-342h-47zM287 -124v75h76v-75h-76z" />
    <glyph glyph-name="I" unicode="I" horiz-adv-x="235" 
d="M94 0v700h47v-700h-47z" />
    <glyph glyph-name="Iacute" unicode="&#xcd;" horiz-adv-x="235" 
d="M94 0v700h47v-700h-47zM87 760l66 106h70l-92 -106h-44z" />
    <glyph glyph-name="Ibreve" unicode="&#x12c;" horiz-adv-x="235" 
d="M94 0v700h47v-700h-47zM11 853h30c7 -37 33 -60 77 -60s70 23 77 60h30c-3 -63 -43 -103 -107 -103s-104 40 -107 103z" />
    <glyph glyph-name="uni01CF" unicode="&#x1cf;" horiz-adv-x="235" 
d="M94 0v700h47v-700h-47zM188 859l30 -24l-68 -85h-64l-68 85l30 24l70 -87z" />
    <glyph glyph-name="Icircumflex" unicode="&#xce;" horiz-adv-x="235" 
d="M94 0v700h47v-700h-47zM218 764l-30 -24l-70 87l-70 -87l-30 24l68 85h64z" />
    <glyph glyph-name="Idieresis" unicode="&#xcf;" horiz-adv-x="235" 
d="M94 0v700h47v-700h-47zM-3 750v75h76v-75h-76zM163 750v75h76v-75h-76z" />
    <glyph glyph-name="Idotaccent" unicode="&#x130;" horiz-adv-x="235" 
d="M94 0v700h47v-700h-47zM80 760v75h76v-75h-76z" />
    <glyph glyph-name="uni1ECA" unicode="&#x1eca;" horiz-adv-x="235" 
d="M94 0v700h47v-700h-47zM80 -124v75h76v-75h-76z" />
    <glyph glyph-name="Igrave" unicode="&#xcc;" horiz-adv-x="235" 
d="M94 0v700h47v-700h-47zM105 760l-92 106h71l65 -106h-44z" />
    <glyph glyph-name="Imacron" unicode="&#x12a;" horiz-adv-x="235" 
d="M94 0v700h47v-700h-47zM-3 760v37h242v-37h-242z" />
    <glyph glyph-name="Iogonek" unicode="&#x12e;" horiz-adv-x="235" 
d="M94 0v700h47v-700h-47zM12 -113c0 43 40 91 101 124l24 -11c-57 -32 -85 -67 -85 -105c0 -25 14 -38 42 -38c19 0 38 7 59 20l17 -35c-24 -16 -51 -24 -81 -24c-49 0 -77 24 -77 69z" />
    <glyph glyph-name="Itilde" unicode="&#x128;" horiz-adv-x="235" 
d="M94 0v700h47v-700h-47zM111 778c-25 13 -37 20 -53 20c-20 0 -32 -13 -36 -38h-29c3 47 28 75 68 75c21 0 36 -7 65 -23c21 -13 39 -19 52 -19c21 0 34 12 37 37h28c-3 -47 -28 -75 -67 -75c-23 0 -40 8 -65 23z" />
    <glyph glyph-name="J" unicode="J" horiz-adv-x="497" 
d="M30 186l45 6c7 -111 52 -163 144 -163c95 0 142 62 142 186v485h47v-486c0 -148 -68 -229 -189 -229c-118 0 -181 67 -189 201z" />
    <glyph glyph-name="Jcircumflex" unicode="&#x134;" horiz-adv-x="497" 
d="M30 186l45 6c7 -111 52 -163 144 -163c95 0 142 62 142 186v485h47v-486c0 -148 -68 -229 -189 -229c-118 0 -181 67 -189 201zM485 764l-30 -24l-70 87l-70 -87l-30 24l68 85h64z" />
    <glyph glyph-name="K" unicode="K" horiz-adv-x="569" 
d="M94 0v700h47v-399h2l341 399h58l-268 -311l287 -389h-57l-259 354h-2l-102 -119v-235h-47z" />
    <glyph glyph-name="uni0136" unicode="&#x136;" horiz-adv-x="569" 
d="M94 0v700h47v-399h2l341 399h58l-268 -311l287 -389h-57l-259 354h-2l-102 -119v-235h-47zM282 -185v27c21 4 29 15 29 39h-31v71h76v-62c0 -45 -25 -72 -74 -75z" />
    <glyph glyph-name="L" unicode="L" horiz-adv-x="511" 
d="M94 0v700h47v-656h335v-44h-382z" />
    <glyph glyph-name="Lacute" unicode="&#x139;" horiz-adv-x="511" 
d="M94 0v700h47v-656h335v-44h-382zM87 760l66 106h70l-92 -106h-44z" />
    <glyph glyph-name="Lcaron" unicode="&#x13d;" horiz-adv-x="483" 
d="M94 0v700h47v-656h335v-44h-382zM385 564v27c21 4 29 15 29 39h-31v71h76v-62c0 -45 -25 -72 -74 -75z" />
    <glyph glyph-name="uni013B" unicode="&#x13b;" horiz-adv-x="511" 
d="M94 0v700h47v-656h335v-44h-382zM249 -185v27c21 4 29 15 29 39h-31v71h76v-62c0 -45 -25 -72 -74 -75z" />
    <glyph glyph-name="Ldot" unicode="&#x13f;" horiz-adv-x="511" 
d="M94 0v700h47v-656h335v-44h-382zM311 348v86h88v-86h-88z" />
    <glyph glyph-name="uni1E36" unicode="&#x1e36;" horiz-adv-x="511" 
d="M94 0v700h47v-656h335v-44h-382zM247 -124v75h76v-75h-76z" />
    <glyph glyph-name="Lslash" unicode="&#x141;" horiz-adv-x="543" 
d="M153 0v700h47v-656h335v-44h-382zM173 290l209 191l-22 23l-173 -158v3l-187 -179l21 -21l152 146v-5z" />
    <glyph glyph-name="M" unicode="M" horiz-adv-x="837" 
d="M94 0v700h64l260 -621h2l259 621h64v-700h-46v628h-2l-264 -628h-24l-264 628h-2v-628h-47z" />
    <glyph glyph-name="N" unicode="N" horiz-adv-x="663" 
d="M94 0v700h57l369 -629h2v629h47v-700h-57l-369 629h-2v-629h-47z" />
    <glyph glyph-name="Nacute" unicode="&#x143;" horiz-adv-x="663" 
d="M94 0v700h57l369 -629h2v629h47v-700h-57l-369 629h-2v-629h-47zM301 760l66 106h70l-92 -106h-44z" />
    <glyph glyph-name="Ncaron" unicode="&#x147;" horiz-adv-x="663" 
d="M94 0v700h57l369 -629h2v629h47v-700h-57l-369 629h-2v-629h-47zM402 859l30 -24l-68 -85h-64l-68 85l30 24l70 -87z" />
    <glyph glyph-name="uni0145" unicode="&#x145;" horiz-adv-x="663" 
d="M94 0v700h57l369 -629h2v629h47v-700h-57l-369 629h-2v-629h-47zM303 -185v27c21 4 29 15 29 39h-31v71h76v-62c0 -45 -25 -72 -74 -75z" />
    <glyph glyph-name="uni1E44" unicode="&#x1e44;" horiz-adv-x="663" 
d="M94 0v700h57l369 -629h2v629h47v-700h-57l-369 629h-2v-629h-47zM294 760v75h76v-75h-76z" />
    <glyph glyph-name="uni1E46" unicode="&#x1e46;" horiz-adv-x="663" 
d="M94 0v700h57l369 -629h2v629h47v-700h-57l-369 629h-2v-629h-47zM301 -124v75h76v-75h-76z" />
    <glyph glyph-name="Eng" unicode="&#x14a;" horiz-adv-x="661" 
d="M521 700h46v-761c0 -67 -28 -94 -99 -94h-34v41h34c39 0 55 15 55 54v60l-380 622h-2v-622h-47v700h51l374 -612h2v612z" />
    <glyph glyph-name="Ntilde" unicode="&#xd1;" horiz-adv-x="663" 
d="M94 0v700h57l369 -629h2v629h47v-700h-57l-369 629h-2v-629h-47zM325 778c-25 13 -37 20 -53 20c-20 0 -32 -13 -36 -38h-29c3 47 28 75 68 75c21 0 36 -7 65 -23c21 -13 39 -19 52 -19c21 0 34 12 37 37h28c-3 -47 -28 -75 -67 -75c-23 0 -40 8 -65 23z" />
    <glyph glyph-name="O" unicode="O" horiz-adv-x="684" 
d="M48 350c0 218 117 365 294 365c176 0 294 -147 294 -365s-118 -365 -294 -365c-177 0 -294 147 -294 365zM589 350c0 195 -98 321 -247 321c-150 0 -247 -126 -247 -321s97 -321 247 -321c149 0 247 126 247 321z" />
    <glyph glyph-name="Oacute" unicode="&#xd3;" horiz-adv-x="684" 
d="M48 350c0 218 117 365 294 365c176 0 294 -147 294 -365s-118 -365 -294 -365c-177 0 -294 147 -294 365zM589 350c0 195 -98 321 -247 321c-150 0 -247 -126 -247 -321s97 -321 247 -321c149 0 247 126 247 321zM311 775l66 106h70l-92 -106h-44z" />
    <glyph glyph-name="Obreve" unicode="&#x14e;" horiz-adv-x="684" 
d="M48 350c0 218 117 365 294 365c176 0 294 -147 294 -365s-118 -365 -294 -365c-177 0 -294 147 -294 365zM589 350c0 195 -98 321 -247 321c-150 0 -247 -126 -247 -321s97 -321 247 -321c149 0 247 126 247 321zM235 868h30c7 -37 33 -60 77 -60s70 23 77 60h30
c-3 -63 -43 -103 -107 -103s-104 40 -107 103z" />
    <glyph glyph-name="uni01D1" unicode="&#x1d1;" horiz-adv-x="684" 
d="M48 350c0 218 117 365 294 365c176 0 294 -147 294 -365s-118 -365 -294 -365c-177 0 -294 147 -294 365zM589 350c0 195 -98 321 -247 321c-150 0 -247 -126 -247 -321s97 -321 247 -321c149 0 247 126 247 321zM412 874l30 -24l-68 -85h-64l-68 85l30 24l70 -87z" />
    <glyph glyph-name="Ocircumflex" unicode="&#xd4;" horiz-adv-x="684" 
d="M48 350c0 218 117 365 294 365c176 0 294 -147 294 -365s-118 -365 -294 -365c-177 0 -294 147 -294 365zM589 350c0 195 -98 321 -247 321c-150 0 -247 -126 -247 -321s97 -321 247 -321c149 0 247 126 247 321zM442 779l-30 -24l-70 87l-70 -87l-30 24l68 85h64z" />
    <glyph glyph-name="uni1ED8" unicode="&#x1ed8;" horiz-adv-x="684" 
d="M48 350c0 218 117 365 294 365c176 0 294 -147 294 -365s-118 -365 -294 -365c-177 0 -294 147 -294 365zM589 350c0 195 -98 321 -247 321c-150 0 -247 -126 -247 -321s97 -321 247 -321c149 0 247 126 247 321zM442 779l-30 -24l-70 87l-70 -87l-30 24l68 85h64z
M304 -139v75h76v-75h-76z" />
    <glyph glyph-name="Odieresis" unicode="&#xd6;" horiz-adv-x="684" 
d="M48 350c0 218 117 365 294 365c176 0 294 -147 294 -365s-118 -365 -294 -365c-177 0 -294 147 -294 365zM589 350c0 195 -98 321 -247 321c-150 0 -247 -126 -247 -321s97 -321 247 -321c149 0 247 126 247 321zM221 765v75h76v-75h-76zM387 765v75h76v-75h-76z" />
    <glyph glyph-name="uni1ECC" unicode="&#x1ecc;" horiz-adv-x="684" 
d="M48 350c0 218 117 365 294 365c176 0 294 -147 294 -365s-118 -365 -294 -365c-177 0 -294 147 -294 365zM589 350c0 195 -98 321 -247 321c-150 0 -247 -126 -247 -321s97 -321 247 -321c149 0 247 126 247 321zM304 -139v75h76v-75h-76z" />
    <glyph glyph-name="Ograve" unicode="&#xd2;" horiz-adv-x="684" 
d="M48 350c0 218 117 365 294 365c176 0 294 -147 294 -365s-118 -365 -294 -365c-177 0 -294 147 -294 365zM589 350c0 195 -98 321 -247 321c-150 0 -247 -126 -247 -321s97 -321 247 -321c149 0 247 126 247 321zM329 775l-92 106h71l65 -106h-44z" />
    <glyph glyph-name="Ohungarumlaut" unicode="&#x150;" horiz-adv-x="684" 
d="M48 350c0 218 117 365 294 365c176 0 294 -147 294 -365s-118 -365 -294 -365c-177 0 -294 147 -294 365zM589 350c0 195 -98 321 -247 321c-150 0 -247 -126 -247 -321s97 -321 247 -321c149 0 247 126 247 321zM242 775l66 106h70l-92 -106h-44zM365 775l66 106h70
l-92 -106h-44z" />
    <glyph glyph-name="Omacron" unicode="&#x14c;" horiz-adv-x="684" 
d="M48 350c0 218 117 365 294 365c176 0 294 -147 294 -365s-118 -365 -294 -365c-177 0 -294 147 -294 365zM589 350c0 195 -98 321 -247 321c-150 0 -247 -126 -247 -321s97 -321 247 -321c149 0 247 126 247 321zM221 775v37h242v-37h-242z" />
    <glyph glyph-name="Oslash" unicode="&#xd8;" horiz-adv-x="690" 
d="M639 350c0 -218 -118 -365 -294 -365c-61 0 -114 16 -159 49l-30 -53l-30 16l33 59c-69 64 -108 167 -108 294c0 218 117 365 294 365c61 0 114 -16 159 -49l30 53l29 -16l-33 -58c69 -65 109 -168 109 -295zM182 96l300 531c-40 29 -86 44 -137 44
c-150 0 -247 -126 -247 -321c0 -109 29 -198 84 -254zM592 350c0 109 -30 198 -85 254l-299 -531c40 -29 86 -44 137 -44c149 0 247 126 247 321z" />
    <glyph glyph-name="Oslashacute" unicode="&#x1fe;" horiz-adv-x="690" 
d="M639 350c0 -218 -118 -365 -294 -365c-61 0 -114 16 -159 49l-30 -53l-30 16l33 59c-69 64 -108 167 -108 294c0 218 117 365 294 365c61 0 114 -16 159 -49l30 53l29 -16l-33 -58c69 -65 109 -168 109 -295zM182 96l300 531c-40 29 -86 44 -137 44
c-150 0 -247 -126 -247 -321c0 -109 29 -198 84 -254zM592 350c0 109 -30 198 -85 254l-299 -531c40 -29 86 -44 137 -44c149 0 247 126 247 321zM314 775l66 106h70l-92 -106h-44z" />
    <glyph glyph-name="Otilde" unicode="&#xd5;" horiz-adv-x="684" 
d="M48 350c0 218 117 365 294 365c176 0 294 -147 294 -365s-118 -365 -294 -365c-177 0 -294 147 -294 365zM589 350c0 195 -98 321 -247 321c-150 0 -247 -126 -247 -321s97 -321 247 -321c149 0 247 126 247 321zM335 793c-25 13 -37 20 -53 20c-20 0 -32 -13 -36 -38
h-29c3 47 28 75 68 75c21 0 36 -7 65 -23c21 -13 39 -19 52 -19c21 0 34 12 37 37h28c-3 -47 -28 -75 -67 -75c-23 0 -40 8 -65 23z" />
    <glyph glyph-name="uni1E4C" unicode="&#x1e4c;" horiz-adv-x="684" 
d="M48 350c0 218 117 365 294 365c176 0 294 -147 294 -365s-118 -365 -294 -365c-177 0 -294 147 -294 365zM589 350c0 195 -98 321 -247 321c-150 0 -247 -126 -247 -321s97 -321 247 -321c149 0 247 126 247 321zM335 793c-25 13 -37 20 -53 20c-20 0 -32 -13 -36 -38
h-29c3 47 28 75 68 75c21 0 36 -7 65 -23c21 -13 39 -19 52 -19c21 0 34 12 37 37h28c-3 -47 -28 -75 -67 -75c-23 0 -40 8 -65 23zM311 880l66 106h70l-92 -106h-44z" />
    <glyph glyph-name="OE" unicode="&#x152;" horiz-adv-x="954" 
d="M48 350c0 218 117 365 294 365c67 0 127 -23 174 -63h2v48h378v-44h-332v-274h304v-43h-304v-295h332v-44h-378v48h-2c-48 -42 -106 -63 -174 -63c-177 0 -294 147 -294 365zM518 107v486c-45 52 -103 78 -176 78c-150 0 -247 -126 -247 -321s97 -321 247 -321
c73 0 131 26 176 78z" />
    <glyph glyph-name="P" unicode="P" horiz-adv-x="600" 
d="M94 0v700h247c145 0 231 -78 231 -209c0 -133 -83 -209 -231 -209h-200v-282h-47zM141 326h198c123 0 187 57 187 165s-64 165 -187 165h-198v-330z" />
    <glyph glyph-name="Thorn" unicode="&#xde;" horiz-adv-x="600" 
d="M572 354c0 -133 -84 -209 -231 -209h-200v-145h-47v700h47v-137h200c144 0 231 -77 231 -209zM526 354c0 108 -64 165 -187 165h-198v-330h198c123 0 187 57 187 165z" />
    <glyph glyph-name="Q" unicode="Q" horiz-adv-x="684" 
d="M552 82l68 -70l-29 -27l-66 68c-51 -45 -112 -68 -183 -68c-177 0 -294 147 -294 365s117 365 294 365c176 0 294 -147 294 -365c0 -109 -31 -203 -84 -268zM493 86l-168 173l30 27l166 -171c44 57 68 138 68 235c0 195 -98 321 -247 321c-150 0 -247 -126 -247 -321
s97 -321 247 -321c59 0 110 19 151 57z" />
    <glyph glyph-name="R" unicode="R" horiz-adv-x="598" 
d="M375 304v-1l160 -303h-54l-156 302h-184v-302h-47v700h243c141 0 223 -73 223 -197c0 -112 -69 -184 -185 -199zM141 346h191c117 0 181 56 181 157c0 100 -62 153 -181 153h-191v-310z" />
    <glyph glyph-name="Racute" unicode="&#x154;" horiz-adv-x="598" 
d="M375 304v-1l160 -303h-54l-156 302h-184v-302h-47v700h243c141 0 223 -73 223 -197c0 -112 -69 -184 -185 -199zM141 346h191c117 0 181 56 181 157c0 100 -62 153 -181 153h-191v-310zM268 760l66 106h70l-92 -106h-44z" />
    <glyph glyph-name="Rcaron" unicode="&#x158;" horiz-adv-x="598" 
d="M375 304v-1l160 -303h-54l-156 302h-184v-302h-47v700h243c141 0 223 -73 223 -197c0 -112 -69 -184 -185 -199zM141 346h191c117 0 181 56 181 157c0 100 -62 153 -181 153h-191v-310zM369 859l30 -24l-68 -85h-64l-68 85l30 24l70 -87z" />
    <glyph glyph-name="uni0156" unicode="&#x156;" horiz-adv-x="598" 
d="M375 304v-1l160 -303h-54l-156 302h-184v-302h-47v700h243c141 0 223 -73 223 -197c0 -112 -69 -184 -185 -199zM141 346h191c117 0 181 56 181 157c0 100 -62 153 -181 153h-191v-310zM273 -185v27c21 4 29 15 29 39h-31v71h76v-62c0 -45 -25 -72 -74 -75z" />
    <glyph glyph-name="S" unicode="S" horiz-adv-x="584" 
d="M38 225l46 6c9 -131 88 -202 227 -202c115 0 189 54 189 139c0 86 -52 131 -213 179c-165 52 -218 96 -218 188c0 105 88 180 214 180c63 0 117 -18 161 -55c45 -36 71 -84 80 -143l-46 -8c-17 99 -93 162 -196 162c-99 0 -167 -55 -167 -136c0 -69 45 -104 188 -146
c181 -56 243 -111 243 -221c0 -111 -93 -183 -236 -183c-163 0 -263 88 -272 240z" />
    <glyph glyph-name="Sacute" unicode="&#x15a;" horiz-adv-x="584" 
d="M38 225l46 6c9 -131 88 -202 227 -202c115 0 189 54 189 139c0 86 -52 131 -213 179c-165 52 -218 96 -218 188c0 105 88 180 214 180c63 0 117 -18 161 -55c45 -36 71 -84 80 -143l-46 -8c-17 99 -93 162 -196 162c-99 0 -167 -55 -167 -136c0 -69 45 -104 188 -146
c181 -56 243 -111 243 -221c0 -111 -93 -183 -236 -183c-163 0 -263 88 -272 240zM252 775l66 106h70l-92 -106h-44z" />
    <glyph glyph-name="Scaron" unicode="&#x160;" horiz-adv-x="584" 
d="M38 225l46 6c9 -131 88 -202 227 -202c115 0 189 54 189 139c0 86 -52 131 -213 179c-165 52 -218 96 -218 188c0 105 88 180 214 180c63 0 117 -18 161 -55c45 -36 71 -84 80 -143l-46 -8c-17 99 -93 162 -196 162c-99 0 -167 -55 -167 -136c0 -69 45 -104 188 -146
c181 -56 243 -111 243 -221c0 -111 -93 -183 -236 -183c-163 0 -263 88 -272 240zM353 874l30 -24l-68 -85h-64l-68 85l30 24l70 -87z" />
    <glyph glyph-name="Scedilla" unicode="&#x15e;" horiz-adv-x="584" 
d="M38 225l46 6c9 -131 88 -202 227 -202c115 0 189 54 189 139c0 86 -52 131 -213 179c-165 52 -218 96 -218 188c0 105 88 180 214 180c63 0 117 -18 161 -55c45 -36 71 -84 80 -143l-46 -8c-17 99 -93 162 -196 162c-99 0 -167 -55 -167 -136c0 -69 45 -104 188 -146
c181 -56 243 -111 243 -221c0 -111 -93 -183 -236 -183c-163 0 -263 88 -272 240zM423 -135c0 -49 -40 -85 -93 -85c-37 0 -68 14 -93 41l24 25c21 -23 41 -33 69 -33c35 0 59 23 59 52s-23 50 -56 50c-25 0 -45 -10 -62 -30l-28 13l58 106l28 -12l-35 -60c13 7 27 11 44 11
c49 0 85 -33 85 -78z" />
    <glyph glyph-name="Scircumflex" unicode="&#x15c;" horiz-adv-x="584" 
d="M38 225l46 6c9 -131 88 -202 227 -202c115 0 189 54 189 139c0 86 -52 131 -213 179c-165 52 -218 96 -218 188c0 105 88 180 214 180c63 0 117 -18 161 -55c45 -36 71 -84 80 -143l-46 -8c-17 99 -93 162 -196 162c-99 0 -167 -55 -167 -136c0 -69 45 -104 188 -146
c181 -56 243 -111 243 -221c0 -111 -93 -183 -236 -183c-163 0 -263 88 -272 240zM383 779l-30 -24l-70 87l-70 -87l-30 24l68 85h64z" />
    <glyph glyph-name="uni0218" unicode="&#x218;" horiz-adv-x="584" 
d="M38 225l46 6c9 -131 88 -202 227 -202c115 0 189 54 189 139c0 86 -52 131 -213 179c-165 52 -218 96 -218 188c0 105 88 180 214 180c63 0 117 -18 161 -55c45 -36 71 -84 80 -143l-46 -8c-17 99 -93 162 -196 162c-99 0 -167 -55 -167 -136c0 -69 45 -104 188 -146
c181 -56 243 -111 243 -221c0 -111 -93 -183 -236 -183c-163 0 -263 88 -272 240zM274 -200v27c21 4 29 15 29 39h-31v71h76v-62c0 -45 -25 -72 -74 -75z" />
    <glyph glyph-name="uni1E62" unicode="&#x1e62;" horiz-adv-x="584" 
d="M38 225l46 6c9 -131 88 -202 227 -202c115 0 189 54 189 139c0 86 -52 131 -213 179c-165 52 -218 96 -218 188c0 105 88 180 214 180c63 0 117 -18 161 -55c45 -36 71 -84 80 -143l-46 -8c-17 99 -93 162 -196 162c-99 0 -167 -55 -167 -136c0 -69 45 -104 188 -146
c181 -56 243 -111 243 -221c0 -111 -93 -183 -236 -183c-163 0 -263 88 -272 240zM272 -139v75h76v-75h-76z" />
    <glyph glyph-name="uni018F" unicode="&#x18f;" horiz-adv-x="674" 
d="M48 347v17h531c-2 189 -96 307 -243 307c-108 0 -189 -65 -228 -182l-43 14c43 133 143 212 271 212c177 0 290 -142 290 -365c0 -222 -114 -365 -290 -365c-174 0 -288 140 -288 362zM579 323h-483c2 -179 97 -294 240 -294s235 110 243 294z" />
    <glyph glyph-name="T" unicode="T" horiz-adv-x="566" 
d="M260 0v656h-225v44h496v-44h-225v-656h-46z" />
    <glyph glyph-name="_123" horiz-adv-x="566" 
d="M260 0v656h-225v44h496v-44h-225v-656h-46z" />
    <glyph glyph-name="Tbar" unicode="&#x166;" horiz-adv-x="566" 
d="M260 0v656h-225v44h496v-44h-225v-656h-46zM114 332v40h337v-40h-337z" />
    <glyph glyph-name="_125" horiz-adv-x="566" 
d="M260 0v656h-225v44h496v-44h-225v-656h-46zM114 332v40h337v-40h-337z" />
    <glyph glyph-name="Tcaron" unicode="&#x164;" horiz-adv-x="566" 
d="M260 0v656h-225v44h496v-44h-225v-656h-46zM353 859l30 -24l-68 -85h-64l-68 85l30 24l70 -87z" />
    <glyph glyph-name="_127" horiz-adv-x="566" 
d="M260 0v656h-225v44h496v-44h-225v-656h-46zM353 859l30 -24l-68 -85h-64l-68 85l30 24l70 -87z" />
    <glyph glyph-name="uni0162" unicode="&#x162;" horiz-adv-x="566" 
d="M260 0v656h-225v44h496v-44h-225v-656h-46zM396 -121c0 -49 -40 -85 -93 -85c-37 0 -68 14 -93 41l24 25c21 -23 41 -33 69 -33c35 0 59 23 59 52s-23 50 -56 50c-25 0 -45 -10 -62 -30l-28 13l58 106l28 -12l-35 -60c13 7 27 11 44 11c49 0 85 -33 85 -78z" />
    <glyph glyph-name="_129" horiz-adv-x="566" 
d="M260 0v656h-225v44h496v-44h-225v-656h-46zM396 -121c0 -49 -40 -85 -93 -85c-37 0 -68 14 -93 41l24 25c21 -23 41 -33 69 -33c35 0 59 23 59 52s-23 50 -56 50c-25 0 -45 -10 -62 -30l-28 13l58 106l28 -12l-35 -60c13 7 27 11 44 11c49 0 85 -33 85 -78z" />
    <glyph glyph-name="uni021A" unicode="&#x21a;" horiz-adv-x="566" 
d="M260 0v656h-225v44h496v-44h-225v-656h-46zM247 -185v27c21 4 29 15 29 39h-31v71h76v-62c0 -45 -25 -72 -74 -75z" />
    <glyph glyph-name="_131" horiz-adv-x="566" 
d="M260 0v656h-225v44h496v-44h-225v-656h-46zM247 -185v27c21 4 29 15 29 39h-31v71h76v-62c0 -45 -25 -72 -74 -75z" />
    <glyph glyph-name="uni1E6C" unicode="&#x1e6c;" horiz-adv-x="566" 
d="M260 0v656h-225v44h496v-44h-225v-656h-46zM245 -124v75h76v-75h-76z" />
    <glyph glyph-name="_133" horiz-adv-x="566" 
d="M260 0v656h-225v44h496v-44h-225v-656h-46zM245 -124v75h76v-75h-76z" />
    <glyph glyph-name="U" unicode="U" horiz-adv-x="662" 
d="M89 229v471h47v-468c0 -136 63 -203 195 -203s195 66 195 202v469h47v-471c0 -161 -82 -244 -242 -244s-242 83 -242 244z" />
    <glyph glyph-name="Uacute" unicode="&#xda;" horiz-adv-x="662" 
d="M89 229v471h47v-468c0 -136 63 -203 195 -203s195 66 195 202v469h47v-471c0 -161 -82 -244 -242 -244s-242 83 -242 244zM300 760l66 106h70l-92 -106h-44z" />
    <glyph glyph-name="Ubreve" unicode="&#x16c;" horiz-adv-x="662" 
d="M89 229v471h47v-468c0 -136 63 -203 195 -203s195 66 195 202v469h47v-471c0 -161 -82 -244 -242 -244s-242 83 -242 244zM224 853h30c7 -37 33 -60 77 -60s70 23 77 60h30c-3 -63 -43 -103 -107 -103s-104 40 -107 103z" />
    <glyph glyph-name="uni01D3" unicode="&#x1d3;" horiz-adv-x="662" 
d="M89 229v471h47v-468c0 -136 63 -203 195 -203s195 66 195 202v469h47v-471c0 -161 -82 -244 -242 -244s-242 83 -242 244zM401 859l30 -24l-68 -85h-64l-68 85l30 24l70 -87z" />
    <glyph glyph-name="Ucircumflex" unicode="&#xdb;" horiz-adv-x="662" 
d="M89 229v471h47v-468c0 -136 63 -203 195 -203s195 66 195 202v469h47v-471c0 -161 -82 -244 -242 -244s-242 83 -242 244zM431 764l-30 -24l-70 87l-70 -87l-30 24l68 85h64z" />
    <glyph glyph-name="Udieresis" unicode="&#xdc;" horiz-adv-x="662" 
d="M89 229v471h47v-468c0 -136 63 -203 195 -203s195 66 195 202v469h47v-471c0 -161 -82 -244 -242 -244s-242 83 -242 244zM210 750v75h76v-75h-76zM376 750v75h76v-75h-76z" />
    <glyph glyph-name="uni01D7" unicode="&#x1d7;" horiz-adv-x="662" 
d="M89 229v471h47v-468c0 -136 63 -203 195 -203s195 66 195 202v469h47v-471c0 -161 -82 -244 -242 -244s-242 83 -242 244zM210 750v75h76v-75h-76zM376 750v75h76v-75h-76zM300 865l66 106h70l-92 -106h-44z" />
    <glyph glyph-name="uni01D9" unicode="&#x1d9;" horiz-adv-x="662" 
d="M89 229v471h47v-468c0 -136 63 -203 195 -203s195 66 195 202v469h47v-471c0 -161 -82 -244 -242 -244s-242 83 -242 244zM210 750v75h76v-75h-76zM376 750v75h76v-75h-76zM401 964l30 -24l-68 -85h-64l-68 85l30 24l70 -87z" />
    <glyph glyph-name="uni01DB" unicode="&#x1db;" horiz-adv-x="662" 
d="M89 229v471h47v-468c0 -136 63 -203 195 -203s195 66 195 202v469h47v-471c0 -161 -82 -244 -242 -244s-242 83 -242 244zM210 750v75h76v-75h-76zM376 750v75h76v-75h-76zM318 865l-92 106h71l65 -106h-44z" />
    <glyph glyph-name="uni01D5" unicode="&#x1d5;" horiz-adv-x="662" 
d="M89 229v471h47v-468c0 -136 63 -203 195 -203s195 66 195 202v469h47v-471c0 -161 -82 -244 -242 -244s-242 83 -242 244zM210 750v75h76v-75h-76zM376 750v75h76v-75h-76zM210 865v37h242v-37h-242z" />
    <glyph glyph-name="uni1EE4" unicode="&#x1ee4;" horiz-adv-x="662" 
d="M89 229v471h47v-468c0 -136 63 -203 195 -203s195 66 195 202v469h47v-471c0 -161 -82 -244 -242 -244s-242 83 -242 244zM293 -139v75h76v-75h-76z" />
    <glyph glyph-name="Ugrave" unicode="&#xd9;" horiz-adv-x="662" 
d="M89 229v471h47v-468c0 -136 63 -203 195 -203s195 66 195 202v469h47v-471c0 -161 -82 -244 -242 -244s-242 83 -242 244zM318 760l-92 106h71l65 -106h-44z" />
    <glyph glyph-name="Uhungarumlaut" unicode="&#x170;" horiz-adv-x="662" 
d="M89 229v471h47v-468c0 -136 63 -203 195 -203s195 66 195 202v469h47v-471c0 -161 -82 -244 -242 -244s-242 83 -242 244zM231 760l66 106h70l-92 -106h-44zM354 760l66 106h70l-92 -106h-44z" />
    <glyph glyph-name="Umacron" unicode="&#x16a;" horiz-adv-x="662" 
d="M89 229v471h47v-468c0 -136 63 -203 195 -203s195 66 195 202v469h47v-471c0 -161 -82 -244 -242 -244s-242 83 -242 244zM210 760v37h242v-37h-242z" />
    <glyph glyph-name="Uogonek" unicode="&#x172;" horiz-adv-x="662" 
d="M89 229v471h47v-468c0 -136 63 -203 195 -203s195 66 195 202v469h47v-471c0 -161 -82 -244 -242 -244s-242 83 -242 244zM309 -113c0 43 40 91 101 124l24 -11c-57 -32 -85 -67 -85 -105c0 -25 14 -38 42 -38c19 0 38 7 59 20l17 -35c-24 -16 -51 -24 -81 -24
c-49 0 -77 24 -77 69z" />
    <glyph glyph-name="Uring" unicode="&#x16e;" horiz-adv-x="662" 
d="M89 229v471h47v-468c0 -136 63 -203 195 -203s195 66 195 202v469h47v-471c0 -161 -82 -244 -242 -244s-242 83 -242 244zM223 773c0 59 45 103 108 103s108 -44 108 -103c0 -60 -45 -103 -108 -103s-108 43 -108 103zM404 773c0 43 -32 73 -73 73c-43 0 -73 -30 -73 -73
c0 -41 30 -73 73 -73c41 0 73 32 73 73z" />
    <glyph glyph-name="Utilde" unicode="&#x168;" horiz-adv-x="662" 
d="M89 229v471h47v-468c0 -136 63 -203 195 -203s195 66 195 202v469h47v-471c0 -161 -82 -244 -242 -244s-242 83 -242 244zM324 778c-25 13 -37 20 -53 20c-20 0 -32 -13 -36 -38h-29c3 47 28 75 68 75c21 0 36 -7 65 -23c21 -13 39 -19 52 -19c21 0 34 12 37 37h28
c-3 -47 -28 -75 -67 -75c-23 0 -40 8 -65 23z" />
    <glyph glyph-name="V" unicode="V" horiz-adv-x="574" 
d="M262 0l-257 700h49l232 -639h2l232 639h49l-257 -700h-50z" />
    <glyph glyph-name="W" unicode="W" horiz-adv-x="826" 
d="M157 0l-137 700h48l121 -625h2l200 625h44l200 -625h2l121 625h48l-138 -700h-54l-200 623h-2l-200 -623h-55z" />
    <glyph glyph-name="Wacute" unicode="&#x1e82;" horiz-adv-x="826" 
d="M157 0l-137 700h48l121 -625h2l200 625h44l200 -625h2l121 625h48l-138 -700h-54l-200 623h-2l-200 -623h-55zM382 760l66 106h70l-92 -106h-44z" />
    <glyph glyph-name="Wcircumflex" unicode="&#x174;" horiz-adv-x="826" 
d="M157 0l-137 700h48l121 -625h2l200 625h44l200 -625h2l121 625h48l-138 -700h-54l-200 623h-2l-200 -623h-55zM513 764l-30 -24l-70 87l-70 -87l-30 24l68 85h64z" />
    <glyph glyph-name="Wdieresis" unicode="&#x1e84;" horiz-adv-x="826" 
d="M157 0l-137 700h48l121 -625h2l200 625h44l200 -625h2l121 625h48l-138 -700h-54l-200 623h-2l-200 -623h-55zM292 750v75h76v-75h-76zM458 750v75h76v-75h-76z" />
    <glyph glyph-name="Wgrave" unicode="&#x1e80;" horiz-adv-x="826" 
d="M157 0l-137 700h48l121 -625h2l200 625h44l200 -625h2l121 625h48l-138 -700h-54l-200 623h-2l-200 -623h-55zM400 760l-92 106h71l65 -106h-44z" />
    <glyph glyph-name="X" unicode="X" horiz-adv-x="526" 
d="M10 0l224 355l-218 345h55l192 -309h2l191 309h55l-218 -345l223 -355h-54l-197 319h-2l-198 -319h-55z" />
    <glyph glyph-name="Y" unicode="Y" horiz-adv-x="549" 
d="M252 0v288l-252 412h54l220 -366h2l220 366h53l-251 -412v-288h-46z" />
    <glyph glyph-name="Yacute" unicode="&#xdd;" horiz-adv-x="549" 
d="M252 0v288l-252 412h54l220 -366h2l220 366h53l-251 -412v-288h-46zM244 760l66 106h70l-92 -106h-44z" />
    <glyph glyph-name="Ycircumflex" unicode="&#x176;" horiz-adv-x="549" 
d="M252 0v288l-252 412h54l220 -366h2l220 366h53l-251 -412v-288h-46zM375 764l-30 -24l-70 87l-70 -87l-30 24l68 85h64z" />
    <glyph glyph-name="Ydieresis" unicode="&#x178;" horiz-adv-x="549" 
d="M252 0v288l-252 412h54l220 -366h2l220 366h53l-251 -412v-288h-46zM154 750v75h76v-75h-76zM320 750v75h76v-75h-76z" />
    <glyph glyph-name="uni1EF4" unicode="&#x1ef4;" horiz-adv-x="549" 
d="M252 0v288l-252 412h54l220 -366h2l220 366h53l-251 -412v-288h-46zM237 -124v75h76v-75h-76z" />
    <glyph glyph-name="Ygrave" unicode="&#x1ef2;" horiz-adv-x="549" 
d="M252 0v288l-252 412h54l220 -366h2l220 366h53l-251 -412v-288h-46zM262 760l-92 106h71l65 -106h-44z" />
    <glyph glyph-name="uni1EF8" unicode="&#x1ef8;" horiz-adv-x="549" 
d="M252 0v288l-252 412h54l220 -366h2l220 366h53l-251 -412v-288h-46zM268 778c-25 13 -37 20 -53 20c-20 0 -32 -13 -36 -38h-29c3 47 28 75 68 75c21 0 36 -7 65 -23c21 -13 39 -19 52 -19c21 0 34 12 37 37h28c-3 -47 -28 -75 -67 -75c-23 0 -40 8 -65 23z" />
    <glyph glyph-name="Z" unicode="Z" horiz-adv-x="618" 
d="M48 0v39l463 615v2h-437v44h496v-39l-463 -615v-2h445v-44h-504z" />
    <glyph glyph-name="Zacute" unicode="&#x179;" horiz-adv-x="618" 
d="M48 0v39l463 615v2h-437v44h496v-39l-463 -615v-2h445v-44h-504zM291 760l66 106h70l-92 -106h-44z" />
    <glyph glyph-name="Zcaron" unicode="&#x17d;" horiz-adv-x="618" 
d="M48 0v39l463 615v2h-437v44h496v-39l-463 -615v-2h445v-44h-504zM392 859l30 -24l-68 -85h-64l-68 85l30 24l70 -87z" />
    <glyph glyph-name="Zdotaccent" unicode="&#x17b;" horiz-adv-x="618" 
d="M48 0v39l463 615v2h-437v44h496v-39l-463 -615v-2h445v-44h-504zM284 760v75h76v-75h-76z" />
    <glyph glyph-name="uni1E92" unicode="&#x1e92;" horiz-adv-x="618" 
d="M48 0v39l463 615v2h-437v44h496v-39l-463 -615v-2h445v-44h-504zM277 -124v75h76v-75h-76z" />
    <glyph glyph-name="a" unicode="a" horiz-adv-x="509" 
d="M54 130c0 88 53 134 193 169c109 27 146 54 146 103c0 64 -48 102 -131 102c-87 0 -148 -51 -160 -135l-44 8c13 103 94 168 205 168c109 0 177 -58 177 -153v-392h-42v78h-2c-27 -55 -99 -93 -175 -93c-104 0 -167 54 -167 145zM396 170v162h-2
c-15 -31 -51 -50 -134 -71c-119 -31 -162 -65 -162 -129c0 -67 46 -106 126 -106c97 0 172 63 172 144z" />
    <glyph glyph-name="aacute" unicode="&#xe1;" horiz-adv-x="509" 
d="M54 130c0 88 53 134 193 169c109 27 146 54 146 103c0 64 -48 102 -131 102c-87 0 -148 -51 -160 -135l-44 8c13 103 94 168 205 168c109 0 177 -58 177 -153v-392h-42v78h-2c-27 -55 -99 -93 -175 -93c-104 0 -167 54 -167 145zM396 170v162h-2
c-15 -31 -51 -50 -134 -71c-119 -31 -162 -65 -162 -129c0 -67 46 -106 126 -106c97 0 172 63 172 144zM232 605l66 106h70l-92 -106h-44z" />
    <glyph glyph-name="abreve" unicode="&#x103;" horiz-adv-x="509" 
d="M54 130c0 88 53 134 193 169c109 27 146 54 146 103c0 64 -48 102 -131 102c-87 0 -148 -51 -160 -135l-44 8c13 103 94 168 205 168c109 0 177 -58 177 -153v-392h-42v78h-2c-27 -55 -99 -93 -175 -93c-104 0 -167 54 -167 145zM396 170v162h-2
c-15 -31 -51 -50 -134 -71c-119 -31 -162 -65 -162 -129c0 -67 46 -106 126 -106c97 0 172 63 172 144zM156 698h30c7 -37 33 -60 77 -60s70 23 77 60h30c-3 -63 -43 -103 -107 -103s-104 40 -107 103z" />
    <glyph glyph-name="uni01CE" unicode="&#x1ce;" horiz-adv-x="509" 
d="M54 130c0 88 53 134 193 169c109 27 146 54 146 103c0 64 -48 102 -131 102c-87 0 -148 -51 -160 -135l-44 8c13 103 94 168 205 168c109 0 177 -58 177 -153v-392h-42v78h-2c-27 -55 -99 -93 -175 -93c-104 0 -167 54 -167 145zM396 170v162h-2
c-15 -31 -51 -50 -134 -71c-119 -31 -162 -65 -162 -129c0 -67 46 -106 126 -106c97 0 172 63 172 144zM333 704l30 -24l-68 -85h-64l-68 85l30 24l70 -87z" />
    <glyph glyph-name="acircumflex" unicode="&#xe2;" horiz-adv-x="509" 
d="M54 130c0 88 53 134 193 169c109 27 146 54 146 103c0 64 -48 102 -131 102c-87 0 -148 -51 -160 -135l-44 8c13 103 94 168 205 168c109 0 177 -58 177 -153v-392h-42v78h-2c-27 -55 -99 -93 -175 -93c-104 0 -167 54 -167 145zM396 170v162h-2
c-15 -31 -51 -50 -134 -71c-119 -31 -162 -65 -162 -129c0 -67 46 -106 126 -106c97 0 172 63 172 144zM363 609l-30 -24l-70 87l-70 -87l-30 24l68 85h64z" />
    <glyph glyph-name="uni1EAD" unicode="&#x1ead;" horiz-adv-x="509" 
d="M54 130c0 88 53 134 193 169c109 27 146 54 146 103c0 64 -48 102 -131 102c-87 0 -148 -51 -160 -135l-44 8c13 103 94 168 205 168c109 0 177 -58 177 -153v-392h-42v78h-2c-27 -55 -99 -93 -175 -93c-104 0 -167 54 -167 145zM396 170v162h-2
c-15 -31 -51 -50 -134 -71c-119 -31 -162 -65 -162 -129c0 -67 46 -106 126 -106c97 0 172 63 172 144zM363 609l-30 -24l-70 87l-70 -87l-30 24l68 85h64zM218 -139v75h76v-75h-76z" />
    <glyph glyph-name="adieresis" unicode="&#xe4;" horiz-adv-x="509" 
d="M54 130c0 88 53 134 193 169c109 27 146 54 146 103c0 64 -48 102 -131 102c-87 0 -148 -51 -160 -135l-44 8c13 103 94 168 205 168c109 0 177 -58 177 -153v-392h-42v78h-2c-27 -55 -99 -93 -175 -93c-104 0 -167 54 -167 145zM396 170v162h-2
c-15 -31 -51 -50 -134 -71c-119 -31 -162 -65 -162 -129c0 -67 46 -106 126 -106c97 0 172 63 172 144zM142 595v75h76v-75h-76zM308 595v75h76v-75h-76z" />
    <glyph glyph-name="uni01DF" unicode="&#x1df;" horiz-adv-x="509" 
d="M54 130c0 88 53 134 193 169c109 27 146 54 146 103c0 64 -48 102 -131 102c-87 0 -148 -51 -160 -135l-44 8c13 103 94 168 205 168c109 0 177 -58 177 -153v-392h-42v78h-2c-27 -55 -99 -93 -175 -93c-104 0 -167 54 -167 145zM396 170v162h-2
c-15 -31 -51 -50 -134 -71c-119 -31 -162 -65 -162 -129c0 -67 46 -106 126 -106c97 0 172 63 172 144zM142 595v75h76v-75h-76zM308 595v75h76v-75h-76zM142 710v37h242v-37h-242z" />
    <glyph glyph-name="uni1EA1" unicode="&#x1ea1;" horiz-adv-x="509" 
d="M54 130c0 88 53 134 193 169c109 27 146 54 146 103c0 64 -48 102 -131 102c-87 0 -148 -51 -160 -135l-44 8c13 103 94 168 205 168c109 0 177 -58 177 -153v-392h-42v78h-2c-27 -55 -99 -93 -175 -93c-104 0 -167 54 -167 145zM396 170v162h-2
c-15 -31 -51 -50 -134 -71c-119 -31 -162 -65 -162 -129c0 -67 46 -106 126 -106c97 0 172 63 172 144zM218 -139v75h76v-75h-76z" />
    <glyph glyph-name="agrave" unicode="&#xe0;" horiz-adv-x="509" 
d="M54 130c0 88 53 134 193 169c109 27 146 54 146 103c0 64 -48 102 -131 102c-87 0 -148 -51 -160 -135l-44 8c13 103 94 168 205 168c109 0 177 -58 177 -153v-392h-42v78h-2c-27 -55 -99 -93 -175 -93c-104 0 -167 54 -167 145zM396 170v162h-2
c-15 -31 -51 -50 -134 -71c-119 -31 -162 -65 -162 -129c0 -67 46 -106 126 -106c97 0 172 63 172 144zM250 605l-92 106h71l65 -106h-44z" />
    <glyph glyph-name="amacron" unicode="&#x101;" horiz-adv-x="509" 
d="M54 130c0 88 53 134 193 169c109 27 146 54 146 103c0 64 -48 102 -131 102c-87 0 -148 -51 -160 -135l-44 8c13 103 94 168 205 168c109 0 177 -58 177 -153v-392h-42v78h-2c-27 -55 -99 -93 -175 -93c-104 0 -167 54 -167 145zM396 170v162h-2
c-15 -31 -51 -50 -134 -71c-119 -31 -162 -65 -162 -129c0 -67 46 -106 126 -106c97 0 172 63 172 144zM142 605v37h242v-37h-242z" />
    <glyph glyph-name="aogonek" unicode="&#x105;" horiz-adv-x="509" 
d="M54 130c0 88 53 134 193 169c109 27 146 54 146 103c0 64 -48 102 -131 102c-87 0 -148 -51 -160 -135l-44 8c13 103 94 168 205 168c109 0 177 -58 177 -153v-392h-42v78h-2c-27 -55 -99 -93 -175 -93c-104 0 -167 54 -167 145zM396 170v162h-2
c-15 -31 -51 -50 -134 -71c-119 -31 -162 -65 -162 -129c0 -67 46 -106 126 -106c97 0 172 63 172 144zM312 -113c0 43 40 91 101 124l24 -11c-57 -32 -85 -67 -85 -105c0 -25 14 -38 42 -38c19 0 38 7 59 20l17 -35c-24 -16 -51 -24 -81 -24c-49 0 -77 24 -77 69z" />
    <glyph glyph-name="aring" unicode="&#xe5;" horiz-adv-x="509" 
d="M159 672c0 55 43 96 100 96c59 0 101 -41 101 -96c0 -56 -42 -96 -101 -96s-100 40 -100 96zM327 672c0 39 -29 68 -68 68s-67 -29 -67 -68s28 -68 67 -68s68 29 68 68zM54 130c0 88 53 134 193 169c109 27 146 54 146 103c0 64 -48 102 -131 102
c-87 0 -148 -51 -160 -135l-44 8c13 103 94 168 205 168c109 0 177 -58 177 -153v-392h-42v78h-2c-27 -55 -99 -93 -175 -93c-104 0 -167 54 -167 145zM396 170v162h-2c-15 -31 -51 -50 -134 -71c-119 -31 -162 -65 -162 -129c0 -67 46 -106 126 -106c97 0 172 63 172 144z
" />
    <glyph glyph-name="aringacute" unicode="&#x1fb;" horiz-adv-x="515" 
d="M159 676c0 45 28 82 72 93l59 94h70l-80 -93c47 -8 80 -46 80 -94c0 -56 -42 -96 -101 -96s-100 40 -100 96zM192 676c0 -39 28 -68 67 -68s68 29 68 68s-29 68 -68 68s-67 -29 -67 -68zM440 392v-392h-42v78h-2c-27 -55 -99 -93 -175 -93c-104 0 -167 54 -167 145
c0 88 53 134 193 169c109 27 146 54 146 103c0 64 -48 102 -131 102c-87 0 -148 -51 -160 -135l-44 8c13 103 94 168 205 168c109 0 177 -58 177 -153zM396 170v162h-2c-15 -31 -51 -50 -134 -71c-119 -31 -162 -65 -162 -129c0 -67 46 -106 126 -106c97 0 172 63 172 144z
" />
    <glyph glyph-name="atilde" unicode="&#xe3;" horiz-adv-x="509" 
d="M54 130c0 88 53 134 193 169c109 27 146 54 146 103c0 64 -48 102 -131 102c-87 0 -148 -51 -160 -135l-44 8c13 103 94 168 205 168c109 0 177 -58 177 -153v-392h-42v78h-2c-27 -55 -99 -93 -175 -93c-104 0 -167 54 -167 145zM396 170v162h-2
c-15 -31 -51 -50 -134 -71c-119 -31 -162 -65 -162 -129c0 -67 46 -106 126 -106c97 0 172 63 172 144zM256 623c-25 13 -37 20 -53 20c-20 0 -32 -13 -36 -38h-29c3 47 28 75 68 75c21 0 36 -7 65 -23c21 -13 39 -19 52 -19c21 0 34 12 37 37h28c-3 -47 -28 -75 -67 -75
c-23 0 -40 8 -65 23z" />
    <glyph glyph-name="ae" unicode="&#xe6;" horiz-adv-x="909" 
d="M855 274v-18h-415c1 -143 74 -232 189 -232c85 0 141 37 178 124l35 -21c-39 -93 -113 -142 -212 -142c-93 0 -168 48 -205 136c-23 -81 -99 -136 -203 -136s-166 54 -166 145c0 36 9 65 27 87c37 44 84 60 168 83c33 9 59 16 78 23c37 15 66 39 66 79
c0 65 -48 104 -132 104c-88 0 -151 -51 -164 -136l-41 8c15 103 95 167 204 167c97 0 162 -44 173 -121c35 76 107 121 192 121c134 0 228 -108 228 -271zM441 292h371c-2 129 -79 214 -185 214c-107 0 -182 -85 -186 -214zM397 169v165h-2c-17 -36 -58 -51 -135 -72
c-36 -10 -65 -19 -86 -28c-43 -17 -77 -49 -77 -102c0 -69 46 -108 127 -108c99 0 173 65 173 145z" />
    <glyph glyph-name="aeacute" unicode="&#x1fd;" horiz-adv-x="909" 
d="M855 274v-18h-415c1 -143 74 -232 189 -232c85 0 141 37 178 124l35 -21c-39 -93 -113 -142 -212 -142c-93 0 -168 48 -205 136c-23 -81 -99 -136 -203 -136s-166 54 -166 145c0 36 9 65 27 87c37 44 84 60 168 83c33 9 59 16 78 23c37 15 66 39 66 79
c0 65 -48 104 -132 104c-88 0 -151 -51 -164 -136l-41 8c15 103 95 167 204 167c97 0 162 -44 173 -121c35 76 107 121 192 121c134 0 228 -108 228 -271zM441 292h371c-2 129 -79 214 -185 214c-107 0 -182 -85 -186 -214zM397 169v165h-2c-17 -36 -58 -51 -135 -72
c-36 -10 -65 -19 -86 -28c-43 -17 -77 -49 -77 -102c0 -69 46 -108 127 -108c99 0 173 65 173 145zM424 590l66 106h70l-92 -106h-44z" />
    <glyph glyph-name="b" unicode="b" horiz-adv-x="581" 
d="M119 74h-2v-74h-43v730h44v-274h2c35 56 99 89 174 89c135 0 233 -116 233 -279c0 -165 -96 -281 -234 -281c-75 0 -139 33 -174 89zM483 265c0 140 -78 239 -189 239c-97 0 -176 -73 -176 -160v-156c0 -88 77 -162 172 -162c115 0 193 97 193 239z" />
    <glyph glyph-name="uni1E05" unicode="&#x1e05;" horiz-adv-x="581" 
d="M119 74h-2v-74h-43v730h44v-274h2c35 56 99 89 174 89c135 0 233 -116 233 -279c0 -165 -96 -281 -234 -281c-75 0 -139 33 -174 89zM483 265c0 140 -78 239 -189 239c-97 0 -176 -73 -176 -160v-156c0 -88 77 -162 172 -162c115 0 193 97 193 239zM258 -139v75h76v-75
h-76z" />
    <glyph glyph-name="c" unicode="c" horiz-adv-x="562" 
d="M54 265c0 162 100 280 239 280c115 0 200 -73 220 -188l-42 -8c-17 99 -86 155 -178 155c-115 0 -195 -100 -195 -239s80 -239 195 -239c92 0 161 56 178 155l42 -8c-20 -115 -105 -188 -220 -188c-139 0 -239 118 -239 280z" />
    <glyph glyph-name="cacute" unicode="&#x107;" horiz-adv-x="562" 
d="M54 265c0 162 100 280 239 280c115 0 200 -73 220 -188l-42 -8c-17 99 -86 155 -178 155c-115 0 -195 -100 -195 -239s80 -239 195 -239c92 0 161 56 178 155l42 -8c-20 -115 -105 -188 -220 -188c-139 0 -239 118 -239 280zM262 605l66 106h70l-92 -106h-44z" />
    <glyph glyph-name="ccaron" unicode="&#x10d;" horiz-adv-x="562" 
d="M54 265c0 162 100 280 239 280c115 0 200 -73 220 -188l-42 -8c-17 99 -86 155 -178 155c-115 0 -195 -100 -195 -239s80 -239 195 -239c92 0 161 56 178 155l42 -8c-20 -115 -105 -188 -220 -188c-139 0 -239 118 -239 280zM363 704l30 -24l-68 -85h-64l-68 85l30 24
l70 -87z" />
    <glyph glyph-name="ccedilla" unicode="&#xe7;" horiz-adv-x="562" 
d="M54 265c0 162 100 280 239 280c115 0 200 -73 220 -188l-42 -8c-17 99 -86 155 -178 155c-115 0 -195 -100 -195 -239s80 -239 195 -239c92 0 161 56 178 155l42 -8c-20 -115 -105 -188 -220 -188c-139 0 -239 118 -239 280zM406 -135c0 -49 -40 -85 -93 -85
c-37 0 -68 14 -93 41l24 25c21 -23 41 -33 69 -33c35 0 59 23 59 52s-23 50 -56 50c-25 0 -45 -10 -62 -30l-28 13l58 106l28 -12l-35 -60c13 7 27 11 44 11c49 0 85 -33 85 -78z" />
    <glyph glyph-name="ccircumflex" unicode="&#x109;" horiz-adv-x="562" 
d="M54 265c0 162 100 280 239 280c115 0 200 -73 220 -188l-42 -8c-17 99 -86 155 -178 155c-115 0 -195 -100 -195 -239s80 -239 195 -239c92 0 161 56 178 155l42 -8c-20 -115 -105 -188 -220 -188c-139 0 -239 118 -239 280zM393 609l-30 -24l-70 87l-70 -87l-30 24
l68 85h64z" />
    <glyph glyph-name="cdotaccent" unicode="&#x10b;" horiz-adv-x="562" 
d="M54 265c0 162 100 280 239 280c115 0 200 -73 220 -188l-42 -8c-17 99 -86 155 -178 155c-115 0 -195 -100 -195 -239s80 -239 195 -239c92 0 161 56 178 155l42 -8c-20 -115 -105 -188 -220 -188c-139 0 -239 118 -239 280zM255 605v75h76v-75h-76z" />
    <glyph glyph-name="d" unicode="d" horiz-adv-x="581" 
d="M54 266c0 163 98 279 233 279c75 0 139 -33 174 -89h2v274h44v-730h-43v74h-2c-35 -56 -99 -89 -174 -89c-138 0 -234 116 -234 281zM463 188v156c0 87 -79 160 -176 160c-111 0 -189 -99 -189 -239c0 -142 78 -239 193 -239c95 0 172 74 172 162z" />
    <glyph glyph-name="eth" unicode="&#xf0;" horiz-adv-x="595" 
d="M541 265c0 -165 -99 -280 -243 -280c-143 0 -244 115 -244 280s100 280 241 280c73 0 136 -34 172 -91h2c-21 66 -56 133 -106 201l-147 -50l-10 27l138 48c-27 33 -55 64 -83 93v2h49c27 -28 51 -56 72 -83l142 49l10 -27l-134 -46c94 -130 141 -264 141 -403zM497 265
c0 141 -82 239 -199 239c-119 0 -200 -98 -200 -239s81 -239 200 -239c117 0 199 98 199 239z" />
    <glyph glyph-name="dcaron" unicode="&#x10f;" horiz-adv-x="615" 
d="M54 266c0 163 98 279 233 279c75 0 139 -33 174 -89h2v274h44v-730h-43v74h-2c-35 -56 -99 -89 -174 -89c-138 0 -234 116 -234 281zM463 188v156c0 87 -79 160 -176 160c-111 0 -189 -99 -189 -239c0 -142 78 -239 193 -239c95 0 172 74 172 162zM558 594v27
c21 4 29 15 29 39h-31v71h76v-62c0 -45 -25 -72 -74 -75z" />
    <glyph glyph-name="dcroat" unicode="&#x111;" horiz-adv-x="581" 
d="M54 266c0 163 98 279 233 279c75 0 139 -33 174 -89h2v274h44v-730h-43v74h-2c-35 -56 -99 -89 -174 -89c-138 0 -234 116 -234 281zM463 188v156c0 87 -79 160 -176 160c-111 0 -189 -99 -189 -239c0 -142 78 -239 193 -239c95 0 172 74 172 162zM325 626v36h250v-36
h-250z" />
    <glyph glyph-name="uni1E0D" unicode="&#x1e0d;" horiz-adv-x="581" 
d="M54 266c0 163 98 279 233 279c75 0 139 -33 174 -89h2v274h44v-730h-43v74h-2c-35 -56 -99 -89 -174 -89c-138 0 -234 116 -234 281zM463 188v156c0 87 -79 160 -176 160c-111 0 -189 -99 -189 -239c0 -142 78 -239 193 -239c95 0 172 74 172 162zM250 -132v75h76v-75
h-76z" />
    <glyph glyph-name="e" unicode="e" horiz-adv-x="577" 
d="M54 265c0 162 95 280 236 280c140 0 233 -106 233 -271v-19h-424c1 -69 18 -124 52 -166c35 -42 82 -63 141 -63c85 0 142 38 181 122l37 -20c-39 -93 -114 -143 -217 -143c-144 0 -239 110 -239 280zM100 292h378c-2 126 -77 212 -188 212c-109 0 -186 -93 -190 -212z
" />
    <glyph glyph-name="eacute" unicode="&#xe9;" horiz-adv-x="577" 
d="M54 265c0 162 95 280 236 280c140 0 233 -106 233 -271v-19h-424c1 -69 18 -124 52 -166c35 -42 82 -63 141 -63c85 0 142 38 181 122l37 -20c-39 -93 -114 -143 -217 -143c-144 0 -239 110 -239 280zM100 292h378c-2 126 -77 212 -188 212c-109 0 -186 -93 -190 -212z
M259 605l66 106h70l-92 -106h-44z" />
    <glyph glyph-name="ebreve" unicode="&#x115;" horiz-adv-x="577" 
d="M54 265c0 162 95 280 236 280c140 0 233 -106 233 -271v-19h-424c1 -69 18 -124 52 -166c35 -42 82 -63 141 -63c85 0 142 38 181 122l37 -20c-39 -93 -114 -143 -217 -143c-144 0 -239 110 -239 280zM100 292h378c-2 126 -77 212 -188 212c-109 0 -186 -93 -190 -212z
M183 698h30c7 -37 33 -60 77 -60s70 23 77 60h30c-3 -63 -43 -103 -107 -103s-104 40 -107 103z" />
    <glyph glyph-name="ecaron" unicode="&#x11b;" horiz-adv-x="577" 
d="M54 265c0 162 95 280 236 280c140 0 233 -106 233 -271v-19h-424c1 -69 18 -124 52 -166c35 -42 82 -63 141 -63c85 0 142 38 181 122l37 -20c-39 -93 -114 -143 -217 -143c-144 0 -239 110 -239 280zM100 292h378c-2 126 -77 212 -188 212c-109 0 -186 -93 -190 -212z
M360 704l30 -24l-68 -85h-64l-68 85l30 24l70 -87z" />
    <glyph glyph-name="uni0229" unicode="&#x229;" horiz-adv-x="577" 
d="M54 265c0 162 95 280 236 280c140 0 233 -106 233 -271v-19h-424c1 -69 18 -124 52 -166c35 -42 82 -63 141 -63c85 0 142 38 181 122l37 -20c-39 -93 -114 -143 -217 -143c-144 0 -239 110 -239 280zM100 292h378c-2 126 -77 212 -188 212c-109 0 -186 -93 -190 -212z
M406 -135c0 -49 -40 -85 -93 -85c-37 0 -68 14 -93 41l24 25c21 -23 41 -33 69 -33c35 0 59 23 59 52s-23 50 -56 50c-25 0 -45 -10 -62 -30l-28 13l58 106l28 -12l-35 -60c13 7 27 11 44 11c49 0 85 -33 85 -78z" />
    <glyph glyph-name="ecircumflex" unicode="&#xea;" horiz-adv-x="577" 
d="M54 265c0 162 95 280 236 280c140 0 233 -106 233 -271v-19h-424c1 -69 18 -124 52 -166c35 -42 82 -63 141 -63c85 0 142 38 181 122l37 -20c-39 -93 -114 -143 -217 -143c-144 0 -239 110 -239 280zM100 292h378c-2 126 -77 212 -188 212c-109 0 -186 -93 -190 -212z
M390 609l-30 -24l-70 87l-70 -87l-30 24l68 85h64z" />
    <glyph glyph-name="uni1EC7" unicode="&#x1ec7;" horiz-adv-x="577" 
d="M54 265c0 162 95 280 236 280c140 0 233 -106 233 -271v-19h-424c1 -69 18 -124 52 -166c35 -42 82 -63 141 -63c85 0 142 38 181 122l37 -20c-39 -93 -114 -143 -217 -143c-144 0 -239 110 -239 280zM100 292h378c-2 126 -77 212 -188 212c-109 0 -186 -93 -190 -212z
M390 609l-30 -24l-70 87l-70 -87l-30 24l68 85h64zM255 -139v75h76v-75h-76z" />
    <glyph glyph-name="edieresis" unicode="&#xeb;" horiz-adv-x="577" 
d="M54 265c0 162 95 280 236 280c140 0 233 -106 233 -271v-19h-424c1 -69 18 -124 52 -166c35 -42 82 -63 141 -63c85 0 142 38 181 122l37 -20c-39 -93 -114 -143 -217 -143c-144 0 -239 110 -239 280zM100 292h378c-2 126 -77 212 -188 212c-109 0 -186 -93 -190 -212z
M169 595v75h76v-75h-76zM335 595v75h76v-75h-76z" />
    <glyph glyph-name="edotaccent" unicode="&#x117;" horiz-adv-x="577" 
d="M54 265c0 162 95 280 236 280c140 0 233 -106 233 -271v-19h-424c1 -69 18 -124 52 -166c35 -42 82 -63 141 -63c85 0 142 38 181 122l37 -20c-39 -93 -114 -143 -217 -143c-144 0 -239 110 -239 280zM100 292h378c-2 126 -77 212 -188 212c-109 0 -186 -93 -190 -212z
M252 605v75h76v-75h-76z" />
    <glyph glyph-name="uni1EB9" unicode="&#x1eb9;" horiz-adv-x="577" 
d="M54 265c0 162 95 280 236 280c140 0 233 -106 233 -271v-19h-424c1 -69 18 -124 52 -166c35 -42 82 -63 141 -63c85 0 142 38 181 122l37 -20c-39 -93 -114 -143 -217 -143c-144 0 -239 110 -239 280zM100 292h378c-2 126 -77 212 -188 212c-109 0 -186 -93 -190 -212z
M255 -139v75h76v-75h-76z" />
    <glyph glyph-name="egrave" unicode="&#xe8;" horiz-adv-x="577" 
d="M54 265c0 162 95 280 236 280c140 0 233 -106 233 -271v-19h-424c1 -69 18 -124 52 -166c35 -42 82 -63 141 -63c85 0 142 38 181 122l37 -20c-39 -93 -114 -143 -217 -143c-144 0 -239 110 -239 280zM100 292h378c-2 126 -77 212 -188 212c-109 0 -186 -93 -190 -212z
M277 605l-92 106h71l65 -106h-44z" />
    <glyph glyph-name="emacron" unicode="&#x113;" horiz-adv-x="577" 
d="M54 265c0 162 95 280 236 280c140 0 233 -106 233 -271v-19h-424c1 -69 18 -124 52 -166c35 -42 82 -63 141 -63c85 0 142 38 181 122l37 -20c-39 -93 -114 -143 -217 -143c-144 0 -239 110 -239 280zM100 292h378c-2 126 -77 212 -188 212c-109 0 -186 -93 -190 -212z
M169 605v37h242v-37h-242z" />
    <glyph glyph-name="eogonek" unicode="&#x119;" horiz-adv-x="577" 
d="M54 265c0 162 95 280 236 280c140 0 233 -106 233 -271v-19h-424c1 -69 18 -124 52 -166c35 -42 82 -63 141 -63c85 0 142 38 181 122l37 -20c-39 -93 -114 -143 -217 -143c-144 0 -239 110 -239 280zM100 292h378c-2 126 -77 212 -188 212c-109 0 -186 -93 -190 -212z
M257 -113c0 43 40 91 101 124l24 -11c-57 -32 -85 -67 -85 -105c0 -25 14 -38 42 -38c19 0 38 7 59 20l17 -35c-24 -16 -51 -24 -81 -24c-49 0 -77 24 -77 69z" />
    <glyph glyph-name="uni0258" unicode="&#x258;" horiz-adv-x="577" 
d="M67 128l37 20c39 -84 96 -122 181 -122c59 0 106 21 140 63c35 42 52 97 53 166h-424v19c0 165 93 271 233 271c141 0 236 -118 236 -280c0 -170 -95 -280 -239 -280c-103 0 -178 50 -217 143zM287 504c-111 0 -186 -86 -188 -212h378c-4 119 -81 212 -190 212z" />
    <glyph glyph-name="uni1EBD" unicode="&#x1ebd;" horiz-adv-x="577" 
d="M54 265c0 162 95 280 236 280c140 0 233 -106 233 -271v-19h-424c1 -69 18 -124 52 -166c35 -42 82 -63 141 -63c85 0 142 38 181 122l37 -20c-39 -93 -114 -143 -217 -143c-144 0 -239 110 -239 280zM100 292h378c-2 126 -77 212 -188 212c-109 0 -186 -93 -190 -212z
M283 623c-25 13 -37 20 -53 20c-20 0 -32 -13 -36 -38h-29c3 47 28 75 68 75c21 0 36 -7 65 -23c21 -13 39 -19 52 -19c21 0 34 12 37 37h28c-3 -47 -28 -75 -67 -75c-23 0 -40 8 -65 23z" />
    <glyph glyph-name="uni0259" unicode="&#x259;" horiz-adv-x="577" 
d="M54 256v19h424c-1 69 -18 124 -53 166c-34 42 -81 63 -140 63c-84 0 -140 -41 -179 -128l-38 19c41 96 116 150 216 150c144 0 239 -110 239 -280c0 -162 -95 -280 -236 -280c-140 0 -233 106 -233 271zM478 238h-379c2 -126 77 -212 188 -212c109 0 187 93 191 212z" />
    <glyph glyph-name="f" unicode="f" horiz-adv-x="305" 
d="M111 0v490h-88v40h88v63c0 64 37 100 104 100h67v-41h-63c-44 0 -64 -20 -64 -65v-57h138v-40h-138v-490h-44z" />
    <glyph glyph-name="g" unicode="g" horiz-adv-x="576" 
d="M97 -96l40 17c29 -81 83 -120 164 -120c101 0 163 70 163 182v94h-2c-35 -59 -98 -91 -178 -91c-133 0 -230 119 -230 280c0 163 98 279 234 279c73 0 138 -33 173 -89h2v74h44v-549c0 -67 -19 -121 -56 -161s-87 -60 -150 -60c-100 0 -176 53 -204 144zM463 188v156
c0 87 -79 160 -175 160c-111 0 -190 -100 -190 -239c0 -138 79 -238 188 -238c99 0 177 72 177 161z" />
    <glyph glyph-name="gbreve" unicode="&#x11f;" horiz-adv-x="576" 
d="M97 -96l40 17c29 -81 83 -120 164 -120c101 0 163 70 163 182v94h-2c-35 -59 -98 -91 -178 -91c-133 0 -230 119 -230 280c0 163 98 279 234 279c73 0 138 -33 173 -89h2v74h44v-549c0 -67 -19 -121 -56 -161s-87 -60 -150 -60c-100 0 -176 53 -204 144zM463 188v156
c0 87 -79 160 -175 160c-111 0 -190 -100 -190 -239c0 -138 79 -238 188 -238c99 0 177 72 177 161zM181 698h30c7 -37 33 -60 77 -60s70 23 77 60h30c-3 -63 -43 -103 -107 -103s-104 40 -107 103z" />
    <glyph glyph-name="gcircumflex" unicode="&#x11d;" horiz-adv-x="576" 
d="M97 -96l40 17c29 -81 83 -120 164 -120c101 0 163 70 163 182v94h-2c-35 -59 -98 -91 -178 -91c-133 0 -230 119 -230 280c0 163 98 279 234 279c73 0 138 -33 173 -89h2v74h44v-549c0 -67 -19 -121 -56 -161s-87 -60 -150 -60c-100 0 -176 53 -204 144zM463 188v156
c0 87 -79 160 -175 160c-111 0 -190 -100 -190 -239c0 -138 79 -238 188 -238c99 0 177 72 177 161zM388 609l-30 -24l-70 87l-70 -87l-30 24l68 85h64z" />
    <glyph glyph-name="uni0123" unicode="&#x123;" horiz-adv-x="576" 
d="M97 -96l40 17c29 -81 83 -120 164 -120c101 0 163 70 163 182v94h-2c-35 -59 -98 -91 -178 -91c-133 0 -230 119 -230 280c0 163 98 279 234 279c73 0 138 -33 173 -89h2v74h44v-549c0 -67 -19 -121 -56 -161s-87 -60 -150 -60c-100 0 -176 53 -204 144zM463 188v156
c0 87 -79 160 -175 160c-111 0 -190 -100 -190 -239c0 -138 79 -238 188 -238c99 0 177 72 177 161zM327 741v-27c-24 -4 -31 -15 -31 -39h33v-71h-81v62c0 45 27 72 79 75z" />
    <glyph glyph-name="gdotaccent" unicode="&#x121;" horiz-adv-x="576" 
d="M97 -96l40 17c29 -81 83 -120 164 -120c101 0 163 70 163 182v94h-2c-35 -59 -98 -91 -178 -91c-133 0 -230 119 -230 280c0 163 98 279 234 279c73 0 138 -33 173 -89h2v74h44v-549c0 -67 -19 -121 -56 -161s-87 -60 -150 -60c-100 0 -176 53 -204 144zM463 188v156
c0 87 -79 160 -175 160c-111 0 -190 -100 -190 -239c0 -138 79 -238 188 -238c99 0 177 72 177 161zM250 605v75h76v-75h-76z" />
    <glyph glyph-name="h" unicode="h" horiz-adv-x="554" 
d="M74 0v730h44v-276h2c32 56 97 91 169 91c59 0 106 -18 142 -53s54 -82 54 -139v-353h-44v342c0 99 -60 162 -155 162c-49 0 -90 -15 -121 -46c-31 -30 -47 -69 -47 -116v-342h-44z" />
    <glyph glyph-name="hbar" unicode="&#x127;" horiz-adv-x="554" 
d="M74 0v730h44v-276h2c32 56 97 91 169 91c59 0 106 -18 142 -53s54 -82 54 -139v-353h-44v342c0 99 -60 162 -155 162c-49 0 -90 -15 -121 -46c-31 -30 -47 -69 -47 -116v-342h-44zM5 626v36h250v-36h-250z" />
    <glyph glyph-name="hcircumflex" unicode="&#x125;" horiz-adv-x="554" 
d="M74 0v730h44v-276h2c32 56 97 91 169 91c59 0 106 -18 142 -53s54 -82 54 -139v-353h-44v342c0 99 -60 162 -155 162c-49 0 -90 -15 -121 -46c-31 -30 -47 -69 -47 -116v-342h-44zM387 764l-30 -24l-70 87l-70 -87l-30 24l68 85h64z" />
    <glyph glyph-name="uni1E25" unicode="&#x1e25;" horiz-adv-x="554" 
d="M74 0v730h44v-276h2c32 56 97 91 169 91c59 0 106 -18 142 -53s54 -82 54 -139v-353h-44v342c0 99 -60 162 -155 162c-49 0 -90 -15 -121 -46c-31 -30 -47 -69 -47 -116v-342h-44zM241 -124v75h76v-75h-76z" />
    <glyph glyph-name="i" unicode="i" horiz-adv-x="192" 
d="M74 0v530h44v-530h-44zM63 625v64h66v-64h-66z" />
    <glyph glyph-name="dotlessi" unicode="&#x131;" horiz-adv-x="192" 
d="M74 0v530h44v-530h-44z" />
    <glyph glyph-name="iacute" unicode="&#xed;" horiz-adv-x="192" 
d="M74 0v530h44v-530h-44zM65 590l66 106h70l-92 -106h-44z" />
    <glyph glyph-name="ibreve" unicode="&#x12d;" horiz-adv-x="192" 
d="M74 0v530h44v-530h-44zM-11 683h30c7 -37 33 -60 77 -60s70 23 77 60h30c-3 -63 -43 -103 -107 -103s-104 40 -107 103z" />
    <glyph glyph-name="uni01D0" unicode="&#x1d0;" horiz-adv-x="192" 
d="M74 0v530h44v-530h-44zM166 689l30 -24l-68 -85h-64l-68 85l30 24l70 -87z" />
    <glyph glyph-name="icircumflex" unicode="&#xee;" horiz-adv-x="192" 
d="M74 0v530h44v-530h-44zM196 594l-30 -24l-70 87l-70 -87l-30 24l68 85h64z" />
    <glyph glyph-name="idieresis" unicode="&#xef;" horiz-adv-x="188" 
d="M-18 580v75h76v-75h-76zM130 580v75h76v-75h-76zM74 0v530h44v-530h-44z" />
    <glyph glyph-name="i.locl" horiz-adv-x="192" 
d="M74 0v530h44v-530h-44zM63 625v64h66v-64h-66z" />
    <glyph glyph-name="uni1ECB" unicode="&#x1ecb;" horiz-adv-x="192" 
d="M74 0v530h44v-530h-44zM63 625v64h66v-64h-66zM56 -124v75h76v-75h-76z" />
    <glyph glyph-name="igrave" unicode="&#xec;" horiz-adv-x="192" 
d="M74 0v530h44v-530h-44zM83 590l-92 106h71l65 -106h-44z" />
    <glyph glyph-name="imacron" unicode="&#x12b;" horiz-adv-x="192" 
d="M74 0v530h44v-530h-44zM-25 590v37h242v-37h-242z" />
    <glyph glyph-name="iogonek" unicode="&#x12f;" horiz-adv-x="192" 
d="M74 0v530h44v-530h-44zM-10 -113c0 43 40 91 101 124l24 -11c-57 -32 -85 -67 -85 -105c0 -25 14 -38 42 -38c19 0 38 7 59 20l17 -35c-24 -16 -51 -24 -81 -24c-49 0 -77 24 -77 69zM63 625v64h66v-64h-66z" />
    <glyph glyph-name="itilde" unicode="&#x129;" horiz-adv-x="192" 
d="M74 0v530h44v-530h-44zM89 608c-25 13 -37 20 -53 20c-20 0 -32 -13 -36 -38h-29c3 47 28 75 68 75c21 0 36 -7 65 -23c21 -13 39 -19 52 -19c21 0 34 12 37 37h28c-3 -47 -28 -75 -67 -75c-23 0 -40 8 -65 23z" />
    <glyph glyph-name="j" unicode="j" horiz-adv-x="203" 
d="M-10 -155v41h39c40 0 56 15 56 54v590h44v-590c0 -68 -30 -95 -98 -95h-41zM74 625v64h66v-64h-66z" />
    <glyph glyph-name="uni0237" unicode="&#x237;" horiz-adv-x="203" 
d="M-10 -155v41h39c40 0 56 15 56 54v590h44v-590c0 -68 -30 -95 -98 -95h-41z" />
    <glyph glyph-name="jcircumflex" unicode="&#x135;" horiz-adv-x="203" 
d="M-10 -155v41h39c40 0 56 15 56 54v590h44v-590c0 -68 -30 -95 -98 -95h-41zM207 594l-30 -24l-70 87l-70 -87l-30 24l68 85h64z" />
    <glyph glyph-name="k" unicode="k" horiz-adv-x="470" 
d="M74 0v730h44v-475h2l255 275h63l-197 -208l206 -322h-53l-183 291h-2l-91 -99v-192h-44z" />
    <glyph glyph-name="uni0137" unicode="&#x137;" horiz-adv-x="470" 
d="M74 0v730h44v-475h2l255 275h63l-197 -208l206 -322h-53l-183 291h-2l-91 -99v-192h-44zM215 -185v27c21 4 29 15 29 39h-31v71h76v-62c0 -45 -25 -72 -74 -75z" />
    <glyph glyph-name="kgreenlandic" unicode="&#x138;" horiz-adv-x="476" 
d="M74 0v530h44v-275h2l260 275h63l-200 -208l210 -322h-53l-187 291h-2l-93 -99v-192h-44z" />
    <glyph glyph-name="l" unicode="l" horiz-adv-x="192" 
d="M74 0v730h44v-730h-44z" />
    <glyph glyph-name="lacute" unicode="&#x13a;" horiz-adv-x="192" 
d="M74 0v730h44v-730h-44zM65 790l66 106h70l-92 -106h-44z" />
    <glyph glyph-name="lcaron" unicode="&#x13e;" horiz-adv-x="226" 
d="M74 0v730h44v-730h-44zM168 594v27c21 4 29 15 29 39h-31v71h76v-62c0 -45 -25 -72 -74 -75z" />
    <glyph glyph-name="uni013C" unicode="&#x13c;" horiz-adv-x="192" 
d="M74 0v730h44v-730h-44zM61 -185v27c21 4 29 15 29 39h-31v71h76v-62c0 -45 -25 -72 -74 -75z" />
    <glyph glyph-name="ldot" unicode="&#x140;" horiz-adv-x="248" 
d="M74 0v730h44v-730h-44zM172 344v86h88v-86h-88z" />
    <glyph glyph-name="uni1E37" unicode="&#x1e37;" horiz-adv-x="192" 
d="M74 0v730h44v-730h-44zM58 -124v75h76v-75h-76z" />
    <glyph glyph-name="lslash" unicode="&#x142;" horiz-adv-x="268" 
d="M112 0v730h44v-730h-44zM130 368l144 136l-20 22l-123 -118v8l-137 -130l20 -21l116 111v-8z" />
    <glyph glyph-name="m" unicode="m" horiz-adv-x="817" 
d="M74 0v530h44v-63h2c27 49 84 78 143 78c68 0 127 -34 151 -91h2c29 59 87 91 158 91c96 0 174 -65 174 -171v-374h-44v367c0 87 -55 137 -132 137c-85 0 -140 -57 -140 -144v-360h-42v369c0 83 -57 135 -134 135c-81 0 -138 -61 -138 -146v-358h-44z" />
    <glyph glyph-name="n" unicode="n" horiz-adv-x="554" 
d="M74 0v530h43v-76h2c33 56 98 91 170 91c120 0 196 -75 196 -196v-349h-44v342c0 101 -58 162 -155 162c-49 0 -90 -15 -121 -46c-31 -30 -47 -69 -47 -116v-342h-44z" />
    <glyph glyph-name="nacute" unicode="&#x144;" horiz-adv-x="554" 
d="M74 0v530h43v-76h2c33 56 98 91 170 91c120 0 196 -75 196 -196v-349h-44v342c0 101 -58 162 -155 162c-49 0 -90 -15 -121 -46c-31 -30 -47 -69 -47 -116v-342h-44zM252 605l66 106h70l-92 -106h-44z" />
    <glyph glyph-name="ncaron" unicode="&#x148;" horiz-adv-x="554" 
d="M74 0v530h43v-76h2c33 56 98 91 170 91c120 0 196 -75 196 -196v-349h-44v342c0 101 -58 162 -155 162c-49 0 -90 -15 -121 -46c-31 -30 -47 -69 -47 -116v-342h-44zM353 704l30 -24l-68 -85h-64l-68 85l30 24l70 -87z" />
    <glyph glyph-name="uni0146" unicode="&#x146;" horiz-adv-x="554" 
d="M74 0v530h43v-76h2c33 56 98 91 170 91c120 0 196 -75 196 -196v-349h-44v342c0 101 -58 162 -155 162c-49 0 -90 -15 -121 -46c-31 -30 -47 -69 -47 -116v-342h-44zM243 -185v27c21 4 29 15 29 39h-31v71h76v-62c0 -45 -25 -72 -74 -75z" />
    <glyph glyph-name="uni1E45" unicode="&#x1e45;" horiz-adv-x="554" 
d="M74 0v530h43v-76h2c33 56 98 91 170 91c120 0 196 -75 196 -196v-349h-44v342c0 101 -58 162 -155 162c-49 0 -90 -15 -121 -46c-31 -30 -47 -69 -47 -116v-342h-44zM245 605v75h76v-75h-76z" />
    <glyph glyph-name="uni1E47" unicode="&#x1e47;" horiz-adv-x="554" 
d="M74 0v530h43v-76h2c33 56 98 91 170 91c120 0 196 -75 196 -196v-349h-44v342c0 101 -58 162 -155 162c-49 0 -90 -15 -121 -46c-31 -30 -47 -69 -47 -116v-342h-44zM241 -124v75h76v-75h-76z" />
    <glyph glyph-name="eng" unicode="&#x14b;" horiz-adv-x="554" 
d="M485 349v-410c0 -67 -29 -94 -100 -94h-33v41h33c39 0 56 17 56 54v402c0 101 -58 162 -155 162c-49 0 -90 -15 -121 -46c-31 -30 -47 -69 -47 -116v-342h-44v530h43v-76h2c33 56 98 91 170 91c120 0 196 -75 196 -196z" />
    <glyph glyph-name="ntilde" unicode="&#xf1;" horiz-adv-x="554" 
d="M74 0v530h43v-76h2c33 56 98 91 170 91c120 0 196 -75 196 -196v-349h-44v342c0 101 -58 162 -155 162c-49 0 -90 -15 -121 -46c-31 -30 -47 -69 -47 -116v-342h-44zM276 623c-25 13 -37 20 -53 20c-20 0 -32 -13 -36 -38h-29c3 47 28 75 68 75c21 0 36 -7 65 -23
c21 -13 39 -19 52 -19c21 0 34 12 37 37h28c-3 -47 -28 -75 -67 -75c-23 0 -40 8 -65 23z" />
    <glyph glyph-name="o" unicode="o" horiz-adv-x="595" 
d="M54 265c0 165 99 280 243 280c143 0 244 -115 244 -280s-101 -280 -244 -280c-144 0 -243 115 -243 280zM497 265c0 141 -81 239 -200 239c-118 0 -199 -98 -199 -239s81 -239 199 -239c119 0 200 98 200 239z" />
    <glyph glyph-name="oacute" unicode="&#xf3;" horiz-adv-x="595" 
d="M54 265c0 165 99 280 243 280c143 0 244 -115 244 -280s-101 -280 -244 -280c-144 0 -243 115 -243 280zM497 265c0 141 -81 239 -200 239c-118 0 -199 -98 -199 -239s81 -239 199 -239c119 0 200 98 200 239zM266 605l66 106h70l-92 -106h-44z" />
    <glyph glyph-name="obreve" unicode="&#x14f;" horiz-adv-x="595" 
d="M54 265c0 165 99 280 243 280c143 0 244 -115 244 -280s-101 -280 -244 -280c-144 0 -243 115 -243 280zM497 265c0 141 -81 239 -200 239c-118 0 -199 -98 -199 -239s81 -239 199 -239c119 0 200 98 200 239zM190 698h30c7 -37 33 -60 77 -60s70 23 77 60h30
c-3 -63 -43 -103 -107 -103s-104 40 -107 103z" />
    <glyph glyph-name="uni01D2" unicode="&#x1d2;" horiz-adv-x="595" 
d="M54 265c0 165 99 280 243 280c143 0 244 -115 244 -280s-101 -280 -244 -280c-144 0 -243 115 -243 280zM497 265c0 141 -81 239 -200 239c-118 0 -199 -98 -199 -239s81 -239 199 -239c119 0 200 98 200 239zM367 704l30 -24l-68 -85h-64l-68 85l30 24l70 -87z" />
    <glyph glyph-name="ocircumflex" unicode="&#xf4;" horiz-adv-x="595" 
d="M54 265c0 165 99 280 243 280c143 0 244 -115 244 -280s-101 -280 -244 -280c-144 0 -243 115 -243 280zM497 265c0 141 -81 239 -200 239c-118 0 -199 -98 -199 -239s81 -239 199 -239c119 0 200 98 200 239zM397 609l-30 -24l-70 87l-70 -87l-30 24l68 85h64z" />
    <glyph glyph-name="uni1ED9" unicode="&#x1ed9;" horiz-adv-x="595" 
d="M54 265c0 165 99 280 243 280c143 0 244 -115 244 -280s-101 -280 -244 -280c-144 0 -243 115 -243 280zM497 265c0 141 -81 239 -200 239c-118 0 -199 -98 -199 -239s81 -239 199 -239c119 0 200 98 200 239zM397 609l-30 -24l-70 87l-70 -87l-30 24l68 85h64zM259 -139
v75h76v-75h-76z" />
    <glyph glyph-name="odieresis" unicode="&#xf6;" horiz-adv-x="595" 
d="M54 265c0 165 99 280 243 280c143 0 244 -115 244 -280s-101 -280 -244 -280c-144 0 -243 115 -243 280zM497 265c0 141 -81 239 -200 239c-118 0 -199 -98 -199 -239s81 -239 199 -239c119 0 200 98 200 239zM176 595v75h76v-75h-76zM342 595v75h76v-75h-76z" />
    <glyph glyph-name="uni1ECD" unicode="&#x1ecd;" horiz-adv-x="595" 
d="M54 265c0 165 99 280 243 280c143 0 244 -115 244 -280s-101 -280 -244 -280c-144 0 -243 115 -243 280zM497 265c0 141 -81 239 -200 239c-118 0 -199 -98 -199 -239s81 -239 199 -239c119 0 200 98 200 239zM259 -139v75h76v-75h-76z" />
    <glyph glyph-name="ograve" unicode="&#xf2;" horiz-adv-x="595" 
d="M54 265c0 165 99 280 243 280c143 0 244 -115 244 -280s-101 -280 -244 -280c-144 0 -243 115 -243 280zM497 265c0 141 -81 239 -200 239c-118 0 -199 -98 -199 -239s81 -239 199 -239c119 0 200 98 200 239zM284 605l-92 106h71l65 -106h-44z" />
    <glyph glyph-name="ohungarumlaut" unicode="&#x151;" horiz-adv-x="595" 
d="M54 265c0 165 99 280 243 280c143 0 244 -115 244 -280s-101 -280 -244 -280c-144 0 -243 115 -243 280zM497 265c0 141 -81 239 -200 239c-118 0 -199 -98 -199 -239s81 -239 199 -239c119 0 200 98 200 239zM197 605l66 106h70l-92 -106h-44zM320 605l66 106h70
l-92 -106h-44z" />
    <glyph glyph-name="omacron" unicode="&#x14d;" horiz-adv-x="595" 
d="M54 265c0 165 99 280 243 280c143 0 244 -115 244 -280s-101 -280 -244 -280c-144 0 -243 115 -243 280zM497 265c0 141 -81 239 -200 239c-118 0 -199 -98 -199 -239s81 -239 199 -239c119 0 200 98 200 239zM176 605v37h242v-37h-242z" />
    <glyph glyph-name="oslash" unicode="&#xf8;" horiz-adv-x="602" 
d="M544 265c0 -165 -99 -280 -243 -280c-67 0 -124 25 -167 69l-47 -53l-22 18l50 57c-38 51 -57 114 -57 189c0 165 99 280 243 280c67 0 125 -25 168 -70l46 51l23 -18l-50 -56c37 -50 56 -112 56 -187zM144 108l298 336c-37 41 -84 61 -141 61c-118 0 -201 -97 -201 -240
c0 -63 15 -115 44 -157zM502 265c0 62 -14 114 -42 155l-298 -335c36 -39 84 -60 139 -60c120 0 201 97 201 240z" />
    <glyph glyph-name="oslashacute" unicode="&#x1ff;" horiz-adv-x="602" 
d="M544 265c0 -165 -99 -280 -243 -280c-67 0 -124 25 -167 69l-47 -53l-22 18l50 57c-38 51 -57 114 -57 189c0 165 99 280 243 280c67 0 125 -25 168 -70l46 51l23 -18l-50 -56c37 -50 56 -112 56 -187zM144 108l298 336c-37 41 -84 61 -141 61c-118 0 -201 -97 -201 -240
c0 -63 15 -115 44 -157zM502 265c0 62 -14 114 -42 155l-298 -335c36 -39 84 -60 139 -60c120 0 201 97 201 240zM270 605l66 106h70l-92 -106h-44z" />
    <glyph glyph-name="otilde" unicode="&#xf5;" horiz-adv-x="595" 
d="M54 265c0 165 99 280 243 280c143 0 244 -115 244 -280s-101 -280 -244 -280c-144 0 -243 115 -243 280zM497 265c0 141 -81 239 -200 239c-118 0 -199 -98 -199 -239s81 -239 199 -239c119 0 200 98 200 239zM290 623c-25 13 -37 20 -53 20c-20 0 -32 -13 -36 -38h-29
c3 47 28 75 68 75c21 0 36 -7 65 -23c21 -13 39 -19 52 -19c21 0 34 12 37 37h28c-3 -47 -28 -75 -67 -75c-23 0 -40 8 -65 23z" />
    <glyph glyph-name="uni1E4D" unicode="&#x1e4d;" horiz-adv-x="595" 
d="M54 265c0 165 99 280 243 280c143 0 244 -115 244 -280s-101 -280 -244 -280c-144 0 -243 115 -243 280zM497 265c0 141 -81 239 -200 239c-118 0 -199 -98 -199 -239s81 -239 199 -239c119 0 200 98 200 239zM290 623c-25 13 -37 20 -53 20c-20 0 -32 -13 -36 -38h-29
c3 47 28 75 68 75c21 0 36 -7 65 -23c21 -13 39 -19 52 -19c21 0 34 12 37 37h28c-3 -47 -28 -75 -67 -75c-23 0 -40 8 -65 23zM266 710l66 106h70l-92 -106h-44z" />
    <glyph glyph-name="oe" unicode="&#x153;" horiz-adv-x="1020" 
d="M966 274v-19h-424c1 -139 74 -230 193 -230c87 0 142 38 181 123l37 -20c-40 -93 -114 -143 -217 -143c-105 0 -183 58 -218 155c-37 -96 -119 -155 -220 -155c-143 0 -244 115 -244 280s101 280 244 280c103 0 184 -59 221 -156c35 96 113 156 214 156
c140 0 233 -106 233 -271zM497 265c0 143 -82 240 -199 240c-119 0 -200 -99 -200 -240s81 -240 200 -240c117 0 199 97 199 240zM542 292h379c-2 126 -77 213 -188 213c-109 0 -187 -95 -191 -213z" />
    <glyph glyph-name="p" unicode="p" horiz-adv-x="581" 
d="M74 -225v755h44v-75h2c36 55 100 90 172 90c139 0 235 -116 235 -281c0 -163 -98 -279 -233 -279c-75 0 -139 33 -174 88h-2v-298h-44zM483 265c0 142 -78 239 -191 239c-96 0 -174 -74 -174 -161v-156c0 -89 79 -161 174 -161c113 0 191 99 191 239z" />
    <glyph glyph-name="thorn" unicode="&#xfe;" horiz-adv-x="581" 
d="M527 264c0 -163 -98 -279 -233 -279c-75 0 -139 33 -174 88h-2v-298h-44v955h44v-275h2c36 55 100 90 172 90c139 0 235 -116 235 -281zM483 265c0 142 -78 239 -191 239c-96 0 -174 -74 -174 -161v-156c0 -89 79 -161 174 -161c113 0 191 99 191 239z" />
    <glyph glyph-name="q" unicode="q" horiz-adv-x="581" 
d="M507 -225h-44v298h-2c-35 -55 -99 -88 -174 -88c-135 0 -233 116 -233 279c0 165 96 281 235 281c72 0 136 -35 172 -90h2v75h44v-755zM463 187v156c0 87 -78 161 -174 161c-113 0 -191 -97 -191 -239c0 -140 78 -239 191 -239c95 0 174 72 174 161z" />
    <glyph glyph-name="r" unicode="r" horiz-adv-x="291" 
d="M74 0v530h42v-56h2c20 39 58 64 109 64c15 0 29 -2 41 -5l-9 -45c-14 4 -27 6 -38 6c-68 0 -103 -52 -103 -145v-349h-44z" />
    <glyph glyph-name="racute" unicode="&#x155;" horiz-adv-x="291" 
d="M74 0v530h42v-56h2c20 39 58 64 109 64c15 0 29 -2 41 -5l-9 -45c-14 4 -27 6 -38 6c-68 0 -103 -52 -103 -145v-349h-44zM113 590l66 106h70l-92 -106h-44z" />
    <glyph glyph-name="rcaron" unicode="&#x159;" horiz-adv-x="291" 
d="M74 0v530h42v-56h2c20 39 58 64 109 64c15 0 29 -2 41 -5l-9 -45c-14 4 -27 6 -38 6c-68 0 -103 -52 -103 -145v-349h-44zM214 689l30 -24l-68 -85h-64l-68 85l30 24l70 -87z" />
    <glyph glyph-name="uni0157" unicode="&#x157;" horiz-adv-x="291" 
d="M74 0v530h42v-56h2c20 39 58 64 109 64c15 0 29 -2 41 -5l-9 -45c-14 4 -27 6 -38 6c-68 0 -103 -52 -103 -145v-349h-44zM61 -185v27c21 4 29 15 29 39h-31v71h76v-62c0 -45 -25 -72 -74 -75z" />
    <glyph glyph-name="s" unicode="s" horiz-adv-x="493" 
d="M44 182l43 6c15 -111 71 -162 179 -162c85 0 138 40 138 104s-37 94 -163 127c-133 38 -176 72 -176 144c0 83 72 144 171 144c104 0 179 -60 195 -157l-43 -9c-16 81 -69 125 -152 125c-73 0 -127 -42 -127 -101c0 -52 34 -76 147 -106c144 -40 193 -82 193 -166
c0 -89 -72 -146 -183 -146c-132 0 -210 69 -222 197z" />
    <glyph glyph-name="sacute" unicode="&#x15b;" horiz-adv-x="493" 
d="M44 182l43 6c15 -111 71 -162 179 -162c85 0 138 40 138 104s-37 94 -163 127c-133 38 -176 72 -176 144c0 83 72 144 171 144c104 0 179 -60 195 -157l-43 -9c-16 81 -69 125 -152 125c-73 0 -127 -42 -127 -101c0 -52 34 -76 147 -106c144 -40 193 -82 193 -166
c0 -89 -72 -146 -183 -146c-132 0 -210 69 -222 197zM205 605l66 106h70l-92 -106h-44z" />
    <glyph glyph-name="scaron" unicode="&#x161;" horiz-adv-x="493" 
d="M44 182l43 6c15 -111 71 -162 179 -162c85 0 138 40 138 104s-37 94 -163 127c-133 38 -176 72 -176 144c0 83 72 144 171 144c104 0 179 -60 195 -157l-43 -9c-16 81 -69 125 -152 125c-73 0 -127 -42 -127 -101c0 -52 34 -76 147 -106c144 -40 193 -82 193 -166
c0 -89 -72 -146 -183 -146c-132 0 -210 69 -222 197zM306 704l30 -24l-68 -85h-64l-68 85l30 24l70 -87z" />
    <glyph glyph-name="scedilla" unicode="&#x15f;" horiz-adv-x="493" 
d="M44 182l43 6c15 -111 71 -162 179 -162c85 0 138 40 138 104s-37 94 -163 127c-133 38 -176 72 -176 144c0 83 72 144 171 144c104 0 179 -60 195 -157l-43 -9c-16 81 -69 125 -152 125c-73 0 -127 -42 -127 -101c0 -52 34 -76 147 -106c144 -40 193 -82 193 -166
c0 -89 -72 -146 -183 -146c-132 0 -210 69 -222 197zM379 -135c0 -49 -40 -85 -93 -85c-37 0 -68 14 -93 41l24 25c21 -23 41 -33 69 -33c35 0 59 23 59 52s-23 50 -56 50c-25 0 -45 -10 -62 -30l-28 13l58 106l28 -12l-35 -60c13 7 27 11 44 11c49 0 85 -33 85 -78z" />
    <glyph glyph-name="scircumflex" unicode="&#x15d;" horiz-adv-x="493" 
d="M44 182l43 6c15 -111 71 -162 179 -162c85 0 138 40 138 104s-37 94 -163 127c-133 38 -176 72 -176 144c0 83 72 144 171 144c104 0 179 -60 195 -157l-43 -9c-16 81 -69 125 -152 125c-73 0 -127 -42 -127 -101c0 -52 34 -76 147 -106c144 -40 193 -82 193 -166
c0 -89 -72 -146 -183 -146c-132 0 -210 69 -222 197zM336 609l-30 -24l-70 87l-70 -87l-30 24l68 85h64z" />
    <glyph glyph-name="uni0219" unicode="&#x219;" horiz-adv-x="493" 
d="M44 182l43 6c15 -111 71 -162 179 -162c85 0 138 40 138 104s-37 94 -163 127c-133 38 -176 72 -176 144c0 83 72 144 171 144c104 0 179 -60 195 -157l-43 -9c-16 81 -69 125 -152 125c-73 0 -127 -42 -127 -101c0 -52 34 -76 147 -106c144 -40 193 -82 193 -166
c0 -89 -72 -146 -183 -146c-132 0 -210 69 -222 197zM230 -200v27c21 4 29 15 29 39h-31v71h76v-62c0 -45 -25 -72 -74 -75z" />
    <glyph glyph-name="uni1E63" unicode="&#x1e63;" horiz-adv-x="493" 
d="M44 182l43 6c15 -111 71 -162 179 -162c85 0 138 40 138 104s-37 94 -163 127c-133 38 -176 72 -176 144c0 83 72 144 171 144c104 0 179 -60 195 -157l-43 -9c-16 81 -69 125 -152 125c-73 0 -127 -42 -127 -101c0 -52 34 -76 147 -106c144 -40 193 -82 193 -166
c0 -89 -72 -146 -183 -146c-132 0 -210 69 -222 197zM228 -139v75h76v-75h-76z" />
    <glyph glyph-name="germandbls" unicode="&#xdf;" horiz-adv-x="547" 
d="M74 0v508c0 129 78 207 201 207c55 0 100 -16 134 -49c35 -33 52 -75 52 -128c0 -67 -38 -120 -102 -147v-2c83 -20 134 -89 134 -178c0 -135 -82 -211 -229 -211h-56v41h56c119 0 185 61 185 170c0 93 -61 154 -161 154h-80v40h62c88 0 147 52 147 131
c0 85 -54 138 -142 138c-100 0 -157 -62 -157 -173v-501h-44z" />
    <glyph glyph-name="longs" unicode="&#x17f;" horiz-adv-x="244" 
d="M101 0v489h-78v41h78v69c0 64 37 100 104 100h67v-41h-63c-44 0 -64 -20 -64 -65v-593h-44z" />
    <glyph glyph-name="t" unicode="t" horiz-adv-x="300" 
d="M273 490h-130v-396c0 -37 15 -53 58 -53h41v-41h-43c-72 0 -100 27 -100 95v395h-76v40h76v113h44v-113h130v-40z" />
    <glyph glyph-name="tbar" unicode="&#x167;" horiz-adv-x="300" 
d="M273 490h-130v-396c0 -37 15 -53 58 -53h41v-41h-43c-72 0 -100 27 -100 95v395h-76v40h76v113h44v-113h130v-40zM23 264v36h250v-36h-250z" />
    <glyph glyph-name="tcaron" unicode="&#x165;" horiz-adv-x="300" 
d="M273 490h-130v-396c0 -37 15 -53 58 -53h41v-41h-43c-72 0 -100 27 -100 95v395h-76v40h76v113h44v-113h130v-40zM221 586v27c21 4 29 15 29 39h-31v71h76v-62c0 -45 -25 -72 -74 -75z" />
    <glyph glyph-name="uni0163" unicode="&#x163;" horiz-adv-x="300" 
d="M273 490h-130v-396c0 -37 15 -53 58 -53h41v-41h-43c-72 0 -100 27 -100 95v395h-76v40h76v113h44v-113h130v-40zM280 -121c0 -49 -40 -85 -93 -85c-37 0 -68 14 -93 41l24 25c21 -23 41 -33 69 -33c35 0 59 23 59 52s-23 50 -56 50c-25 0 -45 -10 -62 -30l-28 13l58 106
l28 -12l-35 -60c13 7 27 11 44 11c49 0 85 -33 85 -78z" />
    <glyph glyph-name="uni021B" unicode="&#x21b;" horiz-adv-x="300" 
d="M273 490h-130v-396c0 -37 15 -53 58 -53h41v-41h-43c-72 0 -100 27 -100 95v395h-76v40h76v113h44v-113h130v-40zM131 -185v27c21 4 29 15 29 39h-31v71h76v-62c0 -45 -25 -72 -74 -75z" />
    <glyph glyph-name="uni1E6D" unicode="&#x1e6d;" horiz-adv-x="300" 
d="M273 490h-130v-396c0 -37 15 -53 58 -53h41v-41h-43c-72 0 -100 27 -100 95v395h-76v40h76v113h44v-113h130v-40zM129 -124v75h76v-75h-76z" />
    <glyph glyph-name="u" unicode="u" horiz-adv-x="541" 
d="M64 177v353h44v-342c0 -105 53 -162 153 -162c47 0 86 15 116 45c31 31 46 70 46 117v342h44v-530h-43v76h-2c-32 -57 -96 -91 -171 -91c-117 0 -187 72 -187 192z" />
    <glyph glyph-name="uacute" unicode="&#xfa;" horiz-adv-x="541" 
d="M64 177v353h44v-342c0 -105 53 -162 153 -162c47 0 86 15 116 45c31 31 46 70 46 117v342h44v-530h-43v76h-2c-32 -57 -96 -91 -171 -91c-117 0 -187 72 -187 192zM235 590l66 106h70l-92 -106h-44z" />
    <glyph glyph-name="ubreve" unicode="&#x16d;" horiz-adv-x="541" 
d="M64 177v353h44v-342c0 -105 53 -162 153 -162c47 0 86 15 116 45c31 31 46 70 46 117v342h44v-530h-43v76h-2c-32 -57 -96 -91 -171 -91c-117 0 -187 72 -187 192zM159 683h30c7 -37 33 -60 77 -60s70 23 77 60h30c-3 -63 -43 -103 -107 -103s-104 40 -107 103z" />
    <glyph glyph-name="uni01D4" unicode="&#x1d4;" horiz-adv-x="541" 
d="M64 177v353h44v-342c0 -105 53 -162 153 -162c47 0 86 15 116 45c31 31 46 70 46 117v342h44v-530h-43v76h-2c-32 -57 -96 -91 -171 -91c-117 0 -187 72 -187 192zM336 689l30 -24l-68 -85h-64l-68 85l30 24l70 -87z" />
    <glyph glyph-name="ucircumflex" unicode="&#xfb;" horiz-adv-x="541" 
d="M64 177v353h44v-342c0 -105 53 -162 153 -162c47 0 86 15 116 45c31 31 46 70 46 117v342h44v-530h-43v76h-2c-32 -57 -96 -91 -171 -91c-117 0 -187 72 -187 192zM366 594l-30 -24l-70 87l-70 -87l-30 24l68 85h64z" />
    <glyph glyph-name="udieresis" unicode="&#xfc;" horiz-adv-x="541" 
d="M64 177v353h44v-342c0 -105 53 -162 153 -162c47 0 86 15 116 45c31 31 46 70 46 117v342h44v-530h-43v76h-2c-32 -57 -96 -91 -171 -91c-117 0 -187 72 -187 192zM145 580v75h76v-75h-76zM311 580v75h76v-75h-76z" />
    <glyph glyph-name="uni01D8" unicode="&#x1d8;" horiz-adv-x="541" 
d="M64 177v353h44v-342c0 -105 53 -162 153 -162c47 0 86 15 116 45c31 31 46 70 46 117v342h44v-530h-43v76h-2c-32 -57 -96 -91 -171 -91c-117 0 -187 72 -187 192zM145 580v75h76v-75h-76zM311 580v75h76v-75h-76zM235 695l66 106h70l-92 -106h-44z" />
    <glyph glyph-name="uni01DA" unicode="&#x1da;" horiz-adv-x="541" 
d="M64 177v353h44v-342c0 -105 53 -162 153 -162c47 0 86 15 116 45c31 31 46 70 46 117v342h44v-530h-43v76h-2c-32 -57 -96 -91 -171 -91c-117 0 -187 72 -187 192zM145 580v75h76v-75h-76zM311 580v75h76v-75h-76zM336 794l30 -24l-68 -85h-64l-68 85l30 24l70 -87z" />
    <glyph glyph-name="uni01DC" unicode="&#x1dc;" horiz-adv-x="541" 
d="M64 177v353h44v-342c0 -105 53 -162 153 -162c47 0 86 15 116 45c31 31 46 70 46 117v342h44v-530h-43v76h-2c-32 -57 -96 -91 -171 -91c-117 0 -187 72 -187 192zM145 580v75h76v-75h-76zM311 580v75h76v-75h-76zM253 695l-92 106h71l65 -106h-44z" />
    <glyph glyph-name="uni01D6" unicode="&#x1d6;" horiz-adv-x="541" 
d="M64 177v353h44v-342c0 -105 53 -162 153 -162c47 0 86 15 116 45c31 31 46 70 46 117v342h44v-530h-43v76h-2c-32 -57 -96 -91 -171 -91c-117 0 -187 72 -187 192zM145 580v75h76v-75h-76zM311 580v75h76v-75h-76zM145 695v37h242v-37h-242z" />
    <glyph glyph-name="uni1EE5" unicode="&#x1ee5;" horiz-adv-x="541" 
d="M64 177v353h44v-342c0 -105 53 -162 153 -162c47 0 86 15 116 45c31 31 46 70 46 117v342h44v-530h-43v76h-2c-32 -57 -96 -91 -171 -91c-117 0 -187 72 -187 192zM213 -139v75h76v-75h-76z" />
    <glyph glyph-name="ugrave" unicode="&#xf9;" horiz-adv-x="541" 
d="M64 177v353h44v-342c0 -105 53 -162 153 -162c47 0 86 15 116 45c31 31 46 70 46 117v342h44v-530h-43v76h-2c-32 -57 -96 -91 -171 -91c-117 0 -187 72 -187 192zM253 590l-92 106h71l65 -106h-44z" />
    <glyph glyph-name="uhungarumlaut" unicode="&#x171;" horiz-adv-x="541" 
d="M64 177v353h44v-342c0 -105 53 -162 153 -162c47 0 86 15 116 45c31 31 46 70 46 117v342h44v-530h-43v76h-2c-32 -57 -96 -91 -171 -91c-117 0 -187 72 -187 192zM166 590l66 106h70l-92 -106h-44zM289 590l66 106h70l-92 -106h-44z" />
    <glyph glyph-name="umacron" unicode="&#x16b;" horiz-adv-x="541" 
d="M64 177v353h44v-342c0 -105 53 -162 153 -162c47 0 86 15 116 45c31 31 46 70 46 117v342h44v-530h-43v76h-2c-32 -57 -96 -91 -171 -91c-117 0 -187 72 -187 192zM145 590v37h242v-37h-242z" />
    <glyph glyph-name="uogonek" unicode="&#x173;" horiz-adv-x="541" 
d="M64 177v353h44v-342c0 -105 53 -162 153 -162c47 0 86 15 116 45c31 31 46 70 46 117v342h44v-530h-43v76h-2c-32 -57 -96 -91 -171 -91c-117 0 -187 72 -187 192zM339 -113c0 43 40 91 101 124l24 -11c-57 -32 -85 -67 -85 -105c0 -25 14 -38 42 -38c19 0 38 7 59 20
l17 -35c-24 -16 -51 -24 -81 -24c-49 0 -77 24 -77 69z" />
    <glyph glyph-name="uring" unicode="&#x16f;" horiz-adv-x="541" 
d="M64 177v353h44v-342c0 -105 53 -162 153 -162c47 0 86 15 116 45c31 31 46 70 46 117v342h44v-530h-43v76h-2c-32 -57 -96 -91 -171 -91c-117 0 -187 72 -187 192zM160 623c0 59 45 103 108 103s108 -44 108 -103c0 -60 -45 -103 -108 -103s-108 43 -108 103zM341 623
c0 43 -32 73 -73 73c-43 0 -73 -30 -73 -73c0 -41 30 -73 73 -73c41 0 73 32 73 73z" />
    <glyph glyph-name="utilde" unicode="&#x169;" horiz-adv-x="541" 
d="M64 177v353h44v-342c0 -105 53 -162 153 -162c47 0 86 15 116 45c31 31 46 70 46 117v342h44v-530h-43v76h-2c-32 -57 -96 -91 -171 -91c-117 0 -187 72 -187 192zM259 608c-25 13 -37 20 -53 20c-20 0 -32 -13 -36 -38h-29c3 47 28 75 68 75c21 0 36 -7 65 -23
c21 -13 39 -19 52 -19c21 0 34 12 37 37h28c-3 -47 -28 -75 -67 -75c-23 0 -40 8 -65 23z" />
    <glyph glyph-name="v" unicode="v" horiz-adv-x="503" 
d="M233 0l-223 530h48l193 -467h2l193 467h47l-223 -530h-37z" />
    <glyph glyph-name="w" unicode="w" horiz-adv-x="710" 
d="M153 0l-125 530h44l107 -461h2l152 461h44l152 -461h2l107 461h44l-125 -530h-44l-157 474h-2l-157 -474h-44z" />
    <glyph glyph-name="wacute" unicode="&#x1e83;" horiz-adv-x="710" 
d="M153 0l-125 530h44l107 -461h2l152 461h44l152 -461h2l107 461h44l-125 -530h-44l-157 474h-2l-157 -474h-44zM324 590l66 106h70l-92 -106h-44z" />
    <glyph glyph-name="wcircumflex" unicode="&#x175;" horiz-adv-x="710" 
d="M153 0l-125 530h44l107 -461h2l152 461h44l152 -461h2l107 461h44l-125 -530h-44l-157 474h-2l-157 -474h-44zM455 594l-30 -24l-70 87l-70 -87l-30 24l68 85h64z" />
    <glyph glyph-name="wdieresis" unicode="&#x1e85;" horiz-adv-x="710" 
d="M153 0l-125 530h44l107 -461h2l152 461h44l152 -461h2l107 461h44l-125 -530h-44l-157 474h-2l-157 -474h-44zM234 580v75h76v-75h-76zM400 580v75h76v-75h-76z" />
    <glyph glyph-name="wgrave" unicode="&#x1e81;" horiz-adv-x="710" 
d="M153 0l-125 530h44l107 -461h2l152 461h44l152 -461h2l107 461h44l-125 -530h-44l-157 474h-2l-157 -474h-44zM342 590l-92 106h71l65 -106h-44z" />
    <glyph glyph-name="x" unicode="x" horiz-adv-x="433" 
d="M8 0l181 270l-175 260h51l150 -226h2l150 226h52l-176 -260l182 -270h-52l-156 236h-2l-156 -236h-51z" />
    <glyph glyph-name="y" unicode="y" horiz-adv-x="479" 
d="M103 -225l114 269l-207 486h47l181 -434h2l182 434h47l-321 -755h-45z" />
    <glyph glyph-name="yacute" unicode="&#xfd;" horiz-adv-x="479" 
d="M103 -225l114 269l-207 486h47l181 -434h2l182 434h47l-321 -755h-45zM209 590l66 106h70l-92 -106h-44z" />
    <glyph glyph-name="ycircumflex" unicode="&#x177;" horiz-adv-x="479" 
d="M103 -225l114 269l-207 486h47l181 -434h2l182 434h47l-321 -755h-45zM340 594l-30 -24l-70 87l-70 -87l-30 24l68 85h64z" />
    <glyph glyph-name="ydieresis" unicode="&#xff;" horiz-adv-x="479" 
d="M103 -225l114 269l-207 486h47l181 -434h2l182 434h47l-321 -755h-45zM119 580v75h76v-75h-76zM285 580v75h76v-75h-76z" />
    <glyph glyph-name="uni1EF5" unicode="&#x1ef5;" horiz-adv-x="479" 
d="M103 -225l114 269l-207 486h47l181 -434h2l182 434h47l-321 -755h-45zM278 -124v75h76v-75h-76z" />
    <glyph glyph-name="ygrave" unicode="&#x1ef3;" horiz-adv-x="479" 
d="M103 -225l114 269l-207 486h47l181 -434h2l182 434h47l-321 -755h-45zM227 590l-92 106h71l65 -106h-44z" />
    <glyph glyph-name="uni1EF9" unicode="&#x1ef9;" horiz-adv-x="479" 
d="M103 -225l114 269l-207 486h47l181 -434h2l182 434h47l-321 -755h-45zM233 608c-25 13 -37 20 -53 20c-20 0 -32 -13 -36 -38h-29c3 47 28 75 68 75c21 0 36 -7 65 -23c21 -13 39 -19 52 -19c21 0 34 12 37 37h28c-3 -47 -28 -75 -67 -75c-23 0 -40 8 -65 23z" />
    <glyph glyph-name="z" unicode="z" horiz-adv-x="482" 
d="M27 0v38l369 450v2h-349v40h405v-38l-370 -450v-2h369v-40h-424z" />
    <glyph glyph-name="zacute" unicode="&#x17a;" horiz-adv-x="482" 
d="M27 0v38l369 450v2h-349v40h405v-38l-370 -450v-2h369v-40h-424zM210 590l66 106h70l-92 -106h-44z" />
    <glyph glyph-name="zcaron" unicode="&#x17e;" horiz-adv-x="482" 
d="M27 0v38l369 450v2h-349v40h405v-38l-370 -450v-2h369v-40h-424zM311 689l30 -24l-68 -85h-64l-68 85l30 24l70 -87z" />
    <glyph glyph-name="zdotaccent" unicode="&#x17c;" horiz-adv-x="482" 
d="M27 0v38l369 450v2h-349v40h405v-38l-370 -450v-2h369v-40h-424zM208 625v64h66v-64h-66z" />
    <glyph glyph-name="uni1E93" unicode="&#x1e93;" horiz-adv-x="482" 
d="M27 0v38l369 450v2h-349v40h405v-38l-370 -450v-2h369v-40h-424zM202 -124v75h76v-75h-76z" />
    <glyph glyph-name="A.ordn" horiz-adv-x="268" 
d="M19 493c0 47 31 72 107 89c53 13 72 24 72 47c0 31 -22 47 -63 47c-44 0 -74 -25 -79 -66l-36 5c8 55 54 92 115 92s100 -33 100 -85v-198h-33v36h-1c-16 -27 -52 -43 -92 -43c-55 0 -90 29 -90 76zM199 516v71h-1c-7 -15 -25 -22 -66 -33c-56 -13 -77 -30 -77 -59
s21 -46 60 -46c47 0 84 30 84 67z" />
    <glyph glyph-name="B.ccmp" horiz-adv-x="305" 
d="M287 562c0 -87 -52 -145 -129 -145c-36 0 -71 15 -88 40h-1v-33h-36v380h37v-136h1c19 25 51 39 87 39c77 0 129 -58 129 -145zM250 562c0 68 -38 112 -97 112c-44 0 -83 -34 -83 -70v-84c0 -36 39 -70 83 -70c59 0 97 44 97 112z" />
    <glyph glyph-name="C.ccmp" horiz-adv-x="292" 
d="M18 562c0 85 55 145 132 145c63 0 115 -40 124 -101l-36 -6c-9 48 -43 74 -88 74c-56 0 -95 -47 -95 -112s39 -112 95 -112c45 0 79 26 88 74l36 -6c-9 -61 -61 -101 -124 -101c-77 0 -132 60 -132 145z" />
    <glyph glyph-name="D.ccmp" horiz-adv-x="305" 
d="M234 668h1v136h37v-380h-36v33h-1c-17 -25 -52 -40 -88 -40c-77 0 -129 58 -129 145s52 145 129 145c36 0 68 -14 87 -39zM235 520v84c0 36 -39 70 -83 70c-59 0 -97 -44 -97 -112s38 -112 97 -112c44 0 83 34 83 70z" />
    <glyph glyph-name="E.ccmp" horiz-adv-x="296" 
d="M278 565v-16h-223c3 -63 38 -99 95 -99c41 0 68 17 89 57l30 -19c-24 -47 -64 -71 -120 -71c-80 0 -131 56 -131 145c0 42 12 77 37 104s56 41 93 41c77 0 130 -57 130 -142zM56 580h185c-1 56 -38 94 -93 94c-51 0 -87 -38 -92 -94z" />
    <glyph glyph-name="F.ccmp" horiz-adv-x="171" 
d="M52 424v243h-44v33h44v32c0 39 23 61 66 61h38v-32h-36c-21 0 -31 -10 -31 -31v-30h74v-33h-74v-243h-37z" />
    <glyph glyph-name="G.ccmp" horiz-adv-x="304" 
d="M40 370l30 16c17 -38 45 -57 84 -57c49 0 80 32 80 87v39h-1c-17 -23 -50 -38 -87 -38c-77 0 -128 58 -128 145c0 84 54 145 130 145c36 0 69 -15 86 -39h1v32h36v-282c0 -73 -46 -122 -117 -122c-53 0 -94 26 -114 74zM234 514v92c0 39 -37 68 -82 68
c-59 0 -97 -45 -97 -113c0 -67 37 -111 96 -111c45 0 83 29 83 64z" />
    <glyph glyph-name="H.ccmp" horiz-adv-x="296" 
d="M33 424v380h37v-142h1c19 28 52 45 91 45c63 0 106 -40 106 -103v-180h-36v167c0 49 -30 84 -79 84c-51 0 -83 -35 -83 -84v-167h-37z" />
    <glyph glyph-name="I.ordn" horiz-adv-x="114" 
d="M33 747v45h48v-45h-48zM39 424v276h37v-276h-37z" />
    <glyph glyph-name="J.ordn" horiz-adv-x="116" 
d="M35 747v45h48v-45h-48zM-14 338v33h24c23 0 31 7 31 30v299h37v-302c0 -43 -20 -60 -65 -60h-27z" />
    <glyph glyph-name="K.ccmp" horiz-adv-x="249" 
d="M33 424v380h37v-236h1l122 132h50l-104 -109l107 -167h-43l-87 140h-1l-45 -47v-93h-37z" />
    <glyph glyph-name="L.ccmp" horiz-adv-x="103" 
d="M33 424v380h37v-380h-37z" />
    <glyph glyph-name="M.ccmp" horiz-adv-x="439" 
d="M33 424v276h36v-32h1c17 24 45 39 76 39c37 0 71 -19 83 -47h1c16 29 48 47 85 47c56 0 96 -38 96 -94v-189h-37v185c0 40 -26 65 -65 65c-41 0 -70 -27 -70 -68v-182h-35v185c0 39 -27 65 -66 65c-40 0 -68 -28 -68 -69v-181h-37z" />
    <glyph glyph-name="N.ccmp" horiz-adv-x="296" 
d="M33 424v276h36v-39h1c19 29 53 46 92 46c63 0 106 -40 106 -103v-180h-36v167c0 49 -30 83 -79 83c-51 0 -83 -34 -83 -83v-167h-37z" />
    <glyph glyph-name="O.ordn" horiz-adv-x="305" 
d="M18 562c0 85 56 145 135 145s134 -60 134 -145s-55 -145 -134 -145s-135 60 -135 145zM250 562c0 67 -38 112 -97 112s-98 -45 -98 -112s39 -112 98 -112s97 45 97 112z" />
    <glyph glyph-name="P.ccmp" horiz-adv-x="306" 
d="M288 562c0 -87 -53 -145 -130 -145c-36 0 -70 16 -87 40h-1v-154h-37v397h36v-34h1c17 25 52 41 88 41c77 0 130 -58 130 -145zM251 562c0 68 -39 112 -98 112c-44 0 -83 -34 -83 -70v-84c0 -36 39 -70 83 -70c59 0 98 44 98 112z" />
    <glyph glyph-name="Q.ccmp" horiz-adv-x="306" 
d="M236 666h1v34h36v-397h-37v154h-1c-17 -24 -51 -40 -87 -40c-77 0 -130 58 -130 145s53 145 130 145c36 0 71 -16 88 -41zM236 520v84c0 36 -39 70 -83 70c-59 0 -98 -44 -98 -112s39 -112 98 -112c44 0 83 34 83 70z" />
    <glyph glyph-name="R.ccmp" horiz-adv-x="165" 
d="M162 701l-7 -35c-11 3 -19 4 -25 4c-39 0 -60 -27 -60 -79v-167h-37v276h35v-25h1c11 17 35 29 62 29c13 0 23 -1 31 -3z" />
    <glyph glyph-name="S.ccmp" horiz-adv-x="283" 
d="M28 517l34 8c8 -51 38 -77 89 -77c44 0 69 19 69 52c0 25 -19 38 -80 54c-73 17 -101 38 -101 77c0 45 41 76 97 76c59 0 100 -31 111 -80l-34 -9c-8 37 -36 58 -77 58c-36 0 -61 -19 -61 -44c0 -21 17 -32 74 -48c77 -20 106 -42 106 -83c0 -52 -40 -84 -104 -84
c-69 0 -114 36 -123 100z" />
    <glyph glyph-name="T.ccmp" horiz-adv-x="165" 
d="M157 667h-72v-181c0 -20 8 -27 31 -27h32v-35h-34c-45 0 -65 17 -65 60v183h-41v33h41v61h36v-61h72v-33z" />
    <glyph glyph-name="U.ccmp" horiz-adv-x="288" 
d="M219 700h36v-276h-35v37h-1c-17 -28 -49 -44 -88 -44c-67 0 -103 36 -103 107v176h37v-172c0 -53 22 -78 73 -78c48 0 81 34 81 83v167z" />
    <glyph glyph-name="V.ccmp" horiz-adv-x="288" 
d="M129 424l-116 276h40l91 -224h1l90 224h40l-115 -276h-31z" />
    <glyph glyph-name="W.ccmp" horiz-adv-x="403" 
d="M81 424l-68 276h38l54 -222h1l77 222h38l77 -222h1l54 222h37l-67 -276h-38l-83 230h-1l-82 -230h-38z" />
    <glyph glyph-name="X.ccmp" horiz-adv-x="278" 
d="M13 424l104 141l-100 135h44l78 -110h1l77 110h44l-99 -135l103 -141h-46l-79 114h-1l-80 -114h-46z" />
    <glyph glyph-name="Y.ccmp" horiz-adv-x="283" 
d="M229 700h41l-171 -397h-40l64 150l-110 247h42l87 -203h1z" />
    <glyph glyph-name="Z.ccmp" horiz-adv-x="271" 
d="M13 424v30l190 212v1h-184v33h235v-30l-190 -212v-1h194v-33h-245z" />
    <glyph glyph-name="a.salt" horiz-adv-x="571" 
d="M455 530h42v-530h-42v64h-2c-33 -47 -96 -79 -164 -79c-138 0 -235 111 -235 280s97 280 235 280c68 0 131 -32 164 -79h2v64zM453 162v206c0 71 -72 136 -162 136c-114 0 -193 -92 -193 -239s79 -239 193 -239c90 0 162 65 162 136z" />
    <glyph glyph-name="aacute.salt" horiz-adv-x="571" 
d="M455 530h42v-530h-42v64h-2c-33 -47 -96 -79 -164 -79c-138 0 -235 111 -235 280s97 280 235 280c68 0 131 -32 164 -79h2v64zM453 162v206c0 71 -72 136 -162 136c-114 0 -193 -92 -193 -239s79 -239 193 -239c90 0 162 65 162 136zM263 605l66 106h70l-92 -106h-44z
" />
    <glyph glyph-name="abreve.salt" horiz-adv-x="571" 
d="M455 530h42v-530h-42v64h-2c-33 -47 -96 -79 -164 -79c-138 0 -235 111 -235 280s97 280 235 280c68 0 131 -32 164 -79h2v64zM453 162v206c0 71 -72 136 -162 136c-114 0 -193 -92 -193 -239s79 -239 193 -239c90 0 162 65 162 136zM187 698h30c7 -37 33 -60 77 -60
s70 23 77 60h30c-3 -63 -43 -103 -107 -103s-104 40 -107 103z" />
    <glyph glyph-name="uni01CE.salt" horiz-adv-x="571" 
d="M455 530h42v-530h-42v64h-2c-33 -47 -96 -79 -164 -79c-138 0 -235 111 -235 280s97 280 235 280c68 0 131 -32 164 -79h2v64zM453 162v206c0 71 -72 136 -162 136c-114 0 -193 -92 -193 -239s79 -239 193 -239c90 0 162 65 162 136zM364 704l30 -24l-68 -85h-64l-68 85
l30 24l70 -87z" />
    <glyph glyph-name="acircumflex.salt" horiz-adv-x="571" 
d="M455 530h42v-530h-42v64h-2c-33 -47 -96 -79 -164 -79c-138 0 -235 111 -235 280s97 280 235 280c68 0 131 -32 164 -79h2v64zM453 162v206c0 71 -72 136 -162 136c-114 0 -193 -92 -193 -239s79 -239 193 -239c90 0 162 65 162 136zM394 609l-30 -24l-70 87l-70 -87
l-30 24l68 85h64z" />
    <glyph glyph-name="uni1EAD.salt" horiz-adv-x="571" 
d="M455 530h42v-530h-42v64h-2c-33 -47 -96 -79 -164 -79c-138 0 -235 111 -235 280s97 280 235 280c68 0 131 -32 164 -79h2v64zM453 162v206c0 71 -72 136 -162 136c-114 0 -193 -92 -193 -239s79 -239 193 -239c90 0 162 65 162 136zM394 609l-30 -24l-70 87l-70 -87
l-30 24l68 85h64zM256 -139v75h76v-75h-76z" />
    <glyph glyph-name="adieresis.salt" horiz-adv-x="571" 
d="M455 530h42v-530h-42v64h-2c-33 -47 -96 -79 -164 -79c-138 0 -235 111 -235 280s97 280 235 280c68 0 131 -32 164 -79h2v64zM453 162v206c0 71 -72 136 -162 136c-114 0 -193 -92 -193 -239s79 -239 193 -239c90 0 162 65 162 136zM173 595v75h76v-75h-76zM339 595v75
h76v-75h-76z" />
    <glyph glyph-name="uni01DF.salt" horiz-adv-x="571" 
d="M455 530h42v-530h-42v64h-2c-33 -47 -96 -79 -164 -79c-138 0 -235 111 -235 280s97 280 235 280c68 0 131 -32 164 -79h2v64zM453 162v206c0 71 -72 136 -162 136c-114 0 -193 -92 -193 -239s79 -239 193 -239c90 0 162 65 162 136zM173 595v75h76v-75h-76zM339 595v75
h76v-75h-76zM173 710v37h242v-37h-242z" />
    <glyph glyph-name="uni1EA1.salt" horiz-adv-x="571" 
d="M455 530h42v-530h-42v64h-2c-33 -47 -96 -79 -164 -79c-138 0 -235 111 -235 280s97 280 235 280c68 0 131 -32 164 -79h2v64zM453 162v206c0 71 -72 136 -162 136c-114 0 -193 -92 -193 -239s79 -239 193 -239c90 0 162 65 162 136zM256 -139v75h76v-75h-76z" />
    <glyph glyph-name="agrave.salt" horiz-adv-x="571" 
d="M455 530h42v-530h-42v64h-2c-33 -47 -96 -79 -164 -79c-138 0 -235 111 -235 280s97 280 235 280c68 0 131 -32 164 -79h2v64zM453 162v206c0 71 -72 136 -162 136c-114 0 -193 -92 -193 -239s79 -239 193 -239c90 0 162 65 162 136zM281 605l-92 106h71l65 -106h-44z
" />
    <glyph glyph-name="amacron.salt" horiz-adv-x="571" 
d="M455 530h42v-530h-42v64h-2c-33 -47 -96 -79 -164 -79c-138 0 -235 111 -235 280s97 280 235 280c68 0 131 -32 164 -79h2v64zM453 162v206c0 71 -72 136 -162 136c-114 0 -193 -92 -193 -239s79 -239 193 -239c90 0 162 65 162 136zM173 605v37h242v-37h-242z" />
    <glyph glyph-name="aogonek.salt" horiz-adv-x="571" 
d="M455 530h42v-530h-42v64h-2c-33 -47 -96 -79 -164 -79c-138 0 -235 111 -235 280s97 280 235 280c68 0 131 -32 164 -79h2v64zM453 162v206c0 71 -72 136 -162 136c-114 0 -193 -92 -193 -239s79 -239 193 -239c90 0 162 65 162 136zM370 -113c0 43 40 91 101 124l24 -11
c-57 -32 -85 -67 -85 -105c0 -25 14 -38 42 -38c19 0 38 7 59 20l17 -35c-24 -16 -51 -24 -81 -24c-49 0 -77 24 -77 69z" />
    <glyph glyph-name="aring.salt" horiz-adv-x="577" 
d="M189 676c0 55 43 96 100 96c59 0 101 -41 101 -96c0 -56 -42 -96 -101 -96s-100 40 -100 96zM357 676c0 39 -29 68 -68 68s-67 -29 -67 -68s28 -68 67 -68s68 29 68 68zM455 530h42v-530h-42v64h-2c-33 -47 -96 -79 -164 -79c-138 0 -235 111 -235 280s97 280 235 280
c68 0 131 -32 164 -79h2v64zM453 162v206c0 71 -72 136 -162 136c-114 0 -193 -92 -193 -239s79 -239 193 -239c90 0 162 65 162 136z" />
    <glyph glyph-name="aringacute.salt" horiz-adv-x="571" 
d="M189 676c0 47 30 83 77 94l58 93h70l-81 -93c47 -11 77 -47 77 -94c0 -56 -42 -96 -101 -96s-100 40 -100 96zM222 676c0 -39 28 -68 67 -68s68 29 68 68s-29 68 -68 68s-67 -29 -67 -68zM455 530h42v-530h-42v64h-2c-33 -47 -96 -79 -164 -79c-138 0 -235 111 -235 280
s97 280 235 280c68 0 131 -32 164 -79h2v64zM453 162v206c0 71 -72 136 -162 136c-114 0 -193 -92 -193 -239s79 -239 193 -239c90 0 162 65 162 136z" />
    <glyph glyph-name="atilde.salt" horiz-adv-x="571" 
d="M455 530h42v-530h-42v64h-2c-33 -47 -96 -79 -164 -79c-138 0 -235 111 -235 280s97 280 235 280c68 0 131 -32 164 -79h2v64zM453 162v206c0 71 -72 136 -162 136c-114 0 -193 -92 -193 -239s79 -239 193 -239c90 0 162 65 162 136zM287 623c-25 13 -37 20 -53 20
c-20 0 -32 -13 -36 -38h-29c3 47 28 75 68 75c21 0 36 -7 65 -23c21 -13 39 -19 52 -19c21 0 34 12 37 37h28c-3 -47 -28 -75 -67 -75c-23 0 -40 8 -65 23z" />
    <glyph glyph-name="aring.ss02" horiz-adv-x="509" 
d="M54 130c0 88 53 134 193 169c109 27 146 54 146 103c0 64 -48 102 -131 102c-87 0 -148 -51 -160 -135l-44 8c13 103 94 168 205 168c109 0 177 -58 177 -153v-392h-42v78h-2c-27 -55 -99 -93 -175 -93c-104 0 -167 54 -167 145zM396 170v162h-2
c-15 -31 -51 -50 -134 -71c-119 -31 -162 -65 -162 -129c0 -67 46 -106 126 -106c97 0 172 63 172 144zM155 618c0 59 45 103 108 103s108 -44 108 -103c0 -60 -45 -103 -108 -103s-108 43 -108 103zM336 618c0 43 -32 73 -73 73c-43 0 -73 -30 -73 -73c0 -41 30 -73 73 -73
c41 0 73 32 73 73z" />
    <glyph glyph-name="aringacute.ss02" horiz-adv-x="509" 
d="M54 130c0 88 53 134 193 169c109 27 146 54 146 103c0 64 -48 102 -131 102c-87 0 -148 -51 -160 -135l-44 8c13 103 94 168 205 168c109 0 177 -58 177 -153v-392h-42v78h-2c-27 -55 -99 -93 -175 -93c-104 0 -167 54 -167 145zM396 170v162h-2
c-15 -31 -51 -50 -134 -71c-119 -31 -162 -65 -162 -129c0 -67 46 -106 126 -106c97 0 172 63 172 144zM155 618c0 59 45 103 108 103s108 -44 108 -103c0 -60 -45 -103 -108 -103s-108 43 -108 103zM336 618c0 43 -32 73 -73 73c-43 0 -73 -30 -73 -73c0 -41 30 -73 73 -73
c41 0 73 32 73 73zM232 711l66 106h70l-92 -106h-44z" />
    <glyph glyph-name="f.ss03" horiz-adv-x="283" 
d="M111 0v490h-88v40h88v63c0 64 37 100 104 100h67v-41h-63c-44 0 -64 -20 -64 -65v-57h108v-40h-108v-490h-44z" />
    <glyph glyph-name="j.ss03" horiz-adv-x="192" 
d="M63 625v64h66v-64h-66zM75 -225v755h44v-755h-44z" />
    <glyph glyph-name="t.ss03" horiz-adv-x="292" 
d="M265 490h-122v-396c0 -37 15 -53 58 -53h41v-41h-43c-72 0 -100 27 -100 95v395h-76v40h76v113h44v-113h122v-40z" />
    <glyph glyph-name="ordfeminine" unicode="&#xaa;" horiz-adv-x="268" 
d="M19 493c0 47 31 72 107 89c53 13 72 24 72 47c0 31 -22 47 -63 47c-44 0 -74 -25 -79 -66l-36 5c8 55 54 92 115 92s100 -33 100 -85v-198h-33v36h-1c-16 -27 -52 -43 -92 -43c-55 0 -90 29 -90 76zM199 516v71h-1c-7 -15 -25 -22 -66 -33c-56 -13 -77 -30 -77 -59
s21 -46 60 -46c47 0 84 30 84 67z" />
    <glyph glyph-name="ordmasculine" unicode="&#xba;" horiz-adv-x="305" 
d="M18 562c0 85 56 145 135 145s134 -60 134 -145s-55 -145 -134 -145s-135 60 -135 145zM250 562c0 67 -38 112 -97 112s-98 -45 -98 -112s39 -112 98 -112s97 45 97 112z" />
    <glyph glyph-name="uni0394" unicode="&#x394;" horiz-adv-x="576" 
d="M312 700l259 -700h-566l260 700h47zM69 42h439l-219 596h-2z" />
    <glyph glyph-name="uni03A9" unicode="&#x3a9;" horiz-adv-x="684" 
d="M462 42v-2h166v-40h-242v41c113 21 205 164 203 319c0 187 -100 311 -247 311c-149 0 -247 -124 -247 -311c-2 -155 89 -298 202 -319v-41h-242v40h166v2c-101 42 -173 173 -173 318c0 210 120 355 294 355c171 3 296 -147 294 -355c0 -144 -72 -276 -174 -318z" />
    <glyph glyph-name="uni03BC" unicode="&#x3bc;" horiz-adv-x="551" 
d="M433 530h44v-530h-43v76h-2c-31 -57 -93 -91 -165 -91c-69 0 -118 25 -147 74h-2v-284h-44v755h44v-342c0 -105 53 -162 153 -162c47 0 86 15 116 45c31 31 46 70 46 117v342z" />
    <glyph glyph-name="pi" unicode="&#x3c0;" horiz-adv-x="638" 
d="M589 489h-99v-391c0 -41 15 -57 58 -57h41v-41h-47c-67 0 -96 29 -96 94v395h-274v-489h-44v489h-105v41h566v-41z" />
    <glyph glyph-name="zero" unicode="0" horiz-adv-x="639" 
d="M48 336c0 215 110 350 272 350c161 0 271 -135 271 -350s-110 -350 -271 -350c-162 0 -272 135 -272 350zM547 336c0 192 -92 309 -227 309c-136 0 -228 -117 -228 -309s92 -309 228 -309c135 0 227 117 227 309z" />
    <glyph glyph-name="one" unicode="1" horiz-adv-x="352" 
d="M199 0v621l-164 -104v47l168 108h40v-672h-44z" />
    <glyph glyph-name="two" unicode="2" horiz-adv-x="600" 
d="M118 41h410v-41h-455v42c0 69 8 108 27 140c13 22 32 42 59 60s73 43 140 75c145 70 190 113 190 189c0 83 -69 139 -173 139c-120 0 -198 -71 -205 -184l-44 3c6 134 107 222 249 222c126 0 217 -76 217 -180c0 -94 -51 -146 -206 -220c-66 -31 -111 -55 -135 -71
s-42 -33 -53 -52c-15 -25 -20 -53 -21 -122z" />
    <glyph glyph-name="three" unicode="3" horiz-adv-x="592" 
d="M57 217l44 6c5 -129 76 -196 199 -196c111 0 181 60 181 156c0 109 -67 159 -202 159h-34v40h34c108 0 181 55 181 134s-62 129 -159 129c-100 0 -170 -53 -183 -145l-44 6c17 111 104 180 227 180c60 0 109 -15 146 -46c38 -31 57 -71 57 -122c0 -73 -44 -126 -124 -151
v-2c89 -21 145 -83 145 -182c0 -120 -89 -197 -225 -197c-148 0 -236 83 -243 231z" />
    <glyph glyph-name="four" unicode="4" horiz-adv-x="563" 
d="M382 0v141h-366v39l342 492h68v-491h95v-40h-95v-141h-44zM63 181h319v456h-2z" />
    <glyph glyph-name="five" unicode="5" horiz-adv-x="577" 
d="M46 173l42 10c19 -100 90 -156 203 -156c118 0 201 79 201 198c0 116 -78 192 -201 192c-79 0 -144 -32 -189 -88l-39 10l69 333h348v-41h-314l-51 -240l2 -1c45 43 107 67 178 67c141 0 241 -94 241 -231c0 -144 -101 -240 -245 -240c-135 0 -222 70 -245 187z" />
    <glyph glyph-name="six" unicode="6" horiz-adv-x="599" 
d="M561 219c0 -144 -98 -233 -237 -233c-172 0 -276 128 -276 338c0 216 118 362 279 362c115 0 197 -65 221 -174l-42 -9c-24 93 -86 142 -178 142c-134 0 -234 -127 -234 -321c0 -7 1 -18 2 -31h2c13 47 41 84 82 112c42 29 90 43 143 43c141 0 238 -92 238 -229zM517 219
c0 57 -18 103 -55 137c-36 35 -83 52 -142 52c-108 0 -199 -81 -199 -189c0 -112 80 -192 203 -192c115 0 193 72 193 192z" />
    <glyph glyph-name="seven" unicode="7" horiz-adv-x="506" 
d="M109 0l305 629v2h-393v41h443v-39l-306 -633h-49z" />
    <glyph glyph-name="eight" unicode="8" horiz-adv-x="566" 
d="M31 180c0 87 58 154 154 181v2c-76 28 -114 77 -114 150c0 96 89 173 212 173s212 -77 212 -173c0 -71 -38 -121 -114 -150v-2c95 -28 154 -94 154 -181c0 -116 -102 -195 -252 -195s-252 79 -252 195zM452 511c0 77 -70 135 -169 135s-168 -58 -168 -135
c0 -80 65 -131 168 -131s169 51 169 131zM490 182c0 91 -87 157 -207 157c-123 0 -207 -65 -207 -157c0 -95 82 -155 207 -155s207 62 207 155z" />
    <glyph glyph-name="nine" unicode="9" horiz-adv-x="582" 
d="M534 370c0 -261 -81 -385 -250 -385c-111 0 -193 65 -214 170l43 12c21 -92 82 -139 171 -139c136 0 202 99 203 314c1 13 0 30 0 37h-2c-21 -88 -100 -144 -212 -144c-73 0 -130 20 -172 61s-63 97 -63 166c0 132 98 224 237 224c163 0 259 -113 259 -316zM468 460
c0 111 -77 183 -193 183s-191 -72 -191 -181c0 -115 72 -186 191 -186c117 0 193 72 193 184z" />
    <glyph glyph-name="zero.ccmp" horiz-adv-x="639" 
d="M48 350c0 223 110 365 272 365c161 0 271 -142 271 -365s-110 -365 -271 -365c-162 0 -272 142 -272 365zM545 350c0 199 -90 321 -225 321s-225 -122 -225 -321s90 -321 225 -321s225 122 225 321z" />
    <glyph glyph-name="one.ccmp" horiz-adv-x="354" 
d="M198 0v647l-163 -108v49l168 112h42v-700h-47z" />
    <glyph glyph-name="two.ccmp" horiz-adv-x="602" 
d="M121 44h407v-44h-455v44c0 72 8 112 27 145c13 23 32 44 59 63s74 45 139 78c145 74 190 118 190 197c0 85 -69 144 -172 144c-119 0 -197 -74 -202 -191l-47 4c6 139 107 231 249 231c127 0 219 -79 219 -188c0 -96 -53 -153 -207 -230c-66 -33 -111 -57 -135 -74
c-23 -17 -40 -35 -51 -54c-15 -25 -20 -53 -21 -125z" />
    <glyph glyph-name="three.ccmp" horiz-adv-x="594" 
d="M57 226l46 7c7 -136 76 -204 197 -204c111 0 181 61 181 161c0 113 -68 167 -201 167h-35v41h35c107 0 180 57 180 140c0 81 -62 134 -158 134c-100 0 -167 -56 -182 -152l-46 7c17 116 105 188 228 188c60 0 109 -16 147 -48s57 -74 57 -127c0 -75 -44 -131 -123 -158
v-2c89 -21 144 -87 144 -190c0 -125 -90 -205 -227 -205c-147 0 -235 86 -243 241z" />
    <glyph glyph-name="four.ccmp" horiz-adv-x="564" 
d="M381 0v148h-365v40l340 512h72v-511h94v-41h-94v-148h-47zM65 189h317v474h-2z" />
    <glyph glyph-name="five.ccmp" horiz-adv-x="581" 
d="M46 180l45 10c19 -104 89 -162 201 -162c120 0 201 83 201 206c0 61 -18 109 -55 146c-36 37 -85 55 -146 55c-76 0 -142 -33 -187 -92l-40 10l68 347h349v-43h-313l-51 -249l2 -1c45 44 107 69 178 69c141 0 242 -97 242 -241c0 -150 -102 -250 -248 -250
c-135 0 -223 72 -246 195z" />
    <glyph glyph-name="six.ccmp" horiz-adv-x="600" 
d="M562 228c0 -149 -99 -243 -237 -243c-174 0 -277 133 -277 353c0 224 118 377 279 377c115 0 198 -68 222 -181l-44 -11c-21 99 -84 148 -176 148c-134 0 -234 -132 -234 -332v-29h1c15 47 44 84 86 113c43 29 90 43 143 43c139 0 237 -95 237 -238zM516 228
c0 60 -18 108 -54 143c-35 35 -82 53 -139 53c-113 0 -201 -84 -201 -196c0 -115 80 -199 203 -199c113 0 191 75 191 199z" />
    <glyph glyph-name="seven.ccmp" horiz-adv-x="506" 
d="M108 0l304 654v2h-391v44h443v-41l-304 -659h-52z" />
    <glyph glyph-name="eight.ccmp" horiz-adv-x="566" 
d="M31 188c0 91 57 161 152 189v2c-75 29 -112 81 -112 156c0 100 89 180 212 180s213 -80 213 -180c0 -75 -38 -127 -113 -156v-2c95 -28 152 -98 152 -189c0 -121 -99 -203 -252 -203c-150 0 -252 83 -252 203zM450 533c0 79 -68 139 -167 139c-97 0 -166 -60 -166 -139
c0 -84 65 -136 166 -136c103 0 167 52 167 136zM488 191c0 96 -85 162 -205 162s-205 -67 -205 -162c0 -97 81 -161 205 -161c125 0 205 62 205 161z" />
    <glyph glyph-name="nine.ccmp" horiz-adv-x="582" 
d="M534 386c0 -273 -79 -401 -250 -401c-111 0 -193 67 -214 178l44 11c21 -96 81 -145 170 -145c137 0 201 105 202 337v6h-2c-31 -75 -103 -126 -211 -126c-145 0 -235 91 -235 235c0 138 98 234 237 234c163 0 259 -117 259 -329zM468 479c0 116 -77 192 -193 192
c-115 0 -191 -75 -191 -190c0 -120 72 -194 191 -194c117 0 193 75 193 192z" />
    <glyph glyph-name="zero.tnum" 
d="M53 350c0 223 110 365 272 365s272 -142 272 -365s-110 -365 -272 -365s-272 142 -272 365zM550 350c0 199 -90 321 -225 321s-225 -122 -225 -321s90 -321 225 -321s225 122 225 321z" />
    <glyph glyph-name="one.tnum" 
d="M351 43h163v-43h-378v43h168v604l-163 -108v49l168 112h42v-657z" />
    <glyph glyph-name="two.tnum" 
d="M145 44h407v-44h-455v44c0 72 8 112 27 145c13 23 32 44 59 63s74 45 139 78c145 74 190 118 190 197c0 85 -69 144 -172 144c-119 0 -197 -74 -202 -191l-47 4c6 139 107 231 249 231c127 0 219 -79 219 -188c0 -96 -53 -153 -207 -230c-66 -33 -111 -57 -135 -74
c-23 -17 -40 -35 -51 -54c-15 -25 -20 -53 -21 -125z" />
    <glyph glyph-name="three.tnum" 
d="M90 226l46 7c7 -136 76 -204 197 -204c111 0 181 61 181 161c0 113 -68 167 -201 167h-35v41h35c107 0 180 57 180 140c0 81 -62 134 -158 134c-100 0 -167 -56 -182 -152l-46 7c17 116 105 188 228 188c60 0 109 -16 147 -48s57 -74 57 -127c0 -75 -44 -131 -123 -158
v-2c89 -21 144 -87 144 -190c0 -125 -90 -205 -227 -205c-147 0 -235 86 -243 241z" />
    <glyph glyph-name="four.tnum" 
d="M436 0v148h-365v40l340 512h72v-511h94v-41h-94v-148h-47zM120 189h317v474h-2z" />
    <glyph glyph-name="five.tnum" 
d="M78 180l45 10c19 -104 89 -162 201 -162c120 0 201 83 201 206c0 61 -18 109 -55 146c-36 37 -85 55 -146 55c-76 0 -142 -33 -187 -92l-40 10l68 347h349v-43h-313l-51 -249l2 -1c45 44 107 69 178 69c141 0 242 -97 242 -241c0 -150 -102 -250 -248 -250
c-135 0 -223 72 -246 195z" />
    <glyph glyph-name="six.tnum" 
d="M583 228c0 -149 -99 -243 -237 -243c-174 0 -277 133 -277 353c0 224 118 377 279 377c115 0 198 -68 222 -181l-44 -11c-21 99 -84 148 -176 148c-134 0 -234 -132 -234 -332v-29h1c15 47 44 84 86 113c43 29 90 43 143 43c139 0 237 -95 237 -238zM537 228
c0 60 -18 108 -54 143c-35 35 -82 53 -139 53c-113 0 -201 -84 -201 -196c0 -115 80 -199 203 -199c113 0 191 75 191 199z" />
    <glyph glyph-name="seven.tnum" 
d="M190 0l304 654v2h-391v44h443v-41l-304 -659h-52z" />
    <glyph glyph-name="eight.tnum" 
d="M73 188c0 91 57 161 152 189v2c-75 29 -112 81 -112 156c0 100 89 180 212 180s213 -80 213 -180c0 -75 -38 -127 -113 -156v-2c95 -28 152 -98 152 -189c0 -121 -99 -203 -252 -203c-150 0 -252 83 -252 203zM492 533c0 79 -68 139 -167 139c-97 0 -166 -60 -166 -139
c0 -84 65 -136 166 -136c103 0 167 52 167 136zM530 191c0 96 -85 162 -205 162s-205 -67 -205 -162c0 -97 81 -161 205 -161c125 0 205 62 205 161z" />
    <glyph glyph-name="nine.tnum" 
d="M575 386c0 -273 -79 -401 -250 -401c-111 0 -193 67 -214 178l44 11c21 -96 81 -145 170 -145c137 0 201 105 202 337v6h-2c-31 -75 -103 -126 -211 -126c-145 0 -235 91 -235 235c0 138 98 234 237 234c163 0 259 -117 259 -329zM509 479c0 116 -77 192 -193 192
c-115 0 -191 -75 -191 -190c0 -120 72 -194 191 -194c117 0 193 75 193 192z" />
    <glyph glyph-name="zero.zero" horiz-adv-x="639" 
d="M591 336c0 -215 -110 -350 -271 -350c-162 0 -272 135 -272 350s110 350 272 350c161 0 271 -135 271 -350zM176 83l253 533c-32 20 -68 30 -109 30c-137 0 -229 -117 -229 -310c0 -112 30 -200 85 -253zM548 336c0 115 -33 205 -90 258l-253 -535c33 -22 72 -33 115 -33
c135 0 228 118 228 310z" />
    <glyph glyph-name="zero.ordn" horiz-adv-x="639" 
d="M591 350c0 -223 -110 -365 -271 -365c-162 0 -272 142 -272 365s110 365 272 365c161 0 271 -142 271 -365zM176 88l259 549c-35 24 -73 36 -115 36c-137 0 -227 -123 -227 -323c0 -115 30 -206 83 -262zM546 350c0 116 -29 205 -82 261l-259 -548c32 -24 70 -36 115 -36
c135 0 226 124 226 323z" />
    <glyph glyph-name="zero.tnum_zero" 
d="M596 350c0 -223 -110 -365 -271 -365c-162 0 -272 142 -272 365s110 365 272 365c161 0 271 -142 271 -365zM181 88l259 549c-35 24 -73 36 -115 36c-137 0 -227 -123 -227 -323c0 -115 30 -206 83 -262zM551 350c0 116 -29 205 -82 261l-259 -548c32 -24 70 -36 115 -36
c135 0 226 124 226 323z" />
    <glyph glyph-name="zero.subs" horiz-adv-x="399" 
d="M33 61c0 135 63 219 166 219s167 -84 167 -219s-64 -219 -167 -219s-166 84 -166 219zM325 61c0 115 -46 182 -126 182c-79 0 -125 -67 -125 -182s46 -182 125 -182c80 0 126 67 126 182z" />
    <glyph glyph-name="one.subs" horiz-adv-x="249" 
d="M132 -149v375l-104 -64v42l107 67h38v-420h-41z" />
    <glyph glyph-name="two.subs" horiz-adv-x="362" 
d="M79 -112h248v-37h-291v34c0 44 7 70 20 91c19 25 46 43 122 78c84 39 110 66 110 109c0 48 -39 80 -98 80c-68 0 -113 -39 -116 -106l-41 2c4 85 66 141 157 141c81 0 139 -49 139 -117c0 -29 -9 -54 -28 -74c-18 -20 -50 -41 -97 -64c-40 -19 -67 -32 -82 -41
c-14 -9 -24 -18 -30 -27c-9 -16 -12 -28 -13 -69z" />
    <glyph glyph-name="three.subs" horiz-adv-x="360" 
d="M28 -12l40 5c4 -75 42 -113 115 -113c64 0 103 33 103 88c0 59 -38 89 -113 89h-26v34h23c63 0 102 30 102 78c0 44 -36 74 -91 74c-57 0 -95 -29 -104 -85l-40 7c12 72 65 115 144 115c76 0 132 -44 132 -108c0 -41 -22 -72 -65 -93v-1c53 -18 79 -55 79 -112
c0 -75 -57 -124 -144 -124c-95 0 -151 53 -155 146z" />
    <glyph glyph-name="four.subs" horiz-adv-x="354" 
d="M237 -149v85h-227v37l203 298h65v-298h58v-37h-58v-85h-41zM53 -27h184v268h-1z" />
    <glyph glyph-name="five.subs" horiz-adv-x="378" 
d="M33 -42l38 12c11 -59 53 -91 118 -91c68 0 115 45 115 112s-46 110 -115 110c-44 0 -81 -19 -109 -51l-36 10l42 211h221v-38h-190l-28 -134l1 -1c29 25 63 37 104 37c89 0 151 -58 151 -143c0 -89 -64 -150 -156 -150c-83 0 -141 44 -156 116z" />
    <glyph glyph-name="six.subs" horiz-adv-x="390" 
d="M357 -11c0 -89 -60 -147 -151 -147c-109 0 -173 79 -173 214c0 132 73 224 175 224c72 0 124 -40 140 -108l-38 -9c-15 53 -49 80 -102 80c-80 0 -132 -71 -132 -183v-10c21 49 73 81 133 81c87 0 148 -58 148 -142zM315 -11c0 67 -42 109 -109 109
c-64 0 -114 -46 -114 -109c0 -65 43 -110 114 -110c67 0 109 42 109 110z" />
    <glyph glyph-name="seven.subs" horiz-adv-x="288" 
d="M53 -149l184 381v1h-237v38h283v-35l-183 -385h-47z" />
    <glyph glyph-name="eight.subs" horiz-adv-x="386" 
d="M33 -35c0 53 34 95 89 114v1c-40 16 -65 46 -65 89c0 65 56 111 136 111s136 -46 136 -111c0 -43 -24 -73 -64 -89v-1c53 -19 88 -61 88 -114c0 -75 -63 -123 -160 -123s-160 48 -160 123zM291 167c0 47 -41 79 -98 79s-97 -32 -97 -79c0 -45 38 -74 97 -74
c60 0 98 29 98 74zM313 -31c0 53 -49 90 -120 90s-119 -37 -119 -90c0 -55 47 -90 119 -90c73 0 120 35 120 90z" />
    <glyph glyph-name="nine.subs" horiz-adv-x="381" 
d="M348 78c0 -157 -53 -236 -158 -236c-73 0 -125 41 -140 108l39 10c12 -52 46 -81 101 -81c77 0 116 62 116 185c-21 -43 -66 -66 -123 -66c-92 0 -150 55 -150 140c0 83 61 142 150 142c104 0 165 -74 165 -202zM294 138c0 63 -44 105 -111 105c-65 0 -109 -44 -109 -105
c0 -65 42 -105 110 -105s110 41 110 105z" />
    <glyph glyph-name="zero.dnom" horiz-adv-x="399" 
d="M33 210c0 135 63 219 166 219s167 -84 167 -219s-64 -219 -167 -219s-166 84 -166 219zM325 210c0 115 -46 182 -126 182c-79 0 -125 -67 -125 -182s46 -182 125 -182c80 0 126 67 126 182z" />
    <glyph glyph-name="one.dnom" horiz-adv-x="249" 
d="M132 0v375l-104 -64v42l107 67h38v-420h-41z" />
    <glyph glyph-name="two.dnom" horiz-adv-x="362" 
d="M79 37h248v-37h-291v34c0 44 7 70 20 91c19 25 46 43 122 78c84 39 110 66 110 109c0 48 -39 80 -98 80c-68 0 -113 -39 -116 -106l-41 2c4 85 66 141 157 141c81 0 139 -49 139 -117c0 -29 -9 -54 -28 -74c-18 -20 -50 -41 -97 -64c-40 -19 -67 -32 -82 -41
c-14 -9 -24 -18 -30 -27c-9 -16 -12 -28 -13 -69z" />
    <glyph glyph-name="three.dnom" horiz-adv-x="360" 
d="M28 137l40 5c4 -75 42 -113 115 -113c64 0 103 33 103 88c0 59 -38 89 -113 89h-26v34h23c63 0 102 30 102 78c0 44 -36 74 -91 74c-57 0 -95 -29 -104 -85l-40 7c12 72 65 115 144 115c76 0 132 -44 132 -108c0 -41 -22 -72 -65 -93v-1c53 -18 79 -55 79 -112
c0 -75 -57 -124 -144 -124c-95 0 -151 53 -155 146z" />
    <glyph glyph-name="four.dnom" horiz-adv-x="354" 
d="M237 0v85h-227v37l203 298h65v-298h58v-37h-58v-85h-41zM53 122h184v268h-1z" />
    <glyph glyph-name="five.dnom" horiz-adv-x="378" 
d="M33 107l38 12c11 -59 53 -91 118 -91c68 0 115 45 115 112s-46 110 -115 110c-44 0 -81 -19 -109 -51l-36 10l42 211h221v-38h-190l-28 -134l1 -1c29 25 63 37 104 37c89 0 151 -58 151 -143c0 -89 -64 -150 -156 -150c-83 0 -141 44 -156 116z" />
    <glyph glyph-name="six.dnom" horiz-adv-x="390" 
d="M357 138c0 -89 -60 -147 -151 -147c-109 0 -173 79 -173 214c0 132 73 224 175 224c72 0 124 -40 140 -108l-38 -9c-15 53 -49 80 -102 80c-80 0 -132 -71 -132 -183v-10c21 49 73 81 133 81c87 0 148 -58 148 -142zM315 138c0 67 -42 109 -109 109
c-64 0 -114 -46 -114 -109c0 -65 43 -110 114 -110c67 0 109 42 109 110z" />
    <glyph glyph-name="seven.dnom" horiz-adv-x="288" 
d="M53 0l184 381v1h-237v38h283v-35l-183 -385h-47z" />
    <glyph glyph-name="eight.dnom" horiz-adv-x="386" 
d="M33 114c0 53 34 95 89 114v1c-40 16 -65 46 -65 89c0 65 56 111 136 111s136 -46 136 -111c0 -43 -24 -73 -64 -89v-1c53 -19 88 -61 88 -114c0 -75 -63 -123 -160 -123s-160 48 -160 123zM291 316c0 47 -41 79 -98 79s-97 -32 -97 -79c0 -45 38 -74 97 -74
c60 0 98 29 98 74zM313 118c0 53 -49 90 -120 90s-119 -37 -119 -90c0 -55 47 -90 119 -90c73 0 120 35 120 90z" />
    <glyph glyph-name="nine.dnom" horiz-adv-x="381" 
d="M348 227c0 -157 -53 -236 -158 -236c-73 0 -125 41 -140 108l39 10c12 -52 46 -81 101 -81c77 0 116 62 116 185c-21 -43 -66 -66 -123 -66c-92 0 -150 55 -150 140c0 83 61 142 150 142c104 0 165 -74 165 -202zM294 287c0 63 -44 105 -111 105
c-65 0 -109 -44 -109 -105c0 -65 42 -105 110 -105s110 41 110 105z" />
    <glyph glyph-name="zero.numr" horiz-adv-x="399" 
d="M33 490c0 135 63 219 166 219s167 -84 167 -219s-64 -219 -167 -219s-166 84 -166 219zM325 490c0 115 -46 182 -126 182c-79 0 -125 -67 -125 -182s46 -182 125 -182c80 0 126 67 126 182z" />
    <glyph glyph-name="one.numr" horiz-adv-x="249" 
d="M132 280v375l-104 -64v42l107 67h38v-420h-41z" />
    <glyph glyph-name="two.numr" horiz-adv-x="362" 
d="M79 317h248v-37h-291v34c0 44 7 70 20 91c19 25 46 43 122 78c84 39 110 66 110 109c0 48 -39 80 -98 80c-68 0 -113 -39 -116 -106l-41 2c4 85 66 141 157 141c81 0 139 -49 139 -117c0 -29 -9 -54 -28 -74c-18 -20 -50 -41 -97 -64c-40 -19 -67 -32 -82 -41
c-14 -9 -24 -18 -30 -27c-9 -16 -12 -28 -13 -69z" />
    <glyph glyph-name="three.numr" horiz-adv-x="360" 
d="M28 417l40 5c4 -75 42 -113 115 -113c64 0 103 33 103 88c0 59 -38 89 -113 89h-26v34h23c63 0 102 30 102 78c0 44 -36 74 -91 74c-57 0 -95 -29 -104 -85l-40 7c12 72 65 115 144 115c76 0 132 -44 132 -108c0 -41 -22 -72 -65 -93v-1c53 -18 79 -55 79 -112
c0 -75 -57 -124 -144 -124c-95 0 -151 53 -155 146z" />
    <glyph glyph-name="four.numr" horiz-adv-x="354" 
d="M237 280v85h-227v37l203 298h65v-298h58v-37h-58v-85h-41zM53 402h184v268h-1z" />
    <glyph glyph-name="five.numr" horiz-adv-x="378" 
d="M33 387l38 12c11 -59 53 -91 118 -91c68 0 115 45 115 112s-46 110 -115 110c-44 0 -81 -19 -109 -51l-36 10l42 211h221v-38h-190l-28 -134l1 -1c29 25 63 37 104 37c89 0 151 -58 151 -143c0 -89 -64 -150 -156 -150c-83 0 -141 44 -156 116z" />
    <glyph glyph-name="six.numr" horiz-adv-x="390" 
d="M357 418c0 -89 -60 -147 -151 -147c-109 0 -173 79 -173 214c0 132 73 224 175 224c72 0 124 -40 140 -108l-38 -9c-15 53 -49 80 -102 80c-80 0 -132 -71 -132 -183v-10c21 49 73 81 133 81c87 0 148 -58 148 -142zM315 418c0 67 -42 109 -109 109
c-64 0 -114 -46 -114 -109c0 -65 43 -110 114 -110c67 0 109 42 109 110z" />
    <glyph glyph-name="seven.numr" horiz-adv-x="288" 
d="M53 280l184 381v1h-237v38h283v-35l-183 -385h-47z" />
    <glyph glyph-name="eight.numr" horiz-adv-x="386" 
d="M33 394c0 53 34 95 89 114v1c-40 16 -65 46 -65 89c0 65 56 111 136 111s136 -46 136 -111c0 -43 -24 -73 -64 -89v-1c53 -19 88 -61 88 -114c0 -75 -63 -123 -160 -123s-160 48 -160 123zM291 596c0 47 -41 79 -98 79s-97 -32 -97 -79c0 -45 38 -74 97 -74
c60 0 98 29 98 74zM313 398c0 53 -49 90 -120 90s-119 -37 -119 -90c0 -55 47 -90 119 -90c73 0 120 35 120 90z" />
    <glyph glyph-name="nine.numr" horiz-adv-x="381" 
d="M348 507c0 -157 -53 -236 -158 -236c-73 0 -125 41 -140 108l39 10c12 -52 46 -81 101 -81c77 0 116 62 116 185c-21 -43 -66 -66 -123 -66c-92 0 -150 55 -150 140c0 83 61 142 150 142c104 0 165 -74 165 -202zM294 567c0 63 -44 105 -111 105
c-65 0 -109 -44 -109 -105c0 -65 42 -105 110 -105s110 41 110 105z" />
    <glyph glyph-name="zero.sups" horiz-adv-x="399" 
d="M33 590c0 135 63 219 166 219s167 -84 167 -219s-64 -219 -167 -219s-166 84 -166 219zM325 590c0 115 -46 182 -126 182c-79 0 -125 -67 -125 -182s46 -182 125 -182c80 0 126 67 126 182z" />
    <glyph glyph-name="one.sups" horiz-adv-x="249" 
d="M132 380v375l-104 -64v42l107 67h38v-420h-41z" />
    <glyph glyph-name="two.sups" horiz-adv-x="362" 
d="M79 417h248v-37h-291v34c0 44 7 70 20 91c19 25 46 43 122 78c84 39 110 66 110 109c0 48 -39 80 -98 80c-68 0 -113 -39 -116 -106l-41 2c4 85 66 141 157 141c81 0 139 -49 139 -117c0 -29 -9 -54 -28 -74c-18 -20 -50 -41 -97 -64c-40 -19 -67 -32 -82 -41
c-14 -9 -24 -18 -30 -27c-9 -16 -12 -28 -13 -69z" />
    <glyph glyph-name="three.sups" horiz-adv-x="360" 
d="M28 517l40 5c4 -75 42 -113 115 -113c64 0 103 33 103 88c0 59 -38 89 -113 89h-26v34h23c63 0 102 30 102 78c0 44 -36 74 -91 74c-57 0 -95 -29 -104 -85l-40 7c12 72 65 115 144 115c76 0 132 -44 132 -108c0 -41 -22 -72 -65 -93v-1c53 -18 79 -55 79 -112
c0 -75 -57 -124 -144 -124c-95 0 -151 53 -155 146z" />
    <glyph glyph-name="four.sups" horiz-adv-x="354" 
d="M237 380v85h-227v37l203 298h65v-298h58v-37h-58v-85h-41zM53 502h184v268h-1z" />
    <glyph glyph-name="five.sups" horiz-adv-x="378" 
d="M33 487l38 12c11 -59 53 -91 118 -91c68 0 115 45 115 112s-46 110 -115 110c-44 0 -81 -19 -109 -51l-36 10l42 211h221v-38h-190l-28 -134l1 -1c29 25 63 37 104 37c89 0 151 -58 151 -143c0 -89 -64 -150 -156 -150c-83 0 -141 44 -156 116z" />
    <glyph glyph-name="six.sups" horiz-adv-x="390" 
d="M357 518c0 -89 -60 -147 -151 -147c-109 0 -173 79 -173 214c0 132 73 224 175 224c72 0 124 -40 140 -108l-38 -9c-15 53 -49 80 -102 80c-80 0 -132 -71 -132 -183v-10c21 49 73 81 133 81c87 0 148 -58 148 -142zM315 518c0 67 -42 109 -109 109
c-64 0 -114 -46 -114 -109c0 -65 43 -110 114 -110c67 0 109 42 109 110z" />
    <glyph glyph-name="seven.sups" horiz-adv-x="288" 
d="M53 380l184 381v1h-237v38h283v-35l-183 -385h-47z" />
    <glyph glyph-name="eight.sups" horiz-adv-x="386" 
d="M33 494c0 53 34 95 89 114v1c-40 16 -65 46 -65 89c0 65 56 111 136 111s136 -46 136 -111c0 -43 -24 -73 -64 -89v-1c53 -19 88 -61 88 -114c0 -75 -63 -123 -160 -123s-160 48 -160 123zM291 696c0 47 -41 79 -98 79s-97 -32 -97 -79c0 -45 38 -74 97 -74
c60 0 98 29 98 74zM313 498c0 53 -49 90 -120 90s-119 -37 -119 -90c0 -55 47 -90 119 -90c73 0 120 35 120 90z" />
    <glyph glyph-name="nine.sups" horiz-adv-x="381" 
d="M348 607c0 -157 -53 -236 -158 -236c-73 0 -125 41 -140 108l39 10c12 -52 46 -81 101 -81c77 0 116 62 116 185c-21 -43 -66 -66 -123 -66c-92 0 -150 55 -150 140c0 83 61 142 150 142c104 0 165 -74 165 -202zM294 667c0 63 -44 105 -111 105
c-65 0 -109 -44 -109 -105c0 -65 42 -105 110 -105s110 41 110 105z" />
    <glyph glyph-name="fraction" unicode="&#x2044;" horiz-adv-x="207" 
d="M-123 -63l-35 19l489 815l34 -21z" />
    <glyph glyph-name="onehalf" unicode="&#xbd;" horiz-adv-x="818" 
d="M132 280v375l-104 -64v42l107 67h38v-420h-41zM126 -63l-35 19l489 815l34 -21zM535 37h248v-37h-291v34c0 44 7 70 20 91c19 25 46 43 122 78c84 39 110 66 110 109c0 48 -39 80 -98 80c-68 0 -113 -39 -116 -106l-41 2c4 85 66 141 157 141c81 0 139 -49 139 -117
c0 -29 -9 -54 -28 -74c-18 -20 -50 -41 -97 -64c-40 -19 -67 -32 -82 -41c-14 -9 -24 -18 -30 -27c-9 -16 -12 -28 -13 -69z" />
    <glyph glyph-name="onequarter" unicode="&#xbc;" horiz-adv-x="780" 
d="M132 280v375l-104 -64v42l107 67h38v-420h-41zM126 -63l-35 19l489 815l34 -21zM663 0v85h-227v37l203 298h65v-298h58v-37h-58v-85h-41zM479 122h184v268h-1z" />
    <glyph glyph-name="threequarters" unicode="&#xbe;" horiz-adv-x="891" 
d="M28 417l40 5c4 -75 42 -113 115 -113c64 0 103 33 103 88c0 59 -38 89 -113 89h-26v34h23c63 0 102 30 102 78c0 44 -36 74 -91 74c-57 0 -95 -29 -104 -85l-40 7c12 72 65 115 144 115c76 0 132 -44 132 -108c0 -41 -22 -72 -65 -93v-1c53 -18 79 -55 79 -112
c0 -75 -57 -124 -144 -124c-95 0 -151 53 -155 146zM237 -63l-35 19l489 815l34 -21zM774 0v85h-227v37l203 298h65v-298h58v-37h-58v-85h-41zM590 122h184v268h-1z" />
    <glyph glyph-name="oneeighth" unicode="&#x215b;" horiz-adv-x="842" 
d="M132 280v375l-104 -64v42l107 67h38v-420h-41zM126 -63l-35 19l489 815l34 -21zM489 114c0 53 34 95 89 114v1c-40 16 -65 46 -65 89c0 65 56 111 136 111s136 -46 136 -111c0 -43 -24 -73 -64 -89v-1c53 -19 88 -61 88 -114c0 -75 -63 -123 -160 -123s-160 48 -160 123z
M747 316c0 47 -41 79 -98 79s-97 -32 -97 -79c0 -45 38 -74 97 -74c60 0 98 29 98 74zM769 118c0 53 -49 90 -120 90s-119 -37 -119 -90c0 -55 47 -90 119 -90c73 0 120 35 120 90z" />
    <glyph glyph-name="threeeighths" unicode="&#x215c;" horiz-adv-x="953" 
d="M28 417l40 5c4 -75 42 -113 115 -113c64 0 103 33 103 88c0 59 -38 89 -113 89h-26v34h23c63 0 102 30 102 78c0 44 -36 74 -91 74c-57 0 -95 -29 -104 -85l-40 7c12 72 65 115 144 115c76 0 132 -44 132 -108c0 -41 -22 -72 -65 -93v-1c53 -18 79 -55 79 -112
c0 -75 -57 -124 -144 -124c-95 0 -151 53 -155 146zM237 -63l-35 19l489 815l34 -21zM600 114c0 53 34 95 89 114v1c-40 16 -65 46 -65 89c0 65 56 111 136 111s136 -46 136 -111c0 -43 -24 -73 -64 -89v-1c53 -19 88 -61 88 -114c0 -75 -63 -123 -160 -123
s-160 48 -160 123zM858 316c0 47 -41 79 -98 79s-97 -32 -97 -79c0 -45 38 -74 97 -74c60 0 98 29 98 74zM880 118c0 53 -49 90 -120 90s-119 -37 -119 -90c0 -55 47 -90 119 -90c73 0 120 35 120 90z" />
    <glyph glyph-name="fiveeighths" unicode="&#x215d;" horiz-adv-x="971" 
d="M33 387l38 12c11 -59 53 -91 118 -91c68 0 115 45 115 112s-46 110 -115 110c-44 0 -81 -19 -109 -51l-36 10l42 211h221v-38h-190l-28 -134l1 -1c29 25 63 37 104 37c89 0 151 -58 151 -143c0 -89 -64 -150 -156 -150c-83 0 -141 44 -156 116zM255 -63l-35 19l489 815
l34 -21zM618 114c0 53 34 95 89 114v1c-40 16 -65 46 -65 89c0 65 56 111 136 111s136 -46 136 -111c0 -43 -24 -73 -64 -89v-1c53 -19 88 -61 88 -114c0 -75 -63 -123 -160 -123s-160 48 -160 123zM876 316c0 47 -41 79 -98 79s-97 -32 -97 -79c0 -45 38 -74 97 -74
c60 0 98 29 98 74zM898 118c0 53 -49 90 -120 90s-119 -37 -119 -90c0 -55 47 -90 119 -90c73 0 120 35 120 90z" />
    <glyph glyph-name="seveneighths" unicode="&#x215e;" horiz-adv-x="851" 
d="M53 280l184 381v1h-237v38h283v-35l-183 -385h-47zM135 -63l-35 19l489 815l34 -21zM498 114c0 53 34 95 89 114v1c-40 16 -65 46 -65 89c0 65 56 111 136 111s136 -46 136 -111c0 -43 -24 -73 -64 -89v-1c53 -19 88 -61 88 -114c0 -75 -63 -123 -160 -123
s-160 48 -160 123zM756 316c0 47 -41 79 -98 79s-97 -32 -97 -79c0 -45 38 -74 97 -74c60 0 98 29 98 74zM778 118c0 53 -49 90 -120 90s-119 -37 -119 -90c0 -55 47 -90 119 -90c73 0 120 35 120 90z" />
    <glyph glyph-name="asterisk" unicode="*" horiz-adv-x="472" 
d="M130 352l-29 25l100 123l-129 77l20 31l125 -74v154h38v-154l125 74l20 -31l-129 -77l100 -123l-29 -25l-106 132z" />
    <glyph glyph-name="backslash" unicode="\" horiz-adv-x="441" 
d="M380 -30l-353 744l34 16l353 -746z" />
    <glyph glyph-name="periodcentered" unicode="&#xb7;" horiz-adv-x="232" 
d="M73 344v86h88v-86h-88z" />
    <glyph glyph-name="bullet" unicode="&#x2022;" horiz-adv-x="328" 
d="M102 386c0 36 25 63 62 63s62 -27 62 -63c0 -37 -25 -63 -62 -63s-62 27 -62 63z" />
    <glyph glyph-name="colon" unicode=":" horiz-adv-x="292" 
d="M102 361v86h88v-86h-88zM102 0v86h88v-86h-88z" />
    <glyph glyph-name="comma" unicode="," horiz-adv-x="294" 
d="M105 -78v32c25 5 34 18 34 46h-37v83h90v-72c0 -55 -30 -85 -87 -89z" />
    <glyph glyph-name="ellipsis" unicode="&#x2026;" horiz-adv-x="704" 
d="M308 0v86h88v-86h-88zM102 0v86h88v-86h-88zM514 0v86h88v-86h-88z" />
    <glyph glyph-name="exclam" unicode="!" horiz-adv-x="376" 
d="M165 185v515h47v-515h-47zM144 0v86h88v-86h-88z" />
    <glyph glyph-name="exclamdown" unicode="&#xa1;" horiz-adv-x="296" 
d="M104 530h88v-86h-88v86zM125 345h47v-515h-47v515z" />
    <glyph glyph-name="numbersign" unicode="#" horiz-adv-x="803" 
d="M725 468h-169l-41 -231h169l-6 -39h-170l-35 -198h-43l35 198h-182l-35 -198h-43l35 198h-168l6 39h169l41 231h-169l6 38h170l34 194h43l-34 -194h182l34 194h43l-34 -194h168zM472 237l41 231h-182l-41 -231h182z" />
    <glyph glyph-name="period" unicode="." horiz-adv-x="292" 
d="M102 0v86h88v-86h-88z" />
    <glyph glyph-name="question" unicode="?" horiz-adv-x="578" 
d="M228 171v73c0 71 21 100 104 156c41 27 69 51 84 72c15 22 23 48 23 77c0 72 -58 122 -142 122c-104 0 -165 -65 -170 -172l-46 2c2 126 90 214 216 214c106 0 189 -68 189 -166c0 -38 -10 -70 -29 -96s-52 -55 -100 -87c-72 -48 -85 -66 -85 -125v-70h-44zM209 0v86h88
v-86h-88z" />
    <glyph glyph-name="questiondown" unicode="&#xbf;" horiz-adv-x="578" 
d="M369 530v-86h-88v86h88zM350 359v-73c0 -71 -21 -100 -104 -156c-41 -27 -69 -51 -84 -73c-15 -21 -23 -47 -23 -76c0 -72 58 -122 142 -122c104 0 165 65 170 172l46 -2c-2 -126 -90 -214 -216 -214c-106 0 -189 68 -189 166c0 38 9 70 28 96s53 55 101 87
c72 48 85 66 85 125v70h44z" />
    <glyph glyph-name="quotedbl" unicode="&#x22;" horiz-adv-x="362" 
d="M102 493v207h43v-207h-43zM217 493v207h43v-207h-43z" />
    <glyph glyph-name="quotesingle" unicode="'" horiz-adv-x="247" 
d="M102 493v207h43v-207h-43z" />
    <glyph glyph-name="semicolon" unicode=";" horiz-adv-x="294" 
d="M105 -78v32c25 5 34 18 34 46h-37v83h90v-72c0 -55 -30 -85 -87 -89zM103 361v86h88v-86h-88z" />
    <glyph glyph-name="slash" unicode="/" horiz-adv-x="441" 
d="M61 -29l-34 14l353 746l34 -16z" />
    <glyph glyph-name="underscore" unicode="_" horiz-adv-x="614" 
d="M62 -124v38h490v-38h-490z" />
    <glyph glyph-name="braceleft" unicode="{" horiz-adv-x="353" 
d="M153 -59v255c0 49 -13 64 -53 64h-28v50h28c40 0 53 15 53 64v235c0 84 33 121 105 121h63v-43h-59c-45 0 -64 -26 -64 -86v-238c0 -49 -24 -74 -56 -77v-2c32 -3 56 -29 56 -78v-257c0 -60 19 -86 64 -86h59v-43h-63c-72 0 -105 37 -105 121z" />
    <glyph glyph-name="braceright" unicode="}" horiz-adv-x="353" 
d="M95 -180h-63v43h59c45 0 64 26 64 86v257c0 49 24 75 56 78v2c-32 3 -56 28 -56 77v238c0 60 -19 86 -64 86h-59v43h63c72 0 105 -37 105 -121v-235c0 -49 13 -64 53 -64h28v-50h-28c-40 0 -53 -15 -53 -64v-255c0 -84 -33 -121 -105 -121z" />
    <glyph glyph-name="bracketleft" unicode="[" horiz-adv-x="294" 
d="M94 -180v910h168v-41h-123v-828h123v-41h-168z" />
    <glyph glyph-name="bracketright" unicode="]" horiz-adv-x="294" 
d="M200 -180h-168v41h123v828h-123v41h168v-910z" />
    <glyph glyph-name="parenleft" unicode="(" horiz-adv-x="362" 
d="M102 294c0 183 66 345 197 488l31 -26c-123 -137 -181 -286 -181 -462c0 -175 58 -325 181 -462l-31 -25c-131 143 -197 305 -197 487z" />
    <glyph glyph-name="parenright" unicode=")" horiz-adv-x="362" 
d="M63 -193l-31 25c123 137 181 287 181 462c0 176 -58 325 -181 462l31 26c131 -143 197 -305 197 -488c0 -182 -66 -344 -197 -487z" />
    <glyph glyph-name="braceleft.case" horiz-adv-x="353" 
d="M153 -9v255c0 49 -13 64 -53 64h-28v50h28c40 0 53 15 53 64v235c0 84 33 121 105 121h63v-43h-59c-45 0 -64 -26 -64 -86v-238c0 -49 -24 -74 -56 -77v-2c32 -3 56 -29 56 -78v-257c0 -60 19 -86 64 -86h59v-43h-63c-72 0 -105 37 -105 121z" />
    <glyph glyph-name="braceright.case" horiz-adv-x="353" 
d="M95 -130h-63v43h59c45 0 64 26 64 86v257c0 49 24 75 56 78v2c-32 3 -56 28 -56 77v238c0 60 -19 86 -64 86h-59v43h63c72 0 105 -37 105 -121v-235c0 -49 13 -64 53 -64h28v-50h-28c-40 0 -53 -15 -53 -64v-255c0 -84 -33 -121 -105 -121z" />
    <glyph glyph-name="bracketleft.case" horiz-adv-x="294" 
d="M94 -130v910h168v-41h-123v-828h123v-41h-168z" />
    <glyph glyph-name="bracketright.case" horiz-adv-x="294" 
d="M200 -130h-168v41h123v828h-123v41h168v-910z" />
    <glyph glyph-name="parenleft.case" horiz-adv-x="362" 
d="M102 344c0 183 66 345 197 488l31 -26c-123 -137 -181 -286 -181 -462c0 -175 58 -325 181 -462l-31 -25c-131 143 -197 305 -197 487z" />
    <glyph glyph-name="parenright.case" horiz-adv-x="362" 
d="M63 -143l-31 25c123 137 181 287 181 462c0 176 -58 325 -181 462l31 26c131 -143 197 -305 197 -488c0 -182 -66 -344 -197 -487z" />
    <glyph glyph-name="emdash" unicode="&#x2014;" horiz-adv-x="848" 
d="M62 277v42h724v-42h-724z" />
    <glyph glyph-name="endash" unicode="&#x2013;" horiz-adv-x="563" 
d="M62 277v42h439v-42h-439z" />
    <glyph glyph-name="hyphen" unicode="-" horiz-adv-x="362" 
d="M62 277v42h238v-42h-238z" />
    <glyph glyph-name="uni00AD" unicode="&#xad;" horiz-adv-x="362" 
d="M62 277v42h238v-42h-238z" />
    <glyph glyph-name="emdash.ccmp" horiz-adv-x="848" 
d="M62 342v42h724v-42h-724z" />
    <glyph glyph-name="endash.ccmp" horiz-adv-x="563" 
d="M62 342v42h439v-42h-439z" />
    <glyph glyph-name="hyphen.ccmp" horiz-adv-x="362" 
d="M62 342v42h238v-42h-238z" />
    <glyph glyph-name="uni00AD.ccmp" horiz-adv-x="362" 
d="M62 342v42h238v-42h-238z" />
    <glyph glyph-name="guillemotleft" unicode="&#xab;" horiz-adv-x="449" 
d="M330 98l-108 185l108 185h47l-110 -185l110 -185h-47zM190 98l-108 185l108 185h47l-110 -185l110 -185h-47z" />
    <glyph glyph-name="guillemotright" unicode="&#xbb;" horiz-adv-x="449" 
d="M119 98h-47l110 185l-110 185h47l108 -185zM259 98h-47l110 185l-110 185h47l108 -185z" />
    <glyph glyph-name="guilsinglleft" unicode="&#x2039;" horiz-adv-x="309" 
d="M190 98l-108 185l108 185h47l-110 -185l110 -185h-47z" />
    <glyph glyph-name="guilsinglright" unicode="&#x203a;" horiz-adv-x="309" 
d="M119 98h-47l110 185l-110 185h47l108 -185z" />
    <glyph glyph-name="quotedblbase" unicode="&#x201e;" horiz-adv-x="423" 
d="M105 -78v32c25 5 34 18 34 46h-37v83h90v-72c0 -55 -30 -85 -87 -89zM234 -78v32c25 5 34 18 34 46h-37v83h90v-72c0 -55 -30 -85 -87 -89z" />
    <glyph glyph-name="quotedblleft" unicode="&#x201c;" horiz-adv-x="423" 
d="M189 700v-32c-25 -5 -34 -18 -34 -46h37v-83h-90v72c0 55 30 85 87 89zM318 700v-32c-25 -5 -34 -18 -34 -46h37v-83h-90v72c0 55 30 85 87 89z" />
    <glyph glyph-name="quotedblright" unicode="&#x201d;" horiz-adv-x="423" 
d="M105 539v32c25 5 34 18 34 46h-37v83h90v-72c0 -55 -30 -85 -87 -89zM234 539v32c25 5 34 18 34 46h-37v83h90v-72c0 -55 -30 -85 -87 -89z" />
    <glyph glyph-name="quoteleft" unicode="&#x2018;" horiz-adv-x="254" 
d="M169 700v-32c-25 -5 -34 -18 -34 -46h37v-83h-90v72c0 55 30 85 87 89z" />
    <glyph glyph-name="quoteright" unicode="&#x2019;" horiz-adv-x="254" 
d="M85 539v32c25 5 34 18 34 46h-37v83h90v-72c0 -55 -30 -85 -87 -89z" />
    <glyph glyph-name="quotesinglbase" unicode="&#x201a;" horiz-adv-x="294" 
d="M105 -78v32c25 5 34 18 34 46h-37v83h90v-72c0 -55 -30 -85 -87 -89z" />
    <glyph glyph-name="guillemotleft.case" horiz-adv-x="449" 
d="M330 148l-108 185l108 185h47l-110 -185l110 -185h-47zM190 148l-108 185l108 185h47l-110 -185l110 -185h-47z" />
    <glyph glyph-name="guillemotright.case" horiz-adv-x="449" 
d="M119 148h-47l110 185l-110 185h47l108 -185zM259 148h-47l110 185l-110 185h47l108 -185z" />
    <glyph glyph-name="guilsinglleft.case" horiz-adv-x="309" 
d="M190 148l-108 185l108 185h47l-110 -185l110 -185h-47z" />
    <glyph glyph-name="guilsinglright.case" horiz-adv-x="309" 
d="M119 148h-47l110 185l-110 185h47l108 -185z" />
    <glyph glyph-name="uni2003" unicode="&#x2003;" horiz-adv-x="1000" 
 />
    <glyph glyph-name="uni2002" unicode="&#x2002;" horiz-adv-x="750" 
 />
    <glyph glyph-name="uni2007" unicode="&#x2007;" 
 />
    <glyph glyph-name="uni2005" unicode="&#x2005;" horiz-adv-x="250" 
 />
    <glyph glyph-name="uni200A" unicode="&#x200a;" horiz-adv-x="75" 
 />
    <glyph glyph-name="uni2008" unicode="&#x2008;" horiz-adv-x="292" 
 />
    <glyph glyph-name="uni00A0" unicode="&#xa0;" horiz-adv-x="276" 
 />
    <glyph glyph-name="uni2009" unicode="&#x2009;" horiz-adv-x="150" 
 />
    <glyph glyph-name="uni2004" unicode="&#x2004;" horiz-adv-x="350" 
 />
    <glyph glyph-name="uni200B" unicode="&#x200b;" horiz-adv-x="0" 
 />
    <glyph glyph-name="uniFEFF" unicode="&#xfeff;" horiz-adv-x="0" 
 />
    <glyph glyph-name="uni0E3F" unicode="&#xe3f;" horiz-adv-x="638" 
d="M580 200c0 -132 -82 -200 -239 -200h-3v-110h-32v110h-202v700h202v101h32v-101h9c131 0 207 -64 207 -173c0 -77 -43 -133 -111 -152v-2c84 -16 137 -80 137 -173zM151 656v-266h155v266h-155zM342 656h-4v-266c111 1 169 48 169 135c0 85 -57 131 -165 131zM151 44h155
v304h-155v-304zM533 200c0 101 -60 148 -189 148h-6v-304c131 0 195 51 195 156z" />
    <glyph glyph-name="cent" unicode="&#xa2;" horiz-adv-x="627" 
d="M525 181l43 -8c-11 -55 -37 -99 -78 -133c-41 -33 -90 -52 -148 -55v-95h-32v95c-145 8 -246 124 -246 280s101 272 246 280v86h32v-86c58 -3 107 -22 148 -56c41 -33 67 -77 78 -132l-43 -8c-19 93 -88 148 -183 155v-478c95 7 164 62 183 155zM310 27v476
c-119 -6 -202 -106 -202 -238s83 -232 202 -238z" />
    <glyph glyph-name="currency" unicode="&#xa4;" horiz-adv-x="603" 
d="M549 106l-25 -25l-66 65c-41 -37 -97 -59 -157 -59c-61 0 -115 22 -156 59l-65 -65l-25 25l65 66c-35 43 -53 96 -53 159c0 61 17 114 52 158l-65 65l25 25l64 -64c40 39 95 61 158 61c61 0 117 -22 158 -61l64 64l25 -25l-65 -65c33 -43 52 -98 52 -158
c0 -61 -18 -114 -53 -159zM488 330c0 118 -79 203 -187 203s-187 -85 -187 -203s76 -201 187 -201s187 84 187 201z" />
    <glyph glyph-name="dollar" unicode="$" horiz-adv-x="643" 
d="M595 168c0 -108 -100 -183 -253 -183h-3v-95h-32v96c-153 12 -251 94 -259 239l46 6c9 -124 88 -191 213 -202v317c-50 13 -91 27 -123 40c-63 27 -110 73 -110 148c0 106 98 181 232 181h1v86h32v-87c128 -12 217 -90 233 -197l-46 -8c-16 88 -84 150 -187 161v-289
c55 -15 99 -29 133 -44c69 -29 123 -82 123 -169zM307 390v282h-2c-54 0 -99 -13 -134 -38s-52 -58 -52 -99c4 -84 71 -112 188 -145zM549 168c-5 101 -82 134 -210 169v-309h3c128 0 207 55 207 140z" />
    <glyph glyph-name="Euro" unicode="&#x20ac;" horiz-adv-x="785" 
d="M690 243l47 -7c-24 -157 -135 -251 -296 -251c-82 0 -151 24 -207 72c-55 49 -91 115 -106 199h-103v41h97c-2 17 -3 35 -3 54c0 11 1 25 2 44h-96v40h101c15 86 50 154 106 204c56 51 126 76 209 76c79 0 144 -21 195 -64c52 -42 85 -100 98 -173l-45 -8
c-25 129 -115 202 -248 202c-141 0 -242 -90 -270 -237h336v-40h-341c-1 -19 -2 -33 -2 -44c0 -19 1 -37 3 -54h264v-41h-258c31 -143 129 -228 268 -228c137 0 226 76 249 215z" />
    <glyph glyph-name="florin" unicode="&#x192;" horiz-adv-x="399" 
d="M224 592l-11 -62h134v-41h-141l-96 -545c-12 -66 -52 -99 -121 -99h-51v41h52c47 0 69 19 77 67l95 536h-123v41h130l12 71c11 65 52 98 121 98h65v-41h-66c-47 0 -69 -19 -77 -66z" />
    <glyph glyph-name="lira" unicode="&#x20a4;" horiz-adv-x="534" 
d="M452 365h46c0 -218 -117 -365 -294 -365h-46v369l-98 -36l-14 37l112 41v99l-98 -36l-14 37l112 41v148h46v-132l167 61l14 -36l-181 -66v-100l167 61l14 -37l-181 -66v-341c150 0 248 126 248 321z" />
    <glyph glyph-name="uni20BD" unicode="&#x20bd;" horiz-adv-x="694" 
d="M199 282v-107h214v-40h-214v-135h-47v135h-106v40h106v107h-106v40h106v378h247c145 0 231 -78 231 -209c0 -133 -83 -209 -231 -209h-200zM199 656v-330h198c123 0 187 57 187 165s-64 165 -187 165h-198z" />
    <glyph glyph-name="uni20A8" unicode="&#x20a8;" horiz-adv-x="603" 
d="M557 660h-149v-2c55 -26 84 -71 88 -136h61v-41h-60c-9 -100 -76 -163 -185 -176v-2l161 -303h-54l-157 303h-188v43h195c109 0 172 48 180 135h-375v41h376c-8 87 -70 134 -181 134h-195v44h483v-40z" />
    <glyph glyph-name="sterling" unicode="&#xa3;" horiz-adv-x="592" 
d="M217 46v-2h318v-44h-459v44h40c76 0 133 66 133 144c0 45 -18 85 -51 134h-122v41h94c-49 72 -76 116 -76 175c0 108 86 177 221 177c137 0 224 -72 236 -193l-46 -5c-12 103 -75 154 -190 154c-108 0 -173 -50 -173 -133c0 -20 4 -40 11 -59s16 -35 25 -50
s24 -37 45 -66h217v-41h-192c29 -47 44 -91 44 -134c0 -59 -31 -115 -75 -142z" />
    <glyph glyph-name="uni20A9" unicode="&#x20a9;" horiz-adv-x="893" 
d="M873 448h-85l-21 -109h106v-38h-114l-59 -301h-49l-97 301h-215l-97 -301h-49l-60 301h-113v38h106l-22 109h-84v38h76l-42 214h45l41 -214h218l69 214h40l69 -214h217l42 214h43l-42 -214h77v-38zM446 630l-47 -144h95l-46 144h-2zM148 448l21 -109h141l36 109h-198z
M352 339h190l-35 109h-120zM725 339l21 109h-198l35 -109h142zM223 69l75 232h-122l45 -232h2zM672 69l45 232h-122l75 -232h2z" />
    <glyph glyph-name="yen" unicode="&#xa5;" horiz-adv-x="569" 
d="M559 700l-232 -381h201v-40h-220v-98h220v-41h-220v-140h-46v140h-224v41h224v98h-224v40h205l-233 381h54l220 -366h2l220 366h53z" />
    <glyph glyph-name="uni0E3F.tnum" 
d="M584 200c0 -132 -82 -200 -239 -200h-16v-110h-31v110h-202v700h202v101h31v-101h23c129 0 206 -64 206 -173c0 -77 -43 -133 -111 -152v-2c84 -16 137 -80 137 -173zM143 656v-266h155v266h-155zM346 656h-17v-266h11c112 0 171 47 171 135c0 87 -56 131 -165 131z
M143 44h155v304h-155v-304zM537 200c0 101 -60 148 -189 148h-19v-304h12c132 0 196 51 196 156z" />
    <glyph glyph-name="cent.tnum" 
d="M534 181l43 -8c-11 -55 -37 -99 -78 -133c-41 -33 -90 -52 -148 -55v-95h-32v95c-145 8 -246 124 -246 280s101 272 246 280v86h32v-86c58 -3 107 -22 148 -56c41 -33 67 -77 78 -132l-43 -8c-19 93 -88 148 -183 155v-478c95 7 164 62 183 155zM319 27v476
c-119 -6 -202 -106 -202 -238s83 -232 202 -238z" />
    <glyph glyph-name="currency.tnum" 
d="M572 106l-25 -25l-66 65c-41 -37 -97 -59 -157 -59c-61 0 -115 22 -156 59l-65 -65l-25 25l65 66c-35 43 -53 96 -53 159c0 61 17 114 52 158l-65 65l25 25l64 -64c40 39 95 61 158 61c61 0 117 -22 158 -61l64 64l25 -25l-65 -65c33 -43 52 -98 52 -158
c0 -61 -18 -114 -53 -159zM511 330c0 118 -79 203 -187 203s-187 -85 -187 -203s79 -201 187 -201c111 0 187 84 187 201z" />
    <glyph glyph-name="dollar.tnum" 
d="M598 168c0 -108 -100 -183 -253 -183h-3v-95h-31v96c-153 11 -251 94 -259 239l46 6c9 -124 86 -191 213 -202v317c-50 13 -91 27 -123 40c-64 27 -111 73 -111 148c0 106 99 181 232 181h2v86h31v-87c128 -12 217 -90 233 -197l-46 -8c-15 88 -84 150 -187 161v-289
c55 -15 99 -29 133 -44c69 -29 123 -82 123 -169zM311 390v282h-2c-55 0 -99 -13 -134 -38s-52 -58 -52 -99c4 -84 71 -112 188 -145zM553 168c-4 101 -82 134 -211 169v-309h4c128 0 207 55 207 140z" />
    <glyph glyph-name="Euro.tnum" 
d="M566 243l46 -7c-9 -77 -36 -139 -80 -184c-43 -45 -98 -67 -163 -67c-137 0 -238 103 -266 271h-82v41h77c-1 23 -2 41 -2 54c0 11 1 25 2 44h-77v40h81c13 86 43 154 90 204c48 51 107 76 177 76c63 0 117 -21 160 -64c44 -43 71 -100 82 -173l-46 -8
c-21 127 -93 201 -196 201c-116 0 -200 -89 -223 -236h279v-40h-283c-1 -19 -2 -33 -2 -44c0 -13 1 -31 2 -54h207v-41h-201c25 -141 108 -227 221 -227c107 0 177 77 197 214z" />
    <glyph glyph-name="florin.tnum" 
d="M396 592l-11 -62h134v-41h-141l-96 -545c-11 -66 -51 -99 -121 -99h-51v41h52c48 0 69 19 77 67l95 536h-123v41h130l12 71c12 65 52 98 121 98h65v-41h-66c-45 0 -69 -19 -77 -66z" />
    <glyph glyph-name="lira.tnum" 
d="M504 365h47c0 -218 -118 -365 -294 -365h-47v368l-97 -35l-15 37l112 41v99l-97 -36l-15 37l112 41v148h47v-131l166 60l14 -36l-180 -66v-99l166 60l14 -37l-180 -66v-341c149 0 247 126 247 321z" />
    <glyph glyph-name="uni20BD.tnum" 
d="M187 282v-107h188v-40h-188v-135h-47v135h-94v40h94v107h-94v40h94v378h223c144 0 231 -78 231 -209c0 -133 -84 -209 -231 -209h-176zM187 656v-330h174c123 0 186 56 186 165c0 108 -65 165 -186 165h-174z" />
    <glyph glyph-name="uni20A8.tnum" 
d="M566 660h-150v-2c55 -26 85 -71 89 -136h61v-41h-61c-8 -100 -75 -163 -184 -176v-2l161 -303h-54l-157 303h-188v43h195c108 0 172 48 180 135h-375v41h375c-7 87 -69 134 -180 134h-195v44h483v-40z" />
    <glyph glyph-name="sterling.tnum" 
d="M229 46v-2h318v-44h-459v44h40c75 0 133 66 133 144c0 47 -19 86 -52 134h-121v41h94c-49 68 -76 116 -76 175c0 108 85 177 220 177c137 0 225 -72 236 -193l-46 -5c-11 103 -76 154 -189 154c-108 0 -174 -50 -174 -133c0 -20 4 -40 11 -59c8 -19 16 -35 25 -48l46 -68
h216v-41h-191c29 -47 44 -91 44 -134c0 -59 -31 -115 -75 -142z" />
    <glyph glyph-name="uni20A9.tnum" 
d="M642 446h-61l-13 -80h74v-38h-80l-53 -328h-49l-96 328h-79l-96 -328h-49l-52 328h-80v38h73l-12 80h-61v38h55l-35 216h45l33 -216h186l13 46h39l13 -46h187l33 216h45l-35 -216h55v-38zM112 446l12 -80h133l24 80h-169zM296 366h57l-23 80h-10zM526 366l12 80h-169
l23 -80h134zM171 69l75 259h-116l39 -259h2zM481 69l39 259h-117l76 -259h2z" />
    <glyph glyph-name="yen.tnum" 
d="M622 700l-252 -381h201v-40h-223v-98h223v-41h-223v-140h-47v140h-221v41h221v98h-221v40h199l-251 381h53l243 -371h2l243 371h53z" />
    <glyph glyph-name="uni207B" unicode="&#x207b;" horiz-adv-x="409" 
d="M72 193v36h265v-36h-265z" />
    <glyph glyph-name="plus" unicode="+" horiz-adv-x="591" 
d="M519 388v-39h-202v-212h-42v212h-203v39h203v205h42v-205h202z" />
    <glyph glyph-name="minus" unicode="&#x2212;" horiz-adv-x="541" 
d="M72 349v39h397v-39h-397z" />
    <glyph glyph-name="multiply" unicode="&#xd7;" horiz-adv-x="522" 
d="M101 166l-29 29l161 160l-161 161l29 29l160 -162l160 162l29 -29l-161 -161l161 -160l-29 -29l-160 162z" />
    <glyph glyph-name="divide" unicode="&#xf7;" horiz-adv-x="541" 
d="M218 556c0 31 22 54 53 54c29 0 53 -23 53 -54s-24 -53 -53 -53c-31 0 -53 22 -53 53zM72 349v39h397v-39h-397zM218 176c0 31 22 54 53 54c29 0 53 -23 53 -54s-24 -53 -53 -53c-31 0 -53 22 -53 53z" />
    <glyph glyph-name="equal" unicode="=" horiz-adv-x="561" 
d="M72 427v41h417v-41h-417zM72 244v42h417v-42h-417z" />
    <glyph glyph-name="notequal" unicode="&#x2260;" horiz-adv-x="561" 
d="M489 427h-149l-79 -141h228v-42h-252l-61 -110l-29 16l52 94h-127v42h151l79 141h-230v41h253l61 110l29 -16l-52 -94h126v-41z" />
    <glyph glyph-name="greater" unicode="&#x3e;" horiz-adv-x="553" 
d="M95 98l-23 36l363 218l-363 217l23 37l386 -233v-43z" />
    <glyph glyph-name="less" unicode="&#x3c;" horiz-adv-x="553" 
d="M458 98l-386 232v43l386 233l23 -37l-363 -217l363 -218z" />
    <glyph glyph-name="greaterequal" unicode="&#x2265;" horiz-adv-x="564" 
d="M107 134l-23 35l363 219l-364 219l24 35l385 -232v-43zM72 0v42h420v-42h-420z" />
    <glyph glyph-name="lessequal" unicode="&#x2264;" horiz-adv-x="564" 
d="M457 134l-385 233v43l385 232l24 -35l-364 -219l363 -219zM492 0h-420v42h420v-42z" />
    <glyph glyph-name="plusminus" unicode="&#xb1;" horiz-adv-x="592" 
d="M275 187v204h-203v39h203v197h42v-197h202v-39h-202v-204h-42zM72 127h448v-39h-448v39z" />
    <glyph glyph-name="approxequal" unicode="&#x2248;" horiz-adv-x="605" 
d="M112 373l-39 11c12 75 57 119 120 119c43 0 75 -17 120 -48c44 -28 68 -41 100 -41c42 0 69 30 81 90l40 -11c-15 -75 -59 -120 -120 -120c-43 0 -73 16 -122 48c-41 28 -67 41 -98 41c-43 0 -70 -30 -82 -89zM112 215l-39 11c12 75 57 119 120 119c43 0 75 -17 120 -48
c44 -28 68 -41 100 -41c42 0 69 30 81 90l40 -11c-15 -75 -59 -120 -120 -120c-43 0 -73 16 -122 48c-41 28 -67 41 -98 41c-43 0 -70 -30 -82 -89z" />
    <glyph glyph-name="asciitilde" unicode="~" horiz-adv-x="628" 
d="M113 289l-41 11c13 79 61 125 126 125c44 0 74 -17 127 -50c44 -29 71 -43 104 -43c45 0 73 30 86 94l41 -11c-15 -79 -61 -126 -126 -126c-44 0 -74 17 -127 50c-44 29 -71 43 -104 43c-45 0 -73 -29 -86 -93z" />
    <glyph glyph-name="logicalnot" unicode="&#xac;" horiz-adv-x="608" 
d="M489 188v188h-417v44h464v-232h-47z" />
    <glyph glyph-name="infinity" unicode="&#x221e;" horiz-adv-x="742" 
d="M72 304c0 108 63 185 154 185c64 0 116 -44 145 -124c29 81 81 124 146 124c89 0 153 -77 153 -185c0 -109 -63 -186 -153 -186c-65 0 -117 43 -146 124c-29 -80 -81 -124 -145 -124c-91 0 -154 77 -154 186zM355 304c-24 95 -69 146 -128 146c-68 0 -115 -59 -115 -146
s47 -147 115 -147c59 0 104 51 128 147zM630 304c0 85 -47 146 -114 146c-59 0 -105 -51 -129 -146c24 -96 70 -147 129 -147c67 0 114 60 114 147z" />
    <glyph glyph-name="emptyset" unicode="&#x2205;" horiz-adv-x="854" 
d="M792 350c4 -203 -162 -369 -365 -365c-83 0 -160 26 -221 71l-88 -104l-31 25l88 105c-72 67 -113 161 -113 268c-4 203 162 369 365 365c81 0 157 -25 220 -70l89 106l30 -27l-88 -105c72 -67 114 -162 114 -269zM203 116l416 495c-55 41 -119 61 -192 61
c-179 3 -321 -141 -318 -322c0 -93 34 -177 94 -234zM745 350c0 93 -35 176 -96 235l-415 -495c53 -40 120 -62 193 -62c179 -3 321 141 318 322z" />
    <glyph glyph-name="integral" unicode="&#x222b;" horiz-adv-x="486" 
d="M72 -240v44c117 0 148 35 148 158v582c0 150 49 200 194 200v-44c-117 0 -148 -34 -148 -158v-582c0 -150 -49 -200 -194 -200z" />
    <glyph glyph-name="product" unicode="&#x220f;" horiz-adv-x="744" 
d="M160 -141v797h-125v44h674v-44h-125v-797h-46v797h-332v-797h-46z" />
    <glyph glyph-name="summation" unicode="&#x2211;" horiz-adv-x="608" 
d="M82 -100v42l277 358l-277 358v42h469v-43h-411l278 -357l-278 -357h411v-43h-469z" />
    <glyph glyph-name="radical" unicode="&#x221a;" horiz-adv-x="653" 
d="M584 700h53l-284 -700h-42l-146 360h-133v44h165l133 -339h2z" />
    <glyph glyph-name="partialdiff" unicode="&#x2202;" horiz-adv-x="580" 
d="M532 399c0 -275 -84 -413 -253 -413c-141 0 -225 91 -225 247c0 165 84 266 221 266c72 0 141 -19 208 -58c-5 203 -60 301 -165 301c-41 0 -76 -18 -109 -55l-31 32c41 45 87 67 140 67c141 0 214 -132 214 -387zM484 395c-76 43 -141 62 -206 62
c-112 0 -177 -83 -177 -224c0 -128 66 -203 178 -203c137 0 204 120 205 365z" />
    <glyph glyph-name="percent" unicode="%" horiz-adv-x="989" 
d="M276 -64l-37 20l488 815l37 -22zM72 490c0 136 63 219 167 219s167 -83 167 -219s-63 -219 -167 -219c-103 0 -167 84 -167 219zM364 490c0 113 -46 179 -125 179s-124 -66 -124 -179s45 -179 124 -179s125 66 125 179zM582 210c0 135 64 219 168 219
c103 0 167 -84 167 -219s-64 -219 -167 -219s-168 84 -168 219zM874 210c0 113 -45 179 -124 179s-125 -66 -125 -179s46 -179 125 -179s124 66 124 179z" />
    <glyph glyph-name="perthousand" unicode="&#x2030;" horiz-adv-x="1388" 
d="M276 -64l-37 20l488 815l37 -22zM72 490c0 136 63 219 167 219s167 -83 167 -219s-63 -219 -167 -219c-103 0 -167 84 -167 219zM364 490c0 113 -46 179 -125 179s-124 -66 -124 -179s45 -179 124 -179s125 66 125 179zM582 210c0 135 64 219 168 219
c103 0 167 -84 167 -219s-64 -219 -167 -219s-168 84 -168 219zM981 210c0 135 64 219 167 219c104 0 168 -84 168 -219s-64 -219 -168 -219c-103 0 -167 84 -167 219zM874 210c0 113 -45 179 -124 179s-125 -66 -125 -179s46 -179 125 -179s124 66 124 179zM1272 210
c0 113 -44 179 -124 179c-77 0 -123 -66 -123 -179s46 -179 123 -179c80 0 124 66 124 179z" />
    <glyph glyph-name="uni207A" unicode="&#x207a;" horiz-adv-x="439" 
d="M367 229v-36h-128v-129h-39v129h-128v36h128v127h39v-127h128z" />
    <glyph glyph-name="plus.tnum" 
d="M548 388v-39h-202v-212h-42v212h-203v39h203v205h42v-205h202z" />
    <glyph glyph-name="minus.tnum" 
d="M126 349v39h397v-39h-397z" />
    <glyph glyph-name="multiply.tnum" 
d="M166 166l-29 29l161 160l-161 161l29 29l160 -162l160 162l29 -29l-161 -161l161 -160l-29 -29l-160 162z" />
    <glyph glyph-name="divide.tnum" 
d="M272 556c0 31 22 54 53 54c29 0 53 -23 53 -54s-24 -53 -53 -53c-31 0 -53 22 -53 53zM126 349v39h397v-39h-397zM272 176c0 31 22 54 53 54c29 0 53 -23 53 -54s-24 -53 -53 -53c-31 0 -53 22 -53 53z" />
    <glyph glyph-name="equal.tnum" 
d="M116 427v41h417v-41h-417zM116 244v42h417v-42h-417z" />
    <glyph glyph-name="notequal.tnum" 
d="M533 427h-149l-79 -141h228v-42h-252l-61 -110l-29 16l52 94h-127v42h151l79 141h-230v41h253l61 110l29 -16l-52 -94h126v-41z" />
    <glyph glyph-name="greater.tnum" 
d="M143 98l-23 36l363 218l-363 217l23 37l386 -233v-43z" />
    <glyph glyph-name="less.tnum" 
d="M506 98l-386 232v43l386 233l23 -37l-363 -217l363 -218z" />
    <glyph glyph-name="greaterequal.tnum" 
d="M150 134l-23 35l363 219l-364 219l24 35l385 -232v-43zM115 0v42h420v-42h-420z" />
    <glyph glyph-name="lessequal.tnum" 
d="M500 134l-385 233v43l385 232l24 -35l-364 -219l363 -219zM535 0h-420v42h420v-42z" />
    <glyph glyph-name="plusminus.tnum" 
d="M304 187v204h-203v39h203v197h42v-197h202v-39h-202v-204h-42zM101 127h448v-39h-448v39z" />
    <glyph glyph-name="approxequal.tnum" 
d="M134 373l-39 11c12 75 57 119 120 119c43 0 75 -17 120 -48c44 -28 68 -41 100 -41c42 0 69 30 81 90l40 -11c-15 -75 -59 -120 -120 -120c-43 0 -73 16 -122 48c-41 28 -67 41 -98 41c-43 0 -70 -30 -82 -89zM134 215l-39 11c12 75 57 119 120 119c43 0 75 -17 120 -48
c44 -28 68 -41 100 -41c42 0 69 30 81 90l40 -11c-15 -75 -59 -120 -120 -120c-43 0 -73 16 -122 48c-41 28 -67 41 -98 41c-43 0 -70 -30 -82 -89z" />
    <glyph glyph-name="percent.tnum" 
d="M36 660c0 136 63 219 167 219s167 -83 167 -219s-63 -219 -167 -219c-103 0 -167 84 -167 219zM328 660c0 113 -46 179 -125 179s-124 -66 -124 -179s45 -179 124 -179s125 66 125 179zM148 223l-21 37l381 220l21 -36zM280 40c0 136 63 219 167 219s167 -83 167 -219
s-63 -219 -167 -219c-103 0 -167 84 -167 219zM571 40c0 113 -45 179 -124 179s-124 -66 -124 -179s45 -179 124 -179s124 66 124 179z" />
    <glyph glyph-name="perthousand.tnum" 
d="M33 684c0 136 63 219 167 219c103 0 167 -83 167 -219c0 -135 -64 -219 -167 -219s-167 84 -167 219zM324 684c0 113 -45 179 -124 179s-124 -66 -124 -179c0 -112 45 -179 124 -179c77 0 124 67 124 179zM74 276l-14 40l439 159l14 -39zM15 6c0 136 63 219 167 219
c55 0 98 -27 125 -76c12 112 72 176 161 176c104 0 167 -83 167 -219s-63 -219 -167 -219c-55 0 -97 25 -125 75c-12 -112 -70 -175 -161 -175c-103 0 -167 83 -167 219zM592 106c0 112 -46 179 -125 179c-77 0 -124 -67 -124 -179c0 -113 45 -179 124 -179s125 66 125 179z
M307 6c0 112 -46 179 -125 179c-77 0 -124 -67 -124 -179c0 -113 45 -179 124 -179s125 66 125 179z" />
    <glyph glyph-name="arrowup" unicode="&#x2191;" horiz-adv-x="576" 
d="M514 414l-32 -31l-172 182v-511h-44v511l-172 -182l-32 31l226 233z" />
    <glyph glyph-name="uni2197" unicode="&#x2197;" horiz-adv-x="558" 
d="M62 163l362 363l-251 -7v43l323 5l-5 -324l-43 1l6 251l-363 -363z" />
    <glyph glyph-name="arrowright" unicode="&#x2192;" horiz-adv-x="717" 
d="M422 572l233 -226l-233 -226l-30 32l184 174h-514v41h513l-183 173z" />
    <glyph glyph-name="uni2198" unicode="&#x2198;" horiz-adv-x="558" 
d="M62 536l29 31l363 -363l-6 251l43 1l5 -324l-323 5v43l251 -7z" />
    <glyph glyph-name="arrowdown" unicode="&#x2193;" horiz-adv-x="576" 
d="M482 318l32 -31l-226 -233l-226 233l32 31l172 -182v511h44v-511z" />
    <glyph glyph-name="uni2199" unicode="&#x2199;" horiz-adv-x="558" 
d="M496 538l-362 -363l251 7v-43l-323 -5l5 324l43 -1l-6 -251l363 363z" />
    <glyph glyph-name="arrowleft" unicode="&#x2190;" horiz-adv-x="717" 
d="M655 367v-41h-514l184 -174l-30 -32l-233 226l233 226l30 -32l-183 -173h513z" />
    <glyph glyph-name="uni2196" unicode="&#x2196;" horiz-adv-x="558" 
d="M496 163l-29 -31l-363 363l6 -251l-43 -1l-5 324l323 -5v-43l-251 7z" />
    <glyph glyph-name="arrowboth" unicode="&#x2194;" horiz-adv-x="809" 
d="M513 572l234 -226l-234 -226l-29 31l187 176h-532l186 -176l-29 -31l-234 226l234 226l29 -31l-185 -175h530l-186 175z" />
    <glyph glyph-name="arrowupdn" unicode="&#x2195;" horiz-adv-x="576" 
d="M308 96l174 184l32 -30l-226 -234l-226 234l31 30l174 -184v506l-174 -183l-31 30l226 234l226 -234l-32 -30l-174 184v-507z" />
    <glyph glyph-name="uni21B3" unicode="&#x21b3;" horiz-adv-x="717" 
d="M422 572l233 -226l-233 -226l-31 32l184 174h-463v374h44v-333h418l-183 173z" />
    <glyph glyph-name="lozenge" unicode="&#x25ca;" horiz-adv-x="638" 
d="M289 0l-217 350l217 350h60l217 -350l-217 -350h-60zM319 32l198 318l-198 318l-198 -318z" />
    <glyph glyph-name="uniF8FF" unicode="&#xf8ff;" horiz-adv-x="686" 
d="M50 0v423c-4 154 139 295 292 292c155 3 298 -138 294 -292v-423h-28l-65 65l-68 -65l-63 65l-71 -65l-69 65l-63 -65l-67 65l-66 -65h-26zM287 377c0 40 -31 72 -71 72c-39 0 -71 -32 -71 -72c0 -39 32 -70 71 -70s71 31 71 70zM542 377c0 40 -32 72 -72 72
c-39 0 -70 -32 -70 -72c0 -37 33 -70 70 -70c39 0 72 33 72 70z" />
    <glyph glyph-name="at" unicode="@" horiz-adv-x="810" 
d="M72 292c-3 205 146 367 335 364c199 0 331 -139 331 -344c0 -152 -44 -222 -136 -222c-47 0 -78 22 -89 62h-2c-20 -40 -69 -66 -125 -66c-72 0 -119 43 -119 108c0 59 32 92 109 116c93 31 119 48 119 81c0 41 -32 66 -80 66c-57 0 -94 -33 -103 -93l-40 7
c11 77 64 124 143 124c76 0 124 -46 124 -121v-156c0 -68 18 -93 65 -93c67 0 96 59 96 187c0 185 -116 309 -293 309c-165 3 -300 -144 -297 -329c0 -211 108 -331 295 -331c78 0 144 20 199 60l18 -33c-61 -41 -134 -62 -217 -62c-208 0 -333 135 -333 366zM498 218v118
h-2c-7 -19 -40 -37 -109 -60c-57 -19 -77 -39 -77 -80c0 -45 30 -72 79 -72c64 0 109 38 109 94z" />
    <glyph glyph-name="ampersand" unicode="&#x26;" horiz-adv-x="677" 
d="M640 85l-27 -31l-80 71c-25 -85 -111 -140 -230 -140c-144 0 -231 74 -231 197c0 88 54 163 155 218c-68 63 -95 108 -95 163c0 86 71 152 170 152s167 -58 176 -154l-43 -7c-12 80 -57 120 -133 120c-73 0 -126 -45 -126 -112c0 -43 21 -80 74 -128l251 -225v181h42
v-218zM498 157l-240 215c-97 -49 -142 -110 -142 -190c0 -95 72 -156 187 -156c107 0 179 50 195 131z" />
    <glyph glyph-name="paragraph" unicode="&#xb6;" horiz-adv-x="519" 
d="M183 -136v543c-40 1 -74 16 -101 43s-40 62 -40 104c0 91 62 146 146 146h235v-836h-46v793h-148v-793h-46z" />
    <glyph glyph-name="section" unicode="&#xa7;" horiz-adv-x="636" 
d="M509 -20c0 -92 -75 -159 -183 -159c-112 0 -191 70 -202 175l47 5c9 -85 68 -137 155 -137c81 0 137 48 137 116c0 53 -34 89 -107 120l-125 53c-100 41 -139 82 -139 147c0 48 32 94 96 138c-41 33 -61 72 -61 118c0 92 75 159 183 159c112 0 191 -70 202 -175l-47 -5
c-11 87 -67 137 -155 137c-81 0 -137 -48 -137 -116c0 -53 34 -89 107 -120l125 -53c100 -41 139 -82 139 -147c0 -49 -32 -95 -96 -138c41 -33 61 -72 61 -118zM249 192l129 -54c8 -3 19 -9 34 -16c57 36 86 74 86 114c0 45 -28 73 -111 108l-129 54c-13 5 -25 11 -34 16
c-57 -35 -85 -73 -85 -114c0 -45 29 -73 110 -108z" />
    <glyph glyph-name="copyright" unicode="&#xa9;" horiz-adv-x="730" 
d="M62 323c-3 177 136 310 303 307c167 3 306 -130 303 -307c3 -177 -136 -310 -303 -307c-167 -3 -306 130 -303 307zM633 323c3 161 -119 277 -268 275c-150 0 -268 -112 -268 -275s118 -275 268 -275c149 -2 271 114 268 275zM217 323c0 111 60 185 151 185
c73 0 127 -48 139 -125l-38 -6c-9 61 -46 95 -101 95c-69 0 -112 -58 -112 -149s43 -149 112 -149c55 0 92 34 101 95l38 -7c-12 -76 -66 -124 -139 -124c-91 0 -151 74 -151 185z" />
    <glyph glyph-name="registered" unicode="&#xae;" horiz-adv-x="730" 
d="M668 323c3 -177 -136 -310 -303 -307c-167 -3 -306 130 -303 307c-3 177 136 310 303 307c167 3 306 -130 303 -307zM633 323c3 161 -119 277 -268 275c-150 0 -268 -112 -268 -275s118 -275 268 -275c149 -2 271 114 268 275zM424 293l78 -147h-43l-74 145h-86v-145h-39
v354h136c72 0 116 -38 116 -103c0 -57 -32 -93 -88 -104zM472 397c0 44 -28 68 -80 68h-91v-140h91c51 0 80 27 80 72z" />
    <glyph glyph-name="uni2117" unicode="&#x2117;" horiz-adv-x="730" 
d="M62 323c-3 177 136 310 303 307c167 3 306 -130 303 -307c3 -177 -136 -310 -303 -307c-167 -3 -306 130 -303 307zM633 323c3 161 -119 277 -268 275c-150 0 -268 -112 -268 -275s118 -275 268 -275c149 -2 271 114 268 275zM272 145v354h129c75 0 118 -40 118 -109
c0 -68 -43 -107 -118 -107h-89v-138h-40zM312 318h86c52 0 81 25 81 72c0 49 -27 74 -82 74h-85v-146z" />
    <glyph glyph-name="trademark" unicode="&#x2122;" horiz-adv-x="760" 
d="M164 361v305h-107v34h249v-34h-107v-305h-35zM367 361v339h48l117 -285h1l118 285h47v-339h-34v282h-1l-117 -282h-26l-117 282h-1v-282h-35z" />
    <glyph glyph-name="degree" unicode="&#xb0;" horiz-adv-x="426" 
d="M52 545c0 47 15 85 45 115s69 45 116 45s86 -15 116 -45s45 -68 45 -115s-15 -85 -45 -115c-30 -29 -69 -44 -116 -44s-86 15 -116 44c-30 30 -45 68 -45 115zM334 545c0 73 -49 122 -121 122c-71 0 -120 -49 -120 -122c0 -72 49 -121 120 -121s121 49 121 121z" />
    <glyph glyph-name="bar" unicode="|" horiz-adv-x="261" 
d="M112 -300v1075h37v-1075h-37z" />
    <glyph glyph-name="brokenbar" unicode="&#xa6;" horiz-adv-x="261" 
d="M112 350v425h37v-425h-37zM112 -300v425h37v-425h-37z" />
    <glyph glyph-name="dagger" unicode="&#x2020;" horiz-adv-x="614" 
d="M284 -192v679h-222v43h222v239h46v-239h222v-43h-222v-679h-46z" />
    <glyph glyph-name="daggerdbl" unicode="&#x2021;" horiz-adv-x="614" 
d="M284 -192v223h-222v44h222v412h-222v43h222v228h46v-228h222v-43h-222v-412h222v-44h-222v-223h-46z" />
    <glyph glyph-name="uni2116" unicode="&#x2116;" horiz-adv-x="1058" 
d="M672 490c0 135 63 219 166 219s167 -84 167 -219s-64 -219 -167 -219s-166 84 -166 219zM92 0v700h57l369 -629h2v629h47v-700h-57l-369 629h-2v-629h-47zM962 490c0 112 -45 179 -124 179c-77 0 -123 -67 -123 -179s46 -179 123 -179c79 0 124 67 124 179zM672 166v39
h333v-39h-333z" />
    <glyph glyph-name="asciicircum" unicode="^" horiz-adv-x="546" 
d="M464 329h-48l-143 311l-142 -311h-49l174 371h35z" />
    <glyph glyph-name="at.case" horiz-adv-x="810" 
d="M72 351c-3 205 146 367 335 364c199 0 331 -139 331 -344c0 -152 -44 -222 -136 -222c-47 0 -78 22 -89 62h-2c-20 -40 -69 -66 -125 -66c-72 0 -119 43 -119 108c0 59 32 92 109 116c93 31 119 48 119 81c0 41 -32 66 -80 66c-57 0 -94 -33 -103 -93l-40 7
c11 77 64 124 143 124c76 0 124 -46 124 -121v-156c0 -68 18 -93 65 -93c67 0 96 59 96 187c0 185 -116 309 -293 309c-165 3 -300 -144 -297 -329c0 -211 108 -331 295 -331c78 0 144 20 199 60l18 -33c-61 -41 -134 -62 -217 -62c-208 0 -333 135 -333 366zM498 277v118
h-2c-7 -19 -40 -37 -109 -60c-57 -19 -77 -39 -77 -80c0 -45 30 -72 79 -72c64 0 109 38 109 94z" />
    <glyph glyph-name="uni0308" unicode="&#x308;" horiz-adv-x="0" 
d="M-242 580v75h76v-75h-76zM-76 580v75h76v-75h-76z" />
    <glyph glyph-name="uni0307" unicode="&#x307;" horiz-adv-x="0" 
d="M-76 590v75h76v-75h-76z" />
    <glyph glyph-name="gravecomb" unicode="&#x300;" horiz-adv-x="0" 
d="M-44 590l-92 106h71l65 -106h-44z" />
    <glyph glyph-name="acutecomb" unicode="&#x301;" horiz-adv-x="0" 
d="M-136 590l66 106h70l-92 -106h-44z" />
    <glyph glyph-name="uni030B" unicode="&#x30b;" horiz-adv-x="0" 
d="M-259 590l66 106h70l-92 -106h-44zM-136 590l66 106h70l-92 -106h-44z" />
    <glyph glyph-name="uni0302" unicode="&#x302;" horiz-adv-x="0" 
d="M0 594l-30 -24l-70 87l-70 -87l-30 24l68 85h64z" />
    <glyph glyph-name="uni030C" unicode="&#x30c;" horiz-adv-x="0" 
d="M-30 689l30 -24l-68 -85h-64l-68 85l30 24l70 -87z" />
    <glyph glyph-name="uni0306" unicode="&#x306;" horiz-adv-x="0" 
d="M-214 683h30c7 -37 33 -60 77 -60s70 23 77 60h30c-3 -63 -43 -103 -107 -103s-104 40 -107 103z" />
    <glyph glyph-name="uni030A" unicode="&#x30a;" horiz-adv-x="0" 
d="M-216 603c0 59 45 103 108 103s108 -44 108 -103c0 -60 -45 -103 -108 -103s-108 43 -108 103zM-35 603c0 43 -32 73 -73 73c-43 0 -73 -30 -73 -73c0 -41 30 -73 73 -73c41 0 73 32 73 73z" />
    <glyph glyph-name="tildecomb" unicode="&#x303;" horiz-adv-x="0" 
d="M-132 608c-25 13 -37 20 -53 20c-20 0 -32 -13 -36 -38h-29c3 47 28 75 68 75c21 0 36 -7 65 -23c21 -13 39 -19 52 -19c21 0 34 12 37 37h28c-3 -47 -28 -75 -67 -75c-23 0 -40 8 -65 23z" />
    <glyph glyph-name="uni0304" unicode="&#x304;" horiz-adv-x="0" 
d="M-242 590v37h242v-37h-242z" />
    <glyph glyph-name="uni0312" unicode="&#x312;" horiz-adv-x="0" 
d="M-2 726v-27c-23 -4 -31 -15 -31 -39h33v-71h-81v62c0 47 27 72 79 75z" />
    <glyph glyph-name="dotbelowcomb" unicode="&#x323;" horiz-adv-x="0" 
d="M-76 -124v75h76v-75h-76z" />
    <glyph glyph-name="uni0326" unicode="&#x326;" horiz-adv-x="0" 
d="M-74 -186v27c21 4 29 15 29 39h-31v71h76v-62c0 -47 -25 -72 -74 -75z" />
    <glyph glyph-name="uni0327" unicode="&#x327;" horiz-adv-x="0" 
d="M0 -121c0 -49 -40 -85 -93 -85c-37 0 -68 14 -93 41l24 25c21 -23 41 -33 69 -33c35 0 59 23 59 52s-23 50 -56 50c-25 0 -45 -10 -62 -30l-28 13l58 106l28 -12l-35 -60c13 7 27 11 44 11c49 0 85 -33 85 -78z" />
    <glyph glyph-name="uni0328" unicode="&#x328;" horiz-adv-x="0" 
d="M-158 -113c0 43 40 91 101 124l24 -11c-57 -32 -85 -67 -85 -105c0 -25 14 -38 42 -38c19 0 38 7 59 20l17 -35c-24 -16 -51 -24 -81 -24c-49 0 -77 24 -77 69z" />
    <glyph glyph-name="uni0335" unicode="&#x335;" horiz-adv-x="0" 
d="M-337 341v40h337v-40h-337z" />
    <glyph glyph-name="uni0336" unicode="&#x336;" horiz-adv-x="0" 
d="M-646 341v40h646v-40h-646z" />
    <glyph glyph-name="uni0337" unicode="&#x337;" horiz-adv-x="0" 
d="M-406 -1l-22 17l406 516l22 -17z" />
    <glyph glyph-name="_646" horiz-adv-x="0" 
d="M0 373l-144 -136v8l-116 -111l-20 21l137 130v-8l123 118z" />
    <glyph glyph-name="uni0338" unicode="&#x338;" horiz-adv-x="0" 
d="M-406 -19l-30 17l407 722l29 -17z" />
    <glyph glyph-name="_648" horiz-adv-x="0" 
d="M0 422l-209 -191v5l-152 -146l-21 21l187 179v-3l173 158z" />
    <glyph glyph-name="_649" horiz-adv-x="0" 
d="M-66 625v64h66v-64h-66z" />
    <glyph glyph-name="_650" horiz-adv-x="0" 
d="M-250 345v36h250v-36h-250z" />
    <glyph glyph-name="acute" unicode="&#xb4;" horiz-adv-x="280" 
d="M72 590l66 106h70l-92 -106h-44z" />
    <glyph glyph-name="breve" unicode="&#x2d8;" horiz-adv-x="352" 
d="M72 683h30c7 -37 33 -60 77 -60s70 23 77 60h30c-3 -63 -43 -103 -107 -103s-104 40 -107 103z" />
    <glyph glyph-name="caron" unicode="&#x2c7;" horiz-adv-x="344" 
d="M242 689l30 -24l-68 -85h-64l-68 85l30 24l70 -87z" />
    <glyph glyph-name="cedilla" unicode="&#xb8;" horiz-adv-x="330" 
d="M258 -121c0 -49 -40 -85 -93 -85c-37 0 -68 14 -93 41l24 25c21 -23 41 -33 69 -33c35 0 59 23 59 52s-23 50 -56 50c-25 0 -45 -10 -62 -30l-28 13l58 106l28 -12l-35 -60c13 7 27 11 44 11c49 0 85 -33 85 -78z" />
    <glyph glyph-name="circumflex" unicode="&#x2c6;" horiz-adv-x="344" 
d="M272 594l-30 -24l-70 87l-70 -87l-30 24l68 85h64z" />
    <glyph glyph-name="dieresis" unicode="&#xa8;" horiz-adv-x="386" 
d="M72 580v75h76v-75h-76zM238 580v75h76v-75h-76z" />
    <glyph glyph-name="dotaccent" unicode="&#x2d9;" horiz-adv-x="220" 
d="M72 590v75h76v-75h-76z" />
    <glyph glyph-name="grave" unicode="`" horiz-adv-x="280" 
d="M164 590l-92 106h71l65 -106h-44z" />
    <glyph glyph-name="hungarumlaut" unicode="&#x2dd;" horiz-adv-x="403" 
d="M72 590l66 106h70l-92 -106h-44zM195 590l66 106h70l-92 -106h-44z" />
    <glyph glyph-name="macron" unicode="&#xaf;" horiz-adv-x="386" 
d="M72 590v37h242v-37h-242z" />
    <glyph glyph-name="ogonek" unicode="&#x2db;" horiz-adv-x="302" 
d="M72 -113c0 43 40 91 101 124l24 -11c-57 -32 -85 -67 -85 -105c0 -25 14 -38 42 -38c19 0 38 7 59 20l17 -35c-24 -16 -51 -24 -81 -24c-49 0 -77 24 -77 69z" />
    <glyph glyph-name="ring" unicode="&#x2da;" horiz-adv-x="360" 
d="M72 603c0 59 45 103 108 103s108 -44 108 -103c0 -60 -45 -103 -108 -103s-108 43 -108 103zM253 603c0 43 -32 73 -73 73c-43 0 -73 -30 -73 -73c0 -41 30 -73 73 -73c41 0 73 32 73 73z" />
    <glyph glyph-name="tilde" unicode="&#x2dc;" horiz-adv-x="394" 
d="M190 608c-25 13 -37 20 -53 20c-20 0 -32 -13 -36 -38h-29c3 47 28 75 68 75c21 0 36 -7 65 -23c21 -13 39 -19 52 -19c21 0 34 12 37 37h28c-3 -47 -28 -75 -67 -75c-23 0 -40 8 -65 23z" />
    </font>
</defs>
</svg>
